  0
SECTION
  2
HEADER
  9
$ACADVER
  1
AC1014
  9
$HANDSEED
  5
FFFF
  9
$MEASUREMENT
 70
     1
  0
ENDSEC
  0
SECTION
  2
TABLES
  0
TABLE
  2
VPORT
  5
8
330
0
100
AcDbSymbolTable
 70
     4
  0
VPORT
  5
2E
330
8
100
AcDbSymbolTableRecord
100
AcDbViewportTableRecord
  2
*ACTIVE
 70
     0
 10
0.0
 20
0.0
 11
1.0
 21
1.0
 12
210.0
 22
148.5
 13
0.0
 23
0.0
 14
10.0
 24
10.0
 15
10.0
 25
10.0
 16
0.0
 26
0.0
 36
1.0
 17
0.0
 27
0.0
 37
0.0
 40
341.0
 41
1.24
 42
50.0
 43
0.0
 44
0.0
 50
0.0
 51
0.0
 71
     0
 72
   100
 73
     1
 74
     3
 75
     0
 76
     0
 77
     0
 78
     0
  0
ENDTAB
  0
TABLE
  2
LTYPE
  5
5
330
0
100
AcDbSymbolTable
 70
     1
  0
LTYPE
  5
14
330
5
100
AcDbSymbolTableRecord
100
AcDbLinetypeTableRecord
  2
BYBLOCK
 70
     0
  3

 72
    65
 73
     0
 40
0.0
  0
LTYPE
  5
15
330
5
100
AcDbSymbolTableRecord
100
AcDbLinetypeTableRecord
  2
BYLAYER
 70
     0
  3

 72
    65
 73
     0
 40
0.0
  0
LTYPE
  5
16
330
5
100
AcDbSymbolTableRecord
100
AcDbLinetypeTableRecord
  2
CONTINUOUS
 70
     0
  3
Solid line
 72
    65
 73
     0
 40
0.0
  0
ENDTAB
  0
TABLE
  2
LAYER
  5
2
100
AcDbSymbolTable
 70
1
  0
LAYER
  5
50
100
AcDbSymbolTableRecord
100
AcDbLayerTableRecord
  2
0
 70
0
  6
CONTINUOUS
  0
ENDTAB
  0
TABLE
  2
STYLE
  5
3
330
0
100
AcDbSymbolTable
 70
     1
  0
STYLE
  5
11
330
3
100
AcDbSymbolTableRecord
100
AcDbTextStyleTableRecord
  2
STANDARD
 70
     0
 40
0.0
 41
1.0
 50
0.0
 71
     0
 42
2.5
  3
txt
  4

  0
ENDTAB
  0
TABLE
  2
VIEW
  5
6
330
0
100
AcDbSymbolTable
 70
     0
  0
ENDTAB
  0
TABLE
  2
UCS
  5
7
330
0
100
AcDbSymbolTable
 70
     0
  0
ENDTAB
  0
TABLE
  2
APPID
  5
9
330
0
100
AcDbSymbolTable
 70
     2
  0
APPID
  5
12
330
9
100
AcDbSymbolTableRecord
100
AcDbRegAppTableRecord
  2
ACAD
 70
     0
  0
ENDTAB
  0
TABLE
  2
DIMSTYLE
  5
A
330
0
100
AcDbSymbolTable
 70
     1
  0
DIMSTYLE
105
27
330
A
100
AcDbSymbolTableRecord
100
AcDbDimStyleTableRecord
  2
ISO-25
 70
     0
  3

  4

  5

  6

  7

 40
1.0
 41
2.5
 42
0.625
 43
3.75
 44
1.25
 45
0.0
 46
0.0
 47
0.0
 48
0.0
140
2.5
141
2.5
142
0.0
143
0.03937007874016
144
1.0
145
0.0
146
1.0
147
0.625
 71
     0
 72
     0
 73
     0
 74
     0
 75
     0
 76
     0
 77
     1
 78
     8
170
     0
171
     3
172
     1
173
     0
174
     0
175
     0
176
     0
177
     0
178
     0
270
     2
271
     2
272
     2
273
     2
274
     3
340
11
275
     0
280
     0
281
     0
282
     0
283
     0
284
     8
285
     0
286
     0
287
     3
288
     0
  0
ENDTAB
  0
TABLE
  2
BLOCK_RECORD
  5
1
330
0
100
AcDbSymbolTable
 70
     1
  0
BLOCK_RECORD
  5
1F
330
1
100
AcDbSymbolTableRecord
100
AcDbBlockTableRecord
  2
*MODEL_SPACE
  0
BLOCK_RECORD
  5
1B
330
1
100
AcDbSymbolTableRecord
100
AcDbBlockTableRecord
  2
*PAPER_SPACE
  0
ENDTAB
  0
ENDSEC
  0
SECTION
  2
BLOCKS
  0
BLOCK
  5
20
330
1F
100
AcDbEntity
  8
0
100
AcDbBlockBegin
  2
*MODEL_SPACE
 70
     0
 10
0.0
 20
0.0
 30
0.0
  3
*MODEL_SPACE
  1

  0
ENDBLK
  5
21
330
1F
100
AcDbEntity
  8
0
100
AcDbBlockEnd
  0
BLOCK
  5
1C
330
1B
100
AcDbEntity
 67
     1
  8
0
100
AcDbBlockBegin
  2
*PAPER_SPACE
  1

  0
ENDBLK
  5
1D
330
1B
100
AcDbEntity
 67
     1
  8
0
100
AcDbBlockEnd
  0
ENDSEC
  0
SECTION
  2
ENTITIES
  0
SPLINE
  5
100
100
AcDbEntity
  8
0
 62
7
100
AcDbSpline
 70
8
 71
3
 72
8
 73
4
 74
0
 40
0
 40
0
 40
0
 40
0
 40
1
 40
1
 40
1
 40
1
 10
532.717500
 20
356.940000
 30
0.0
 10
636.892500
 20
475.025000
 30
0.0
 10
741.120000
 20
593.067500
 30
0.0
 10
845.400000
 20
711.067500
 30
0.0
  0
SPLINE
  5
101
100
AcDbEntity
  8
0
 62
7
100
AcDbSpline
 70
8
 71
3
 72
8
 73
4
 74
0
 40
0
 40
0
 40
0
 40
0
 40
1
 40
1
 40
1
 40
1
 10
845.400000
 20
711.067500
 30
0.0
 10
856.485000
 20
723.540000
 30
0.0
 10
859.365000
 20
734.040000
 30
0.0
 10
852.030000
 20
749.400000
 30
0.0
  0
SPLINE
  5
102
100
AcDbEntity
  8
0
 62
7
100
AcDbSpline
 70
8
 71
3
 72
8
 73
4
 74
0
 40
0
 40
0
 40
0
 40
0
 40
1
 40
1
 40
1
 40
1
 10
852.030000
 20
749.400000
 30
0.0
 10
842.910000
 20
768.502500
 30
0.0
 10
835.395000
 20
788.490000
 30
0.0
 10
828.870000
 20
808.650000
 30
0.0
  0
SPLINE
  5
103
100
AcDbEntity
  8
0
 62
7
100
AcDbSpline
 70
8
 71
3
 72
8
 73
4
 74
0
 40
0
 40
0
 40
0
 40
0
 40
1
 40
1
 40
1
 40
1
 10
828.870000
 20
808.650000
 30
0.0
 10
825.975493
 20
817.972779
 30
0.0
 10
825.305084
 20
827.843970
 30
0.0
 10
826.912500
 20
837.472500
 30
0.0
  0
SPLINE
  5
104
100
AcDbEntity
  8
0
 62
7
100
AcDbSpline
 70
8
 71
3
 72
8
 73
4
 74
0
 40
0
 40
0
 40
0
 40
0
 40
1
 40
1
 40
1
 40
1
 10
826.912500
 20
837.472500
 30
0.0
 10
839.205000
 20
908.512500
 30
0.0
 10
834.930000
 20
977.160000
 30
0.0
 10
797.467500
 20
1040.625000
 30
0.0
  0
SPLINE
  5
105
100
AcDbEntity
  8
0
 62
7
100
AcDbSpline
 70
8
 71
3
 72
8
 73
4
 74
0
 40
0
 40
0
 40
0
 40
0
 40
1
 40
1
 40
1
 40
1
 10
797.467500
 20
1040.625000
 30
0.0
 10
786.750000
 20
1058.775000
 30
0.0
 10
772.822500
 20
1075.125000
 30
0.0
 10
759.667500
 20
1091.722500
 30
0.0
  0
SPLINE
  5
106
100
AcDbEntity
  8
0
 62
7
100
AcDbSpline
 70
8
 71
3
 72
8
 73
4
 74
0
 40
0
 40
0
 40
0
 40
0
 40
1
 40
1
 40
1
 40
1
 10
759.667500
 20
1091.722500
 30
0.0
 10
732.105000
 20
1126.530000
 30
0.0
 10
704.010000
 20
1161.007500
 30
0.0
 10
687.787500
 20
1203.007500
 30
0.0
  0
SPLINE
  5
107
100
AcDbEntity
  8
0
 62
7
100
AcDbSpline
 70
8
 71
3
 72
8
 73
4
 74
0
 40
0
 40
0
 40
0
 40
0
 40
1
 40
1
 40
1
 40
1
 10
687.787500
 20
1203.007500
 30
0.0
 10
681.742500
 20
1218.667500
 30
0.0
 10
676.942500
 20
1234.882500
 30
0.0
 10
672.630000
 20
1251.127500
 30
0.0
  0
SPLINE
  5
108
100
AcDbEntity
  8
0
 62
7
100
AcDbSpline
 70
8
 71
3
 72
8
 73
4
 74
0
 40
0
 40
0
 40
0
 40
0
 40
1
 40
1
 40
1
 40
1
 10
672.630000
 20
1251.127500
 30
0.0
 10
663.375000
 20
1286.047500
 30
0.0
 10
672.502500
 20
1317.727500
 30
0.0
 10
690.862500
 20
1347.637500
 30
0.0
  0
SPLINE
  5
109
100
AcDbEntity
  8
0
 62
7
100
AcDbSpline
 70
8
 71
3
 72
8
 73
4
 74
0
 40
0
 40
0
 40
0
 40
0
 40
1
 40
1
 40
1
 40
1
 10
690.862500
 20
1347.637500
 30
0.0
 10
697.432500
 20
1358.347500
 30
0.0
 10
706.357500
 20
1362.480000
 30
0.0
 10
718.950000
 20
1362.262500
 30
0.0
  0
SPLINE
  5
10a
100
AcDbEntity
  8
0
 62
7
100
AcDbSpline
 70
8
 71
3
 72
8
 73
4
 74
0
 40
0
 40
0
 40
0
 40
0
 40
1
 40
1
 40
1
 40
1
 10
718.950000
 20
1362.262500
 30
0.0
 10
743.325000
 20
1361.835000
 30
0.0
 10
763.950000
 20
1353.127500
 30
0.0
 10
781.830000
 20
1337.100000
 30
0.0
  0
SPLINE
  5
10b
100
AcDbEntity
  8
0
 62
7
100
AcDbSpline
 70
8
 71
3
 72
8
 73
4
 74
0
 40
0
 40
0
 40
0
 40
0
 40
1
 40
1
 40
1
 40
1
 10
781.830000
 20
1337.100000
 30
0.0
 10
790.747500
 20
1329.105000
 30
0.0
 10
795.135000
 20
1320.172500
 30
0.0
 10
792.375000
 20
1307.265000
 30
0.0
  0
SPLINE
  5
10c
100
AcDbEntity
  8
0
 62
7
100
AcDbSpline
 70
8
 71
3
 72
8
 73
4
 74
0
 40
0
 40
0
 40
0
 40
0
 40
1
 40
1
 40
1
 40
1
 10
792.375000
 20
1307.265000
 30
0.0
 10
786.082500
 20
1277.812500
 30
0.0
 10
792.030000
 20
1249.995000
 30
0.0
 10
808.125000
 20
1224.765000
 30
0.0
  0
SPLINE
  5
10d
100
AcDbEntity
  8
0
 62
7
100
AcDbSpline
 70
8
 71
3
 72
8
 73
4
 74
0
 40
0
 40
0
 40
0
 40
0
 40
1
 40
1
 40
1
 40
1
 10
808.125000
 20
1224.765000
 30
0.0
 10
814.432500
 20
1214.887500
 30
0.0
 10
815.490000
 20
1206.765000
 30
0.0
 10
810.742500
 20
1195.432500
 30
0.0
  0
SPLINE
  5
10e
100
AcDbEntity
  8
0
 62
7
100
AcDbSpline
 70
8
 71
3
 72
8
 73
4
 74
0
 40
0
 40
0
 40
0
 40
0
 40
1
 40
1
 40
1
 40
1
 10
810.742500
 20
1195.432500
 30
0.0
 10
792.667500
 20
1152.375000
 30
0.0
 10
798.112500
 20
1112.400000
 30
0.0
 10
830.010000
 20
1077.150000
 30
0.0
  0
SPLINE
  5
10f
100
AcDbEntity
  8
0
 62
7
100
AcDbSpline
 70
8
 71
3
 72
8
 73
4
 74
0
 40
0
 40
0
 40
0
 40
0
 40
1
 40
1
 40
1
 40
1
 10
830.010000
 20
1077.150000
 30
0.0
 10
859.477500
 20
1044.585000
 30
0.0
 10
897.337500
 20
1038.952500
 30
0.0
 10
938.130000
 20
1044.637500
 30
0.0
  0
SPLINE
  5
110
100
AcDbEntity
  8
0
 62
7
100
AcDbSpline
 70
8
 71
3
 72
8
 73
4
 74
0
 40
0
 40
0
 40
0
 40
0
 40
1
 40
1
 40
1
 40
1
 10
938.130000
 20
1044.637500
 30
0.0
 10
954.705000
 20
1046.947500
 30
0.0
 10
967.942500
 20
1056.802500
 30
0.0
 10
980.002500
 20
1068.120000
 30
0.0
  0
SPLINE
  5
111
100
AcDbEntity
  8
0
 62
7
100
AcDbSpline
 70
8
 71
3
 72
8
 73
4
 74
0
 40
0
 40
0
 40
0
 40
0
 40
1
 40
1
 40
1
 40
1
 10
980.002500
 20
1068.120000
 30
0.0
 10
993.810000
 20
1081.080000
 30
0.0
 10
994.957500
 20
1080.810000
 30
0.0
 10
1010.700000
 20
1072.732500
 30
0.0
  0
SPLINE
  5
112
100
AcDbEntity
  8
0
 62
7
100
AcDbSpline
 70
8
 71
3
 72
8
 73
4
 74
0
 40
0
 40
0
 40
0
 40
0
 40
1
 40
1
 40
1
 40
1
 10
1010.700000
 20
1072.732500
 30
0.0
 10
1022.325000
 20
1066.770000
 30
0.0
 10
1034.497500
 20
1061.865000
 30
0.0
 10
1046.415000
 20
1056.450000
 30
0.0
  0
SPLINE
  5
113
100
AcDbEntity
  8
0
 62
7
100
AcDbSpline
 70
8
 71
3
 72
8
 73
4
 74
0
 40
0
 40
0
 40
0
 40
0
 40
1
 40
1
 40
1
 40
1
 10
1046.415000
 20
1056.450000
 30
0.0
 10
1050.772500
 20
1054.477500
 30
0.0
 10
1055.077500
 20
1052.415000
 30
0.0
 10
1059.457500
 20
1050.367500
 30
0.0
  0
SPLINE
  5
114
100
AcDbEntity
  8
0
 62
7
100
AcDbSpline
 70
8
 71
3
 72
8
 73
4
 74
0
 40
0
 40
0
 40
0
 40
0
 40
1
 40
1
 40
1
 40
1
 10
1059.457500
 20
1050.367500
 30
0.0
 10
1059.471356
 20
1050.347133
 30
0.0
 10
1059.471356
 20
1050.320367
 30
0.0
 10
1059.457500
 20
1050.300000
 30
0.0
  0
SPLINE
  5
115
100
AcDbEntity
  8
0
 62
7
100
AcDbSpline
 70
8
 71
3
 72
8
 73
4
 74
0
 40
0
 40
0
 40
0
 40
0
 40
1
 40
1
 40
1
 40
1
 10
1059.457500
 20
1050.300000
 30
0.0
 10
1056.382500
 20
1035.030000
 30
0.0
 10
1052.707500
 20
1021.192500
 30
0.0
 10
1050.945000
 20
1007.122500
 30
0.0
  0
SPLINE
  5
116
100
AcDbEntity
  8
0
 62
7
100
AcDbSpline
 70
8
 71
3
 72
8
 73
4
 74
0
 40
0
 40
0
 40
0
 40
0
 40
1
 40
1
 40
1
 40
1
 10
1050.945000
 20
1007.122500
 30
0.0
 10
1047.765000
 20
982.320000
 30
0.0
 10
1053.195000
 20
972.952500
 30
0.0
 10
1076.445000
 20
963.562500
 30
0.0
  0
SPLINE
  5
117
100
AcDbEntity
  8
0
 62
7
100
AcDbSpline
 70
8
 71
3
 72
8
 73
4
 74
0
 40
0
 40
0
 40
0
 40
0
 40
1
 40
1
 40
1
 40
1
 10
1076.445000
 20
963.562500
 30
0.0
 10
1087.335000
 20
959.152500
 30
0.0
 10
1099.020000
 20
956.505000
 30
0.0
 10
1110.532500
 20
953.872500
 30
0.0
  0
SPLINE
  5
118
100
AcDbEntity
  8
0
 62
7
100
AcDbSpline
 70
8
 71
3
 72
8
 73
4
 74
0
 40
0
 40
0
 40
0
 40
0
 40
1
 40
1
 40
1
 40
1
 10
1110.532500
 20
953.872500
 30
0.0
 10
1131.030000
 20
949.192500
 30
0.0
 10
1138.237500
 20
942.720000
 30
0.0
 10
1140.832500
 20
921.510000
 30
0.0
  0
SPLINE
  5
119
100
AcDbEntity
  8
0
 62
7
100
AcDbSpline
 70
8
 71
3
 72
8
 73
4
 74
0
 40
0
 40
0
 40
0
 40
0
 40
1
 40
1
 40
1
 40
1
 10
1140.832500
 20
921.510000
 30
0.0
 10
1145.760000
 20
881.190000
 30
0.0
 10
1159.867500
 20
843.907500
 30
0.0
 10
1178.490000
 20
808.402500
 30
0.0
  0
SPLINE
  5
11a
100
AcDbEntity
  8
0
 62
7
100
AcDbSpline
 70
8
 71
3
 72
8
 73
4
 74
0
 40
0
 40
0
 40
0
 40
0
 40
1
 40
1
 40
1
 40
1
 10
1178.490000
 20
808.402500
 30
0.0
 10
1185.600000
 20
794.842500
 30
0.0
 10
1195.740000
 20
782.152500
 30
0.0
 10
1206.990000
 20
771.690000
 30
0.0
  0
SPLINE
  5
11b
100
AcDbEntity
  8
0
 62
7
100
AcDbSpline
 70
8
 71
3
 72
8
 73
4
 74
0
 40
0
 40
0
 40
0
 40
0
 40
1
 40
1
 40
1
 40
1
 10
1206.990000
 20
771.690000
 30
0.0
 10
1216.387500
 20
762.915000
 30
0.0
 10
1218.877500
 20
753.975000
 30
0.0
 10
1218.832500
 20
742.132500
 30
0.0
  0
SPLINE
  5
11c
100
AcDbEntity
  8
0
 62
7
100
AcDbSpline
 70
8
 71
3
 72
8
 73
4
 74
0
 40
0
 40
0
 40
0
 40
0
 40
1
 40
1
 40
1
 40
1
 10
1218.832500
 20
742.132500
 30
0.0
 10
1218.427500
 20
642.762500
 30
0.0
 10
1218.227500
 20
543.392500
 30
0.0
 10
1218.232500
 20
444.022500
 30
0.0
  0
SPLINE
  5
11d
100
AcDbEntity
  8
0
 62
7
100
AcDbSpline
 70
8
 71
3
 72
8
 73
4
 74
0
 40
0
 40
0
 40
0
 40
0
 40
1
 40
1
 40
1
 40
1
 10
1218.232500
 20
444.022500
 30
0.0
 10
1218.087500
 20
333.397500
 30
0.0
 10
1217.977500
 20
222.772500
 30
0.0
 10
1217.902500
 20
112.147500
 30
0.0
  0
SPLINE
  5
11e
100
AcDbEntity
  8
0
 62
7
100
AcDbSpline
 70
8
 71
3
 72
8
 73
4
 74
0
 40
0
 40
0
 40
0
 40
0
 40
1
 40
1
 40
1
 40
1
 10
1217.902500
 20
112.147500
 30
0.0
 10
1217.902500
 20
108.637500
 30
0.0
 10
1218.510000
 20
103.725000
 30
0.0
 10
1218.922500
 20
95.610000
 30
0.0
  0
SPLINE
  5
11f
100
AcDbEntity
  8
0
 62
7
100
AcDbSpline
 70
8
 71
3
 72
8
 73
4
 74
0
 40
0
 40
0
 40
0
 40
0
 40
1
 40
1
 40
1
 40
1
 10
1219.035000
 20
95.610000
 30
0.0
 10
1219.710000
 20
97.110000
 30
0.0
 10
1223.055000
 20
107.407500
 30
0.0
 10
1223.400000
 20
108.157500
 30
0.0
  0
LWPOLYLINE
  5
120
100
AcDbEntity
  8
0
 62
7
100
AcDbPolyline
 90
3
 70
0
 10
1218.922500
 20
95.610000
 30
0.0
 10
1218.978750
 20
95.570879
 30
0.0
 10
1219.035000
 20
95.610000
 30
0.0
  0
SPLINE
  5
121
100
AcDbEntity
  8
0
 62
7
100
AcDbSpline
 70
8
 71
3
 72
8
 73
4
 74
0
 40
0
 40
0
 40
0
 40
0
 40
1
 40
1
 40
1
 40
1
 10
1223.445000
 20
108.247500
 30
0.0
 10
1251.847500
 20
245.175000
 30
0.0
 10
1280.865000
 20
382.440000
 30
0.0
 10
1309.215000
 20
519.382500
 30
0.0
  0
SPLINE
  5
122
100
AcDbEntity
  8
0
 62
7
100
AcDbSpline
 70
8
 71
3
 72
8
 73
4
 74
0
 40
0
 40
0
 40
0
 40
0
 40
1
 40
1
 40
1
 40
1
 10
1309.215000
 20
519.382500
 30
0.0
 10
1318.215000
 20
562.792500
 30
0.0
 10
1327.057500
 20
606.232500
 30
0.0
 10
1336.590000
 20
649.530000
 30
0.0
  0
SPLINE
  5
123
100
AcDbEntity
  8
0
 62
7
100
AcDbSpline
 70
8
 71
3
 72
8
 73
4
 74
0
 40
0
 40
0
 40
0
 40
0
 40
1
 40
1
 40
1
 40
1
 10
1336.590000
 20
649.530000
 30
0.0
 10
1339.432500
 20
662.445000
 30
0.0
 10
1336.905000
 20
671.640000
 30
0.0
 10
1326.802500
 20
680.925000
 30
0.0
  0
SPLINE
  5
124
100
AcDbEntity
  8
0
 62
7
100
AcDbSpline
 70
8
 71
3
 72
8
 73
4
 74
0
 40
0
 40
0
 40
0
 40
0
 40
1
 40
1
 40
1
 40
1
 10
1326.802500
 20
680.925000
 30
0.0
 10
1298.302500
 20
707.137500
 30
0.0
 10
1270.785000
 20
734.460000
 30
0.0
 10
1242.982500
 20
761.437500
 30
0.0
  0
SPLINE
  5
125
100
AcDbEntity
  8
0
 62
7
100
AcDbSpline
 70
8
 71
3
 72
8
 73
4
 74
0
 40
0
 40
0
 40
0
 40
0
 40
1
 40
1
 40
1
 40
1
 10
1242.982500
 20
761.437500
 30
0.0
 10
1240.372500
 20
763.965000
 30
0.0
 10
1238.445000
 20
767.190000
 30
0.0
 10
1236.007500
 20
770.347500
 30
0.0
  0
LWPOLYLINE
  5
126
100
AcDbEntity
  8
0
 62
7
100
AcDbPolyline
 90
2
 70
0
 10
1223.400000
 20
108.157500
 30
0.0
 10
1223.445000
 20
108.247500
 30
0.0
  0
SPLINE
  5
127
100
AcDbEntity
  8
0
 62
7
100
AcDbSpline
 70
8
 71
3
 72
8
 73
4
 74
0
 40
0
 40
0
 40
0
 40
0
 40
1
 40
1
 40
1
 40
1
 10
1236.007500
 20
770.400000
 30
0.0
 10
1236.960000
 20
773.100000
 30
0.0
 10
1237.252500
 20
775.770000
 30
0.0
 10
1238.655000
 20
777.562500
 30
0.0
  0
SPLINE
  5
128
100
AcDbEntity
  8
0
 62
7
100
AcDbSpline
 70
8
 71
3
 72
8
 73
4
 74
0
 40
0
 40
0
 40
0
 40
0
 40
1
 40
1
 40
1
 40
1
 10
1238.655000
 20
777.562500
 30
0.0
 10
1271.857500
 20
820.020000
 30
0.0
 10
1289.152500
 20
868.875000
 30
0.0
 10
1297.072500
 20
921.562500
 30
0.0
  0
SPLINE
  5
129
100
AcDbEntity
  8
0
 62
7
100
AcDbSpline
 70
8
 71
3
 72
8
 73
4
 74
0
 40
0
 40
0
 40
0
 40
0
 40
1
 40
1
 40
1
 40
1
 10
1297.072500
 20
921.562500
 30
0.0
 10
1300.312500
 20
943.110000
 30
0.0
 10
1307.212500
 20
949.155000
 30
0.0
 10
1329.367500
 20
954.217500
 30
0.0
  0
SPLINE
  5
12a
100
AcDbEntity
  8
0
 62
7
100
AcDbSpline
 70
8
 71
3
 72
8
 73
4
 74
0
 40
0
 40
0
 40
0
 40
0
 40
1
 40
1
 40
1
 40
1
 10
1329.367500
 20
954.217500
 30
0.0
 10
1342.650000
 20
957.255000
 30
0.0
 10
1355.617500
 20
961.860000
 30
0.0
 10
1368.420000
 20
966.697500
 30
0.0
  0
SPLINE
  5
12b
100
AcDbEntity
  8
0
 62
7
100
AcDbSpline
 70
8
 71
3
 72
8
 73
4
 74
0
 40
0
 40
0
 40
0
 40
0
 40
1
 40
1
 40
1
 40
1
 10
1368.420000
 20
966.697500
 30
0.0
 10
1382.385000
 20
971.985000
 30
0.0
 10
1388.670000
 20
983.197500
 30
0.0
 10
1387.545000
 20
997.777500
 30
0.0
  0
SPLINE
  5
12c
100
AcDbEntity
  8
0
 62
7
100
AcDbSpline
 70
8
 71
3
 72
8
 73
4
 74
0
 40
0
 40
0
 40
0
 40
0
 40
1
 40
1
 40
1
 40
1
 10
1387.545000
 20
997.777500
 30
0.0
 10
1386.705000
 20
1008.922500
 30
0.0
 10
1384.582500
 20
1020.000000
 30
0.0
 10
1382.647500
 20
1031.040000
 30
0.0
  0
SPLINE
  5
12d
100
AcDbEntity
  8
0
 62
7
100
AcDbSpline
 70
8
 71
3
 72
8
 73
4
 74
0
 40
0
 40
0
 40
0
 40
0
 40
1
 40
1
 40
1
 40
1
 10
1382.647500
 20
1031.040000
 30
0.0
 10
1381.597500
 20
1037.040000
 30
0.0
 10
1379.745000
 20
1042.882500
 30
0.0
 10
1377.915000
 20
1050.157500
 30
0.0
  0
SPLINE
  5
12e
100
AcDbEntity
  8
0
 62
7
100
AcDbSpline
 70
8
 71
3
 72
8
 73
4
 74
0
 40
0
 40
0
 40
0
 40
0
 40
1
 40
1
 40
1
 40
1
 10
1377.915000
 20
1050.157500
 30
0.0
 10
1377.901603
 20
1050.180705
 30
0.0
 10
1377.901603
 20
1050.209295
 30
0.0
 10
1377.915000
 20
1050.232500
 30
0.0
  0
SPLINE
  5
12f
100
AcDbEntity
  8
0
 62
7
100
AcDbSpline
 70
8
 71
3
 72
8
 73
4
 74
0
 40
0
 40
0
 40
0
 40
0
 40
1
 40
1
 40
1
 40
1
 10
1377.915000
 20
1050.232500
 30
0.0
 10
1397.767500
 20
1059.382500
 30
0.0
 10
1416.772500
 20
1068.345000
 30
0.0
 10
1435.965000
 20
1076.910000
 30
0.0
  0
SPLINE
  5
130
100
AcDbEntity
  8
0
 62
7
100
AcDbSpline
 70
8
 71
3
 72
8
 73
4
 74
0
 40
0
 40
0
 40
0
 40
0
 40
1
 40
1
 40
1
 40
1
 10
1435.965000
 20
1076.910000
 30
0.0
 10
1444.005000
 20
1080.502500
 30
0.0
 10
1449.855000
 20
1076.715000
 30
0.0
 10
1455.675000
 20
1070.722500
 30
0.0
  0
SPLINE
  5
131
100
AcDbEntity
  8
0
 62
7
100
AcDbSpline
 70
8
 71
3
 72
8
 73
4
 74
0
 40
0
 40
0
 40
0
 40
0
 40
1
 40
1
 40
1
 40
1
 10
1455.675000
 20
1070.722500
 30
0.0
 10
1490.295000
 20
1035.097500
 30
0.0
 10
1531.822500
 20
1035.907500
 30
0.0
 10
1573.590000
 20
1052.655000
 30
0.0
  0
SPLINE
  5
132
100
AcDbEntity
  8
0
 62
7
100
AcDbSpline
 70
8
 71
3
 72
8
 73
4
 74
0
 40
0
 40
0
 40
0
 40
0
 40
1
 40
1
 40
1
 40
1
 10
1573.590000
 20
1052.655000
 30
0.0
 10
1618.590000
 20
1070.707500
 30
0.0
 10
1655.340000
 20
1127.535000
 30
0.0
 10
1628.550000
 20
1192.215000
 30
0.0
  0
SPLINE
  5
133
100
AcDbEntity
  8
0
 62
7
100
AcDbSpline
 70
8
 71
3
 72
8
 73
4
 74
0
 40
0
 40
0
 40
0
 40
0
 40
1
 40
1
 40
1
 40
1
 10
1628.550000
 20
1192.215000
 30
0.0
 10
1622.632500
 20
1206.532500
 30
0.0
 10
1624.140000
 20
1216.402500
 30
0.0
 10
1631.782500
 20
1228.440000
 30
0.0
  0
SPLINE
  5
134
100
AcDbEntity
  8
0
 62
7
100
AcDbSpline
 70
8
 71
3
 72
8
 73
4
 74
0
 40
0
 40
0
 40
0
 40
0
 40
1
 40
1
 40
1
 40
1
 10
1631.782500
 20
1228.440000
 30
0.0
 10
1646.407500
 20
1251.495000
 30
0.0
 10
1651.635000
 20
1277.190000
 30
0.0
 10
1646.032500
 20
1303.920000
 30
0.0
  0
SPLINE
  5
135
100
AcDbEntity
  8
0
 62
7
100
AcDbSpline
 70
8
 71
3
 72
8
 73
4
 74
0
 40
0
 40
0
 40
0
 40
0
 40
1
 40
1
 40
1
 40
1
 10
1646.032500
 20
1303.920000
 30
0.0
 10
1642.552500
 20
1320.622500
 30
0.0
 10
1648.552500
 20
1331.355000
 30
0.0
 10
1660.875000
 20
1341.082500
 30
0.0
  0
SPLINE
  5
136
100
AcDbEntity
  8
0
 62
7
100
AcDbSpline
 70
8
 71
3
 72
8
 73
4
 74
0
 40
0
 40
0
 40
0
 40
0
 40
1
 40
1
 40
1
 40
1
 10
1660.875000
 20
1341.082500
 30
0.0
 10
1679.310000
 20
1355.640000
 30
0.0
 10
1699.875000
 20
1362.727500
 30
0.0
 10
1723.395000
 20
1362.202500
 30
0.0
  0
SPLINE
  5
137
100
AcDbEntity
  8
0
 62
7
100
AcDbSpline
 70
8
 71
3
 72
8
 73
4
 74
0
 40
0
 40
0
 40
0
 40
0
 40
1
 40
1
 40
1
 40
1
 10
1723.395000
 20
1362.202500
 30
0.0
 10
1733.145000
 20
1361.977500
 30
0.0
 10
1740.187500
 20
1358.287500
 30
0.0
 10
1745.272500
 20
1350.352500
 30
0.0
  0
SPLINE
  5
138
100
AcDbEntity
  8
0
 62
7
100
AcDbSpline
 70
8
 71
3
 72
8
 73
4
 74
0
 40
0
 40
0
 40
0
 40
0
 40
1
 40
1
 40
1
 40
1
 10
1745.272500
 20
1350.352500
 30
0.0
 10
1763.730000
 20
1321.552500
 30
0.0
 10
1773.975000
 20
1291.027500
 30
0.0
 10
1766.805000
 20
1256.182500
 30
0.0
  0
SPLINE
  5
139
100
AcDbEntity
  8
0
 62
7
100
AcDbSpline
 70
8
 71
3
 72
8
 73
4
 74
0
 40
0
 40
0
 40
0
 40
0
 40
1
 40
1
 40
1
 40
1
 10
1766.805000
 20
1256.182500
 30
0.0
 10
1759.417500
 20
1220.257500
 30
0.0
 10
1746.885000
 20
1186.305000
 30
0.0
 10
1725.810000
 20
1156.387500
 30
0.0
  0
SPLINE
  5
13a
100
AcDbEntity
  8
0
 62
7
100
AcDbSpline
 70
8
 71
3
 72
8
 73
4
 74
0
 40
0
 40
0
 40
0
 40
0
 40
1
 40
1
 40
1
 40
1
 10
1725.810000
 20
1156.387500
 30
0.0
 10
1704.607500
 20
1126.305000
 30
0.0
 10
1680.735000
 20
1098.120000
 30
0.0
 10
1659.060000
 20
1068.375000
 30
0.0
  0
SPLINE
  5
13b
100
AcDbEntity
  8
0
 62
7
100
AcDbSpline
 70
8
 71
3
 72
8
 73
4
 74
0
 40
0
 40
0
 40
0
 40
0
 40
1
 40
1
 40
1
 40
1
 10
1659.060000
 20
1068.375000
 30
0.0
 10
1612.972500
 20
1005.217500
 30
0.0
 10
1593.757500
 20
935.527500
 30
0.0
 10
1611.810000
 20
858.015000
 30
0.0
  0
SPLINE
  5
13c
100
AcDbEntity
  8
0
 62
7
100
AcDbSpline
 70
8
 71
3
 72
8
 73
4
 74
0
 40
0
 40
0
 40
0
 40
0
 40
1
 40
1
 40
1
 40
1
 10
1611.810000
 20
858.015000
 30
0.0
 10
1614.996707
 20
844.672356
 30
0.0
 10
1620.315029
 20
831.931176
 30
0.0
 10
1627.560000
 20
820.282500
 30
0.0
  0
SPLINE
  5
13d
100
AcDbEntity
  8
0
 62
7
100
AcDbSpline
 70
8
 71
3
 72
8
 73
4
 74
0
 40
0
 40
0
 40
0
 40
0
 40
1
 40
1
 40
1
 40
1
 10
1627.560000
 20
820.282500
 30
0.0
 10
1726.850000
 20
660.642500
 30
0.0
 10
1826.425000
 20
501.182500
 30
0.0
 10
1926.285000
 20
341.902500
 30
0.0
  0
SPLINE
  5
13e
100
AcDbEntity
  8
0
 62
7
100
AcDbSpline
 70
8
 71
3
 72
8
 73
4
 74
0
 40
0
 40
0
 40
0
 40
0
 40
1
 40
1
 40
1
 40
1
 10
1926.285000
 20
341.902500
 30
0.0
 10
1927.545000
 20
339.885000
 30
0.0
 10
1930.545000
 20
335.985000
 30
0.0
 10
1934.197500
 20
331.170000
 30
0.0
  0
LWPOLYLINE
  5
13f
100
AcDbEntity
  8
0
 62
7
100
AcDbPolyline
 90
2
 70
0
 10
1236.007500
 20
770.347500
 30
0.0
 10
1236.007500
 20
770.400000
 30
0.0
  0
SPLINE
  5
140
100
AcDbEntity
  8
0
 62
7
100
AcDbSpline
 70
8
 71
3
 72
8
 73
4
 74
0
 40
0
 40
0
 40
0
 40
0
 40
1
 40
1
 40
1
 40
1
 10
1930.717500
 20
345.157500
 30
0.0
 10
1879.252500
 20
499.072500
 30
0.0
 10
1828.137500
 20
653.132500
 30
0.0
 10
1777.372500
 20
807.337500
 30
0.0
  0
SPLINE
  5
141
100
AcDbEntity
  8
0
 62
7
100
AcDbSpline
 70
8
 71
3
 72
8
 73
4
 74
0
 40
0
 40
0
 40
0
 40
0
 40
1
 40
1
 40
1
 40
1
 10
1777.372500
 20
807.337500
 30
0.0
 10
1772.280000
 20
822.697500
 30
0.0
 10
1764.570000
 20
831.060000
 30
0.0
 10
1748.460000
 20
834.840000
 30
0.0
  0
SPLINE
  5
142
100
AcDbEntity
  8
0
 62
7
100
AcDbSpline
 70
8
 71
3
 72
8
 73
4
 74
0
 40
0
 40
0
 40
0
 40
0
 40
1
 40
1
 40
1
 40
1
 10
1748.460000
 20
834.840000
 30
0.0
 10
1719.322500
 20
841.687500
 30
0.0
 10
1690.822500
 20
851.167500
 30
0.0
 10
1661.887500
 20
858.930000
 30
0.0
  0
SPLINE
  5
143
100
AcDbEntity
  8
0
 62
7
100
AcDbSpline
 70
8
 71
3
 72
8
 73
4
 74
0
 40
0
 40
0
 40
0
 40
0
 40
1
 40
1
 40
1
 40
1
 10
1661.887500
 20
858.930000
 30
0.0
 10
1647.720000
 20
862.740000
 30
0.0
 10
1642.455000
 20
871.612500
 30
0.0
 10
1640.302500
 20
885.637500
 30
0.0
  0
SPLINE
  5
144
100
AcDbEntity
  8
0
 62
7
100
AcDbSpline
 70
8
 71
3
 72
8
 73
4
 74
0
 40
0
 40
0
 40
0
 40
0
 40
1
 40
1
 40
1
 40
1
 10
1640.302500
 20
885.637500
 30
0.0
 10
1632.952500
 20
933.592500
 30
0.0
 10
1641.802500
 20
978.180000
 30
0.0
 10
1668.802500
 20
1018.020000
 30
0.0
  0
SPLINE
  5
145
100
AcDbEntity
  8
0
 62
7
100
AcDbSpline
 70
8
 71
3
 72
8
 73
4
 74
0
 40
0
 40
0
 40
0
 40
0
 40
1
 40
1
 40
1
 40
1
 10
1668.802500
 20
1018.020000
 30
0.0
 10
1692.255000
 20
1052.602500
 30
0.0
 10
1717.552500
 20
1086.015000
 30
0.0
 10
1743.397500
 20
1118.872500
 30
0.0
  0
SPLINE
  5
146
100
AcDbEntity
  8
0
 62
7
100
AcDbSpline
 70
8
 71
3
 72
8
 73
4
 74
0
 40
0
 40
0
 40
0
 40
0
 40
1
 40
1
 40
1
 40
1
 10
1743.397500
 20
1118.872500
 30
0.0
 10
1784.947500
 20
1171.687500
 30
0.0
 10
1805.707500
 20
1231.080000
 30
0.0
 10
1801.762500
 20
1298.122500
 30
0.0
  0
SPLINE
  5
147
100
AcDbEntity
  8
0
 62
7
100
AcDbSpline
 70
8
 71
3
 72
8
 73
4
 74
0
 40
0
 40
0
 40
0
 40
0
 40
1
 40
1
 40
1
 40
1
 10
1801.762500
 20
1298.122500
 30
0.0
 10
1799.467500
 20
1336.980000
 30
0.0
 10
1788.120000
 20
1372.372500
 30
0.0
 10
1752.952500
 20
1394.377500
 30
0.0
  0
LWPOLYLINE
  5
148
100
AcDbEntity
  8
0
 62
7
100
AcDbPolyline
 90
5
 70
0
 10
1934.197500
 20
331.170000
 30
0.0
 10
1934.271081
 20
331.159111
 30
0.0
 10
1934.310000
 20
331.222500
 30
0.0
 10
1930.717500
 20
345.157500
 30
0.0
 10
1930.717500
 20
345.157500
 30
0.0
  0
SPLINE
  5
149
100
AcDbEntity
  8
0
 62
7
100
AcDbSpline
 70
8
 71
3
 72
8
 73
4
 74
0
 40
0
 40
0
 40
0
 40
0
 40
1
 40
1
 40
1
 40
1
 10
1752.952500
 20
1394.377500
 30
0.0
 10
1749.202500
 20
1397.377500
 30
0.0
 10
1748.452500
 20
1398.127500
 30
0.0
 10
1744.260000
 20
1401.352500
 30
0.0
  0
LWPOLYLINE
  5
14a
100
AcDbEntity
  8
0
 62
7
100
AcDbPolyline
 90
1
 70
1
 10
1752.952500
 20
1394.377500
 30
0.0
  0
SPLINE
  5
14b
100
AcDbEntity
  8
0
 62
7
100
AcDbSpline
 70
8
 71
3
 72
8
 73
4
 74
0
 40
0
 40
0
 40
0
 40
0
 40
1
 40
1
 40
1
 40
1
 10
1744.260000
 20
1401.442500
 30
0.0
 10
1768.665000
 20
1428.720000
 30
0.0
 10
1795.860000
 20
1449.802500
 30
0.0
 10
1833.112500
 20
1451.542500
 30
0.0
  0
SPLINE
  5
14c
100
AcDbEntity
  8
0
 62
7
100
AcDbSpline
 70
8
 71
3
 72
8
 73
4
 74
0
 40
0
 40
0
 40
0
 40
0
 40
1
 40
1
 40
1
 40
1
 10
1833.112500
 20
1451.542500
 30
0.0
 10
1850.970000
 20
1452.375000
 30
0.0
 10
1869.180000
 20
1449.292500
 30
0.0
 10
1886.992500
 20
1446.532500
 30
0.0
  0
SPLINE
  5
14d
100
AcDbEntity
  8
0
 62
7
100
AcDbSpline
 70
8
 71
3
 72
8
 73
4
 74
0
 40
0
 40
0
 40
0
 40
0
 40
1
 40
1
 40
1
 40
1
 10
1886.992500
 20
1446.532500
 30
0.0
 10
1901.917500
 20
1444.185000
 30
0.0
 10
1911.037500
 20
1434.270000
 30
0.0
 10
1914.600000
 20
1419.367500
 30
0.0
  0
SPLINE
  5
14e
100
AcDbEntity
  8
0
 62
7
100
AcDbSpline
 70
8
 71
3
 72
8
 73
4
 74
0
 40
0
 40
0
 40
0
 40
0
 40
1
 40
1
 40
1
 40
1
 10
1914.600000
 20
1419.367500
 30
0.0
 10
1921.530000
 20
1390.357500
 30
0.0
 10
1922.662500
 20
1362.075000
 30
0.0
 10
1913.002500
 20
1332.772500
 30
0.0
  0
SPLINE
  5
14f
100
AcDbEntity
  8
0
 62
7
100
AcDbSpline
 70
8
 71
3
 72
8
 73
4
 74
0
 40
0
 40
0
 40
0
 40
0
 40
1
 40
1
 40
1
 40
1
 10
1913.002500
 20
1332.772500
 30
0.0
 10
1902.682500
 20
1301.475000
 30
0.0
 10
1895.752500
 20
1269.022500
 30
0.0
 10
1888.252500
 20
1236.847500
 30
0.0
  0
SPLINE
  5
150
100
AcDbEntity
  8
0
 62
7
100
AcDbSpline
 70
8
 71
3
 72
8
 73
4
 74
0
 40
0
 40
0
 40
0
 40
0
 40
1
 40
1
 40
1
 40
1
 10
1888.252500
 20
1236.847500
 30
0.0
 10
1874.880000
 20
1179.450000
 30
0.0
 10
1897.455000
 20
1135.597500
 30
0.0
 10
1941.585000
 20
1100.625000
 30
0.0
  0
SPLINE
  5
151
100
AcDbEntity
  8
0
 62
7
100
AcDbSpline
 70
8
 71
3
 72
8
 73
4
 74
0
 40
0
 40
0
 40
0
 40
0
 40
1
 40
1
 40
1
 40
1
 10
1941.585000
 20
1100.625000
 30
0.0
 10
1949.487738
 20
1094.505644
 30
0.0
 10
1957.932809
 20
1089.120782
 30
0.0
 10
1966.815000
 20
1084.537500
 30
0.0
  0
SPLINE
  5
152
100
AcDbEntity
  8
0
 62
7
100
AcDbSpline
 70
8
 71
3
 72
8
 73
4
 74
0
 40
0
 40
0
 40
0
 40
0
 40
1
 40
1
 40
1
 40
1
 10
1966.815000
 20
1084.537500
 30
0.0
 10
2088.740000
 20
1019.917500
 30
0.0
 10
2210.740000
 20
955.417500
 30
0.0
 10
2332.815000
 20
891.037500
 30
0.0
  0
LWPOLYLINE
  5
153
100
AcDbEntity
  8
0
 62
7
100
AcDbPolyline
 90
3
 70
0
 10
1744.260000
 20
1401.352500
 30
0.0
 10
1744.239686
 20
1401.397500
 30
0.0
 10
1744.260000
 20
1401.442500
 30
0.0
  0
SPLINE
  5
154
100
AcDbEntity
  8
0
 62
7
100
AcDbSpline
 70
8
 71
3
 72
8
 73
4
 74
0
 40
0
 40
0
 40
0
 40
0
 40
1
 40
1
 40
1
 40
1
 10
2332.815000
 20
891.037500
 30
0.0
 10
2333.137500
 20
890.977500
 30
0.0
 10
2340.097500
 20
888.037500
 30
0.0
 10
2341.477500
 20
887.482500
 30
0.0
  0
LWPOLYLINE
  5
155
100
AcDbEntity
  8
0
 62
7
100
AcDbPolyline
 90
1
 70
1
 10
2332.815000
 20
891.037500
 30
0.0
  0
SPLINE
  5
156
100
AcDbEntity
  8
0
 62
7
100
AcDbSpline
 70
8
 71
3
 72
8
 73
4
 74
0
 40
0
 40
0
 40
0
 40
0
 40
1
 40
1
 40
1
 40
1
 10
2341.545000
 20
887.580000
 30
0.0
 10
2337.000000
 20
892.830000
 30
0.0
 10
2327.602500
 20
904.567500
 30
0.0
 10
2322.577500
 20
909.045000
 30
0.0
  0
SPLINE
  5
157
100
AcDbEntity
  8
0
 62
7
100
AcDbSpline
 70
8
 71
3
 72
8
 73
4
 74
0
 40
0
 40
0
 40
0
 40
0
 40
1
 40
1
 40
1
 40
1
 10
2322.577500
 20
909.045000
 30
0.0
 10
2264.737500
 20
960.620000
 30
0.0
 10
2206.800000
 20
1012.080000
 30
0.0
 10
2148.765000
 20
1063.425000
 30
0.0
  0
SPLINE
  5
158
100
AcDbEntity
  8
0
 62
7
100
AcDbSpline
 70
8
 71
3
 72
8
 73
4
 74
0
 40
0
 40
0
 40
0
 40
0
 40
1
 40
1
 40
1
 40
1
 10
2148.765000
 20
1063.425000
 30
0.0
 10
2113.245000
 20
1094.925000
 30
0.0
 10
2077.380000
 20
1126.102500
 30
0.0
 10
2042.467500
 20
1158.277500
 30
0.0
  0
SPLINE
  5
159
100
AcDbEntity
  8
0
 62
7
100
AcDbSpline
 70
8
 71
3
 72
8
 73
4
 74
0
 40
0
 40
0
 40
0
 40
0
 40
1
 40
1
 40
1
 40
1
 10
2042.467500
 20
1158.277500
 30
0.0
 10
2030.992500
 20
1168.852500
 30
0.0
 10
2019.967500
 20
1172.250000
 30
0.0
 10
2005.222500
 20
1167.277500
 30
0.0
  0
SPLINE
  5
15a
100
AcDbEntity
  8
0
 62
7
100
AcDbSpline
 70
8
 71
3
 72
8
 73
4
 74
0
 40
0
 40
0
 40
0
 40
0
 40
1
 40
1
 40
1
 40
1
 10
2005.222500
 20
1167.277500
 30
0.0
 10
1989.877500
 20
1162.027500
 30
0.0
 10
1974.112500
 20
1158.075000
 30
0.0
 10
1958.505000
 20
1153.620000
 30
0.0
  0
SPLINE
  5
15b
100
AcDbEntity
  8
0
 62
7
100
AcDbSpline
 70
8
 71
3
 72
8
 73
4
 74
0
 40
0
 40
0
 40
0
 40
0
 40
1
 40
1
 40
1
 40
1
 10
1958.505000
 20
1153.620000
 30
0.0
 10
1943.782500
 20
1149.420000
 30
0.0
 10
1941.817500
 20
1150.350000
 30
0.0
 10
1934.865000
 20
1163.542500
 30
0.0
  0
SPLINE
  5
15c
100
AcDbEntity
  8
0
 62
7
100
AcDbSpline
 70
8
 71
3
 72
8
 73
4
 74
0
 40
0
 40
0
 40
0
 40
0
 40
1
 40
1
 40
1
 40
1
 10
1934.865000
 20
1163.542500
 30
0.0
 10
1919.392500
 20
1192.905000
 30
0.0
 10
1920.750000
 20
1223.745000
 30
0.0
 10
1926.705000
 20
1254.990000
 30
0.0
  0
SPLINE
  5
15d
100
AcDbEntity
  8
0
 62
7
100
AcDbSpline
 70
8
 71
3
 72
8
 73
4
 74
0
 40
0
 40
0
 40
0
 40
0
 40
1
 40
1
 40
1
 40
1
 10
1926.705000
 20
1254.990000
 30
0.0
 10
1927.170000
 20
1257.442500
 30
0.0
 10
1927.867500
 20
1259.850000
 30
0.0
 10
1928.527500
 20
1262.257500
 30
0.0
  0
SPLINE
  5
15e
100
AcDbEntity
  8
0
 62
7
100
AcDbSpline
 70
8
 71
3
 72
8
 73
4
 74
0
 40
0
 40
0
 40
0
 40
0
 40
1
 40
1
 40
1
 40
1
 10
1928.527500
 20
1262.257500
 30
0.0
 10
1939.237500
 20
1300.957500
 30
0.0
 10
1959.450000
 20
1337.122500
 30
0.0
 10
1958.737500
 20
1379.257500
 30
0.0
  0
SPLINE
  5
15f
100
AcDbEntity
  8
0
 62
7
100
AcDbSpline
 70
8
 71
3
 72
8
 73
4
 74
0
 40
0
 40
0
 40
0
 40
0
 40
1
 40
1
 40
1
 40
1
 10
1958.737500
 20
1379.257500
 30
0.0
 10
1958.732551
 20
1379.286674
 30
0.0
 10
1958.749609
 20
1379.315099
 30
0.0
 10
1958.777681
 20
1379.324457
 30
0.0
  0
SPLINE
  5
160
100
AcDbEntity
  8
0
 62
7
100
AcDbSpline
 70
8
 71
3
 72
8
 73
4
 74
0
 40
0
 40
0
 40
0
 40
0
 40
1
 40
1
 40
1
 40
1
 10
1958.777681
 20
1379.324457
 30
0.0
 10
1958.805753
 20
1379.333814
 30
0.0
 10
1958.836455
 20
1379.321308
 30
0.0
 10
1958.850000
 20
1379.295000
 30
0.0
  0
SPLINE
  5
161
100
AcDbEntity
  8
0
 62
7
100
AcDbSpline
 70
8
 71
3
 72
8
 73
4
 74
0
 40
0
 40
0
 40
0
 40
0
 40
1
 40
1
 40
1
 40
1
 10
1958.850000
 20
1379.295000
 30
0.0
 10
1976.160000
 20
1356.420000
 30
0.0
 10
1982.225000
 20
1331.440000
 30
0.0
 10
1977.045000
 20
1304.355000
 30
0.0
  0
SPLINE
  5
162
100
AcDbEntity
  8
0
 62
7
100
AcDbSpline
 70
8
 71
3
 72
8
 73
4
 74
0
 40
0
 40
0
 40
0
 40
0
 40
1
 40
1
 40
1
 40
1
 10
1977.045000
 20
1304.355000
 30
0.0
 10
1974.262500
 20
1289.685000
 30
0.0
 10
1969.545000
 20
1275.375000
 30
0.0
 10
1965.345000
 20
1260.997500
 30
0.0
  0
SPLINE
  5
163
100
AcDbEntity
  8
0
 62
7
100
AcDbSpline
 70
8
 71
3
 72
8
 73
4
 74
0
 40
0
 40
0
 40
0
 40
0
 40
1
 40
1
 40
1
 40
1
 10
1965.345000
 20
1260.997500
 30
0.0
 10
1958.505000
 20
1237.485000
 30
0.0
 10
1954.365000
 20
1213.710000
 30
0.0
 10
1956.742500
 20
1187.085000
 30
0.0
  0
SPLINE
  5
164
100
AcDbEntity
  8
0
 62
7
100
AcDbSpline
 70
8
 71
3
 72
8
 73
4
 74
0
 40
0
 40
0
 40
0
 40
0
 40
1
 40
1
 40
1
 40
1
 10
1956.742500
 20
1187.085000
 30
0.0
 10
1956.742262
 20
1187.054584
 30
0.0
 10
1956.764821
 20
1187.028801
 30
0.0
 10
1956.795000
 20
1187.025000
 30
0.0
  0
SPLINE
  5
165
100
AcDbEntity
  8
0
 62
7
100
AcDbSpline
 70
8
 71
3
 72
8
 73
4
 74
0
 40
0
 40
0
 40
0
 40
0
 40
1
 40
1
 40
1
 40
1
 10
1956.795000
 20
1187.025000
 30
0.0
 10
1981.447500
 20
1181.820000
 30
0.0
 10
2002.755000
 20
1191.885000
 30
0.0
 10
2026.200000
 20
1200.990000
 30
0.0
  0
LWPOLYLINE
  5
166
100
AcDbEntity
  8
0
 62
7
100
AcDbPolyline
 90
3
 70
0
 10
2341.477500
 20
887.482500
 30
0.0
 10
2341.553029
 20
887.502326
 30
0.0
 10
2341.545000
 20
887.580000
 30
0.0
  0
SPLINE
  5
167
100
AcDbEntity
  8
0
 62
7
100
AcDbSpline
 70
8
 71
3
 72
8
 73
4
 74
0
 40
0
 40
0
 40
0
 40
0
 40
1
 40
1
 40
1
 40
1
 10
1908.465000
 20
996.157500
 30
0.0
 10
1906.845000
 20
1007.160000
 30
0.0
 10
1905.037500
 20
1016.932500
 30
0.0
 10
1904.055000
 20
1026.780000
 30
0.0
  0
SPLINE
  5
168
100
AcDbEntity
  8
0
 62
7
100
AcDbSpline
 70
8
 71
3
 72
8
 73
4
 74
0
 40
0
 40
0
 40
0
 40
0
 40
1
 40
1
 40
1
 40
1
 10
1904.055000
 20
1026.780000
 30
0.0
 10
1903.110000
 20
1036.305000
 30
0.0
 10
1897.695000
 20
1040.017500
 30
0.0
 10
1888.972500
 20
1039.372500
 30
0.0
  0
SPLINE
  5
169
100
AcDbEntity
  8
0
 62
7
100
AcDbSpline
 70
8
 71
3
 72
8
 73
4
 74
0
 40
0
 40
0
 40
0
 40
0
 40
1
 40
1
 40
1
 40
1
 10
1888.972500
 20
1039.372500
 30
0.0
 10
1879.630595
 20
1038.763108
 30
0.0
 10
1870.327549
 20
1037.659060
 30
0.0
 10
1861.102500
 20
1036.065000
 30
0.0
  0
SPLINE
  5
16a
100
AcDbEntity
  8
0
 62
7
100
AcDbSpline
 70
8
 71
3
 72
8
 73
4
 74
0
 40
0
 40
0
 40
0
 40
0
 40
1
 40
1
 40
1
 40
1
 10
1861.102500
 20
1036.065000
 30
0.0
 10
1790.602500
 20
1023.255000
 30
0.0
 10
1738.410000
 20
985.815000
 30
0.0
 10
1706.940000
 20
920.775000
 30
0.0
  0
SPLINE
  5
16b
100
AcDbEntity
  8
0
 62
7
100
AcDbSpline
 70
8
 71
3
 72
8
 73
4
 74
0
 40
0
 40
0
 40
0
 40
0
 40
1
 40
1
 40
1
 40
1
 10
1706.940000
 20
920.775000
 30
0.0
 10
1695.840000
 20
897.847500
 30
0.0
 10
1697.842500
 20
888.487500
 30
0.0
 10
1721.332500
 20
877.162500
 30
0.0
  0
SPLINE
  5
16c
100
AcDbEntity
  8
0
 62
7
100
AcDbSpline
 70
8
 71
3
 72
8
 73
4
 74
0
 40
0
 40
0
 40
0
 40
0
 40
1
 40
1
 40
1
 40
1
 10
1721.332500
 20
877.162500
 30
0.0
 10
1740.165000
 20
868.087500
 30
0.0
 10
1760.880000
 20
862.912500
 30
0.0
 10
1783.657500
 20
855.007500
 30
0.0
  0
LWPOLYLINE
  5
16d
100
AcDbEntity
  8
0
 62
7
100
AcDbPolyline
 90
6
 70
0
 10
2026.200000
 20
1200.990000
 30
0.0
 10
2026.260000
 20
1200.990000
 30
0.0
 10
2437.260000
 20
829.282500
 30
0.0
 10
2436.892500
 20
828.645000
 30
0.0
 10
1908.510000
 20
996.105000
 30
0.0
 10
1908.465000
 20
996.157500
 30
0.0
  0
SPLINE
  5
16e
100
AcDbEntity
  8
0
 62
7
100
AcDbSpline
 70
8
 71
3
 72
8
 73
4
 74
0
 40
0
 40
0
 40
0
 40
0
 40
1
 40
1
 40
1
 40
1
 10
1783.695000
 20
854.970000
 30
0.0
 10
1849.087500
 20
652.417500
 30
0.0
 10
1915.560000
 20
446.490000
 30
0.0
 10
1982.025000
 20
240.600000
 30
0.0
  0
LWPOLYLINE
  5
16f
100
AcDbEntity
  8
0
 62
7
100
AcDbPolyline
 90
2
 70
0
 10
1783.657500
 20
855.007500
 30
0.0
 10
1783.695000
 20
854.970000
 30
0.0
  0
SPLINE
  5
170
100
AcDbEntity
  8
0
 62
7
100
AcDbSpline
 70
8
 71
3
 72
8
 73
4
 74
0
 40
0
 40
0
 40
0
 40
0
 40
1
 40
1
 40
1
 40
1
 10
1557.922500
 20
722.910000
 30
0.0
 10
1563.052500
 20
746.107500
 30
0.0
 10
1568.820000
 20
767.017500
 30
0.0
 10
1572.067500
 20
788.310000
 30
0.0
  0
SPLINE
  5
171
100
AcDbEntity
  8
0
 62
7
100
AcDbSpline
 70
8
 71
3
 72
8
 73
4
 74
0
 40
0
 40
0
 40
0
 40
0
 40
1
 40
1
 40
1
 40
1
 10
1572.067500
 20
788.310000
 30
0.0
 10
1575.540000
 20
811.042500
 30
0.0
 10
1570.725000
 20
817.560000
 30
0.0
 10
1548.667500
 20
823.515000
 30
0.0
  0
SPLINE
  5
172
100
AcDbEntity
  8
0
 62
7
100
AcDbSpline
 70
8
 71
3
 72
8
 73
4
 74
0
 40
0
 40
0
 40
0
 40
0
 40
1
 40
1
 40
1
 40
1
 10
1548.667500
 20
823.515000
 30
0.0
 10
1469.662500
 20
844.740000
 30
0.0
 10
1395.090000
 20
839.880000
 30
0.0
 10
1329.487500
 20
784.792500
 30
0.0
  0
SPLINE
  5
173
100
AcDbEntity
  8
0
 62
7
100
AcDbSpline
 70
8
 71
3
 72
8
 73
4
 74
0
 40
0
 40
0
 40
0
 40
0
 40
1
 40
1
 40
1
 40
1
 10
1329.487500
 20
784.792500
 30
0.0
 10
1325.655000
 20
781.575000
 30
0.0
 10
1321.665000
 20
778.522500
 30
0.0
 10
1318.117500
 20
775.042500
 30
0.0
  0
SPLINE
  5
174
100
AcDbEntity
  8
0
 62
7
100
AcDbSpline
 70
8
 71
3
 72
8
 73
4
 74
0
 40
0
 40
0
 40
0
 40
0
 40
1
 40
1
 40
1
 40
1
 10
1318.117500
 20
775.042500
 30
0.0
 10
1296.472500
 20
753.615000
 30
0.0
 10
1290.877500
 20
750.787500
 30
0.0
 10
1314.465000
 20
718.440000
 30
0.0
  0
SPLINE
  5
175
100
AcDbEntity
  8
0
 62
7
100
AcDbSpline
 70
8
 71
3
 72
8
 73
4
 74
0
 40
0
 40
0
 40
0
 40
0
 40
1
 40
1
 40
1
 40
1
 10
1314.465000
 20
718.440000
 30
0.0
 10
1320.285000
 20
710.460000
 30
0.0
 10
1328.070000
 20
703.815000
 30
0.0
 10
1335.405000
 20
697.050000
 30
0.0
  0
SPLINE
  5
176
100
AcDbEntity
  8
0
 62
7
100
AcDbSpline
 70
8
 71
3
 72
8
 73
4
 74
0
 40
0
 40
0
 40
0
 40
0
 40
1
 40
1
 40
1
 40
1
 10
1335.405000
 20
697.050000
 30
0.0
 10
1342.740000
 20
690.285000
 30
0.0
 10
1350.585000
 20
684.217500
 30
0.0
 10
1359.172500
 20
677.040000
 30
0.0
  0
LWPOLYLINE
  5
177
100
AcDbEntity
  8
0
 62
7
100
AcDbPolyline
 90
5
 70
0
 10
1982.025000
 20
240.600000
 30
0.0
 10
1982.001140
 20
240.527525
 30
0.0
 10
1981.930025
 20
240.548860
 30
0.0
 10
1557.922500
 20
722.857500
 30
0.0
 10
1557.922500
 20
722.910000
 30
0.0
  0
SPLINE
  5
178
100
AcDbEntity
  8
0
 62
7
100
AcDbSpline
 70
8
 71
3
 72
8
 73
4
 74
0
 40
0
 40
0
 40
0
 40
0
 40
1
 40
1
 40
1
 40
1
 10
1359.172500
 20
676.980000
 30
0.0
 10
1312.462500
 20
451.160000
 30
0.0
 10
1265.792500
 20
225.545000
 30
0.0
 10
1219.162500
 20
0.135000
 30
0.0
  0
LWPOLYLINE
  5
179
100
AcDbEntity
  8
0
 62
7
100
AcDbPolyline
 90
2
 70
0
 10
1359.172500
 20
677.040000
 30
0.0
 10
1359.172500
 20
676.980000
 30
0.0
  0
SPLINE
  5
17a
100
AcDbEntity
  8
0
 62
7
100
AcDbSpline
 70
8
 71
3
 72
8
 73
4
 74
0
 40
0
 40
0
 40
0
 40
0
 40
1
 40
1
 40
1
 40
1
 10
1219.042500
 20
0.135000
 30
0.0
 10
1172.627500
 20
224.460000
 30
0.0
 10
1125.935000
 20
450.117500
 30
0.0
 10
1078.965000
 20
677.107500
 30
0.0
  0
LWPOLYLINE
  5
17b
100
AcDbEntity
  8
0
 62
7
100
AcDbPolyline
 90
3
 70
0
 10
1219.162500
 20
0.135000
 30
0.0
 10
1219.102500
 20
0.075000
 30
0.0
 10
1219.042500
 20
0.135000
 30
0.0
  0
SPLINE
  5
17c
100
AcDbEntity
  8
0
 62
7
100
AcDbSpline
 70
8
 71
3
 72
8
 73
4
 74
0
 40
0
 40
0
 40
0
 40
0
 40
1
 40
1
 40
1
 40
1
 10
1078.965000
 20
677.167500
 30
0.0
 10
1085.212500
 20
682.290000
 30
0.0
 10
1092.562500
 20
687.052500
 30
0.0
 10
1098.300000
 20
693.307500
 30
0.0
  0
SPLINE
  5
17d
100
AcDbEntity
  8
0
 62
7
100
AcDbSpline
 70
8
 71
3
 72
8
 73
4
 74
0
 40
0
 40
0
 40
0
 40
0
 40
1
 40
1
 40
1
 40
1
 10
1098.300000
 20
693.307500
 30
0.0
 10
1110.870000
 20
706.995000
 30
0.0
 10
1123.005000
 20
721.132500
 30
0.0
 10
1134.547500
 20
735.697500
 30
0.0
  0
SPLINE
  5
17e
100
AcDbEntity
  8
0
 62
7
100
AcDbSpline
 70
8
 71
3
 72
8
 73
4
 74
0
 40
0
 40
0
 40
0
 40
0
 40
1
 40
1
 40
1
 40
1
 10
1134.547500
 20
735.697500
 30
0.0
 10
1141.807500
 20
744.855000
 30
0.0
 10
1140.007500
 20
754.327500
 30
0.0
 10
1131.997500
 20
762.697500
 30
0.0
  0
SPLINE
  5
17f
100
AcDbEntity
  8
0
 62
7
100
AcDbSpline
 70
8
 71
3
 72
8
 73
4
 74
0
 40
0
 40
0
 40
0
 40
0
 40
1
 40
1
 40
1
 40
1
 10
1131.997500
 20
762.697500
 30
0.0
 10
1096.920000
 20
799.327500
 30
0.0
 10
1055.767500
 20
825.637500
 30
0.0
 10
1004.887500
 20
832.875000
 30
0.0
  0
SPLINE
  5
180
100
AcDbEntity
  8
0
 62
7
100
AcDbSpline
 70
8
 71
3
 72
8
 73
4
 74
0
 40
0
 40
0
 40
0
 40
0
 40
1
 40
1
 40
1
 40
1
 10
1004.887500
 20
832.875000
 30
0.0
 10
966.772500
 20
838.297500
 30
0.0
 10
928.762500
 20
834.195000
 30
0.0
 10
891.547500
 20
824.385000
 30
0.0
  0
SPLINE
  5
181
100
AcDbEntity
  8
0
 62
7
100
AcDbSpline
 70
8
 71
3
 72
8
 73
4
 74
0
 40
0
 40
0
 40
0
 40
0
 40
1
 40
1
 40
1
 40
1
 10
891.547500
 20
824.385000
 30
0.0
 10
867.615000
 20
818.085000
 30
0.0
 10
862.507500
 20
811.440000
 30
0.0
 10
866.137500
 20
786.825000
 30
0.0
  0
SPLINE
  5
182
100
AcDbEntity
  8
0
 62
7
100
AcDbSpline
 70
8
 71
3
 72
8
 73
4
 74
0
 40
0
 40
0
 40
0
 40
0
 40
1
 40
1
 40
1
 40
1
 10
866.137500
 20
786.825000
 30
0.0
 10
869.137500
 20
766.657500
 30
0.0
 10
874.890000
 20
746.910000
 30
0.0
 10
880.327500
 20
723.075000
 30
0.0
  0
LWPOLYLINE
  5
183
100
AcDbEntity
  8
0
 62
7
100
AcDbPolyline
 90
2
 70
0
 10
1078.965000
 20
677.107500
 30
0.0
 10
1078.965000
 20
677.167500
 30
0.0
  0
SPLINE
  5
184
100
AcDbEntity
  8
0
 62
7
100
AcDbSpline
 70
8
 71
3
 72
8
 73
4
 74
0
 40
0
 40
0
 40
0
 40
0
 40
1
 40
1
 40
1
 40
1
 10
880.327500
 20
723.022500
 30
0.0
 10
740.970000
 20
564.487500
 30
0.0
 10
598.650000
 20
402.570000
 30
0.0
 10
456.375000
 20
240.705000
 30
0.0
  0
LWPOLYLINE
  5
185
100
AcDbEntity
  8
0
 62
7
100
AcDbPolyline
 90
2
 70
0
 10
880.327500
 20
723.075000
 30
0.0
 10
880.327500
 20
723.022500
 30
0.0
  0
SPLINE
  5
186
100
AcDbEntity
  8
0
 62
7
100
AcDbSpline
 70
8
 71
3
 72
8
 73
4
 74
0
 40
0
 40
0
 40
0
 40
0
 40
1
 40
1
 40
1
 40
1
 10
456.270405
 20
240.764768
 30
0.0
 10
522.625135
 20
446.414923
 30
0.0
 10
588.875000
 20
651.772500
 30
0.0
 10
655.020000
 20
856.837500
 30
0.0
  0
LWPOLYLINE
  5
187
100
AcDbEntity
  8
0
 62
7
100
AcDbPolyline
 90
4
 70
0
 10
456.375000
 20
240.705000
 30
0.0
 10
456.322767
 20
240.675001
 30
0.0
 10
456.270673
 20
240.704769
 30
0.0
 10
456.270405
 20
240.764768
 30
0.0
  0
SPLINE
  5
188
100
AcDbEntity
  8
0
 62
7
100
AcDbSpline
 70
8
 71
3
 72
8
 73
4
 74
0
 40
0
 40
0
 40
0
 40
0
 40
1
 40
1
 40
1
 40
1
 10
655.065000
 20
856.837500
 30
0.0
 10
671.715000
 20
861.420000
 30
0.0
 10
687.315000
 20
865.597500
 30
0.0
 10
702.802500
 20
870.045000
 30
0.0
  0
SPLINE
  5
189
100
AcDbEntity
  8
0
 62
7
100
AcDbSpline
 70
8
 71
3
 72
8
 73
4
 74
0
 40
0
 40
0
 40
0
 40
0
 40
1
 40
1
 40
1
 40
1
 10
702.802500
 20
870.045000
 30
0.0
 10
706.365000
 20
871.072500
 30
0.0
 10
709.755000
 20
872.857500
 30
0.0
 10
713.077500
 20
874.545000
 30
0.0
  0
SPLINE
  5
18a
100
AcDbEntity
  8
0
 62
7
100
AcDbSpline
 70
8
 71
3
 72
8
 73
4
 74
0
 40
0
 40
0
 40
0
 40
0
 40
1
 40
1
 40
1
 40
1
 10
713.077500
 20
874.545000
 30
0.0
 10
740.220000
 20
888.547500
 30
0.0
 10
743.197500
 20
897.720000
 30
0.0
 10
729.232500
 20
925.050000
 30
0.0
  0
SPLINE
  5
18b
100
AcDbEntity
  8
0
 62
7
100
AcDbSpline
 70
8
 71
3
 72
8
 73
4
 74
0
 40
0
 40
0
 40
0
 40
0
 40
1
 40
1
 40
1
 40
1
 10
729.232500
 20
925.050000
 30
0.0
 10
693.007500
 20
995.925000
 30
0.0
 10
632.902500
 20
1030.717500
 30
0.0
 10
555.705000
 20
1039.170000
 30
0.0
  0
SPLINE
  5
18c
100
AcDbEntity
  8
0
 62
7
100
AcDbSpline
 70
8
 71
3
 72
8
 73
4
 74
0
 40
0
 40
0
 40
0
 40
0
 40
1
 40
1
 40
1
 40
1
 10
555.705000
 20
1039.170000
 30
0.0
 10
538.890000
 20
1041.007500
 30
0.0
 10
536.355000
 20
1038.570000
 30
0.0
 10
533.430000
 20
1022.092500
 30
0.0
  0
SPLINE
  5
18d
100
AcDbEntity
  8
0
 62
7
100
AcDbSpline
 70
8
 71
3
 72
8
 73
4
 74
0
 40
0
 40
0
 40
0
 40
0
 40
1
 40
1
 40
1
 40
1
 10
533.430000
 20
1022.092500
 30
0.0
 10
532.020000
 20
1014.165000
 30
0.0
 10
531.352500
 20
1006.102500
 30
0.0
 10
530.130000
 20
996.390000
 30
0.0
  0
SPLINE
  5
18e
100
AcDbEntity
  8
0
 62
7
100
AcDbSpline
 70
8
 71
3
 72
8
 73
4
 74
0
 40
0
 40
0
 40
0
 40
0
 40
1
 40
1
 40
1
 40
1
 10
530.130000
 20
996.390000
 30
0.0
 10
530.130270
 20
996.363698
 30
0.0
 10
530.111034
 20
996.341256
 30
0.0
 10
530.085000
 20
996.337500
 30
0.0
  0
SPLINE
  5
18f
100
AcDbEntity
  8
0
 62
7
100
AcDbSpline
 70
8
 71
3
 72
8
 73
4
 74
0
 40
0
 40
0
 40
0
 40
0
 40
1
 40
1
 40
1
 40
1
 10
530.085000
 20
996.337500
 30
0.0
 10
353.845000
 20
940.337500
 30
0.0
 10
177.170000
 20
884.367500
 30
0.0
 10
0.060000
 20
828.427500
 30
0.0
  0
SPLINE
  5
190
100
AcDbEntity
  8
0
 62
7
100
AcDbSpline
 70
8
 71
3
 72
8
 73
4
 74
0
 40
0
 40
0
 40
0
 40
0
 40
1
 40
1
 40
1
 40
1
 10
0.060000
 20
828.427500
 30
0.0
 10
0.032572
 20
828.420355
 30
0.0
 10
0.003884
 20
828.433378
 30
0.0
 10
-0.008791
 20
828.458729
 30
0.0
  0
SPLINE
  5
191
100
AcDbEntity
  8
0
 62
7
100
AcDbSpline
 70
8
 71
3
 72
8
 73
4
 74
0
 40
0
 40
0
 40
0
 40
0
 40
1
 40
1
 40
1
 40
1
 10
-0.008791
 20
828.458729
 30
0.0
 10
-0.021467
 20
828.484081
 30
0.0
 10
-0.014673
 20
828.514844
 30
0.0
 10
0.007500
 20
828.532500
 30
0.0
  0
LWPOLYLINE
  5
192
100
AcDbEntity
  8
0
 62
7
100
AcDbPolyline
 90
2
 70
0
 10
655.020000
 20
856.837500
 30
0.0
 10
655.065000
 20
856.837500
 30
0.0
  0
SPLINE
  5
193
100
AcDbEntity
  8
0
 62
7
100
AcDbSpline
 70
8
 71
3
 72
8
 73
4
 74
0
 40
0
 40
0
 40
0
 40
0
 40
1
 40
1
 40
1
 40
1
 10
410.572500
 20
1199.730000
 30
0.0
 10
410.591791
 20
1199.737530
 30
0.0
 10
410.613209
 20
1199.737530
 30
0.0
 10
410.632500
 20
1199.730000
 30
0.0
  0
SPLINE
  5
194
100
AcDbEntity
  8
0
 62
7
100
AcDbSpline
 70
8
 71
3
 72
8
 73
4
 74
0
 40
0
 40
0
 40
0
 40
0
 40
1
 40
1
 40
1
 40
1
 10
410.632500
 20
1199.730000
 30
0.0
 10
428.287500
 20
1194.825000
 30
0.0
 10
444.202500
 20
1189.605000
 30
0.0
 10
460.477500
 20
1186.080000
 30
0.0
  0
SPLINE
  5
195
100
AcDbEntity
  8
0
 62
7
100
AcDbSpline
 70
8
 71
3
 72
8
 73
4
 74
0
 40
0
 40
0
 40
0
 40
0
 40
1
 40
1
 40
1
 40
1
 10
460.477500
 20
1186.080000
 30
0.0
 10
479.647500
 20
1181.932500
 30
0.0
 10
483.802500
 20
1185.180000
 30
0.0
 10
482.017500
 20
1204.125000
 30
0.0
  0
SPLINE
  5
196
100
AcDbEntity
  8
0
 62
7
100
AcDbSpline
 70
8
 71
3
 72
8
 73
4
 74
0
 40
0
 40
0
 40
0
 40
0
 40
1
 40
1
 40
1
 40
1
 10
482.017500
 20
1204.125000
 30
0.0
 10
480.270000
 20
1222.672500
 30
0.0
 10
476.722500
 20
1241.107500
 30
0.0
 10
472.935000
 20
1259.385000
 30
0.0
  0
SPLINE
  5
197
100
AcDbEntity
  8
0
 62
7
100
AcDbSpline
 70
8
 71
3
 72
8
 73
4
 74
0
 40
0
 40
0
 40
0
 40
0
 40
1
 40
1
 40
1
 40
1
 10
472.935000
 20
1259.385000
 30
0.0
 10
470.160000
 20
1272.795000
 30
0.0
 10
465.187500
 20
1285.732500
 30
0.0
 10
462.127500
 20
1299.135000
 30
0.0
  0
SPLINE
  5
198
100
AcDbEntity
  8
0
 62
7
100
AcDbSpline
 70
8
 71
3
 72
8
 73
4
 74
0
 40
0
 40
0
 40
0
 40
0
 40
1
 40
1
 40
1
 40
1
 10
462.127500
 20
1299.135000
 30
0.0
 10
455.535000
 20
1327.897500
 30
0.0
 10
461.437500
 20
1354.545000
 30
0.0
 10
477.390000
 20
1381.132500
 30
0.0
  0
SPLINE
  5
199
100
AcDbEntity
  8
0
 62
7
100
AcDbSpline
 70
8
 71
3
 72
8
 73
4
 74
0
 40
0
 40
0
 40
0
 40
0
 40
1
 40
1
 40
1
 40
1
 10
477.390000
 20
1381.132500
 30
0.0
 10
477.398729
 20
1381.156016
 30
0.0
 10
477.421166
 20
1381.171621
 30
0.0
 10
477.446250
 20
1381.171621
 30
0.0
  0
SPLINE
  5
19a
100
AcDbEntity
  8
0
 62
7
100
AcDbSpline
 70
8
 71
3
 72
8
 73
4
 74
0
 40
0
 40
0
 40
0
 40
0
 40
1
 40
1
 40
1
 40
1
 10
477.446250
 20
1381.171621
 30
0.0
 10
477.471334
 20
1381.171621
 30
0.0
 10
477.493771
 20
1381.156016
 30
0.0
 10
477.502500
 20
1381.132500
 30
0.0
  0
SPLINE
  5
19b
100
AcDbEntity
  8
0
 62
7
100
AcDbSpline
 70
8
 71
3
 72
8
 73
4
 74
0
 40
0
 40
0
 40
0
 40
0
 40
1
 40
1
 40
1
 40
1
 10
477.502500
 20
1381.132500
 30
0.0
 10
477.952500
 20
1377.172500
 30
0.0
 10
477.892500
 20
1374.067500
 30
0.0
 10
477.952500
 20
1372.020000
 30
0.0
  0
SPLINE
  5
19c
100
AcDbEntity
  8
0
 62
7
100
AcDbSpline
 70
8
 71
3
 72
8
 73
4
 74
0
 40
0
 40
0
 40
0
 40
0
 40
1
 40
1
 40
1
 40
1
 10
477.952500
 20
1372.020000
 30
0.0
 10
478.702500
 20
1340.520000
 30
0.0
 10
491.797500
 20
1313.662500
 30
0.0
 10
502.455000
 20
1284.900000
 30
0.0
  0
SPLINE
  5
19d
100
AcDbEntity
  8
0
 62
7
100
AcDbSpline
 70
8
 71
3
 72
8
 73
4
 74
0
 40
0
 40
0
 40
0
 40
0
 40
1
 40
1
 40
1
 40
1
 10
502.455000
 20
1284.900000
 30
0.0
 10
517.125000
 20
1245.322500
 30
0.0
 10
519.630000
 20
1204.447500
 30
0.0
 10
513.420000
 20
1163.092500
 30
0.0
  0
SPLINE
  5
19e
100
AcDbEntity
  8
0
 62
7
100
AcDbSpline
 70
8
 71
3
 72
8
 73
4
 74
0
 40
0
 40
0
 40
0
 40
0
 40
1
 40
1
 40
1
 40
1
 10
513.420000
 20
1163.092500
 30
0.0
 10
509.940000
 20
1139.842500
 30
0.0
 10
498.210000
 20
1122.637500
 30
0.0
 10
476.715000
 20
1109.947500
 30
0.0
  0
SPLINE
  5
19f
100
AcDbEntity
  8
0
 62
7
100
AcDbSpline
 70
8
 71
3
 72
8
 73
4
 74
0
 40
0
 40
0
 40
0
 40
0
 40
1
 40
1
 40
1
 40
1
 10
476.715000
 20
1109.947500
 30
0.0
 10
353.587500
 20
1037.137500
 30
0.0
 10
231.652500
 20
962.407500
 30
0.0
 10
108.967500
 20
888.907500
 30
0.0
  0
SPLINE
  5
1a0
100
AcDbEntity
  8
0
 62
7
100
AcDbSpline
 70
8
 71
3
 72
8
 73
4
 74
0
 40
0
 40
0
 40
0
 40
0
 40
1
 40
1
 40
1
 40
1
 10
108.967500
 20
888.907500
 30
0.0
 10
108.007500
 20
888.330000
 30
0.0
 10
108.967500
 20
888.907500
 30
0.0
 10
103.717500
 20
885.157500
 30
0.0
  0
SPLINE
  5
1a1
100
AcDbEntity
  8
0
 62
7
100
AcDbSpline
 70
8
 71
3
 72
8
 73
4
 74
0
 40
0
 40
0
 40
0
 40
0
 40
1
 40
1
 40
1
 40
1
 10
103.717500
 20
885.157500
 30
0.0
 10
103.665000
 20
885.120000
 30
0.0
 10
101.407500
 20
883.657500
 30
0.0
 10
101.467500
 20
883.657500
 30
0.0
  0
SPLINE
  5
1a2
100
AcDbEntity
  8
0
 62
7
100
AcDbSpline
 70
8
 71
3
 72
8
 73
4
 74
0
 40
0
 40
0
 40
0
 40
0
 40
1
 40
1
 40
1
 40
1
 10
101.467500
 20
883.657500
 30
0.0
 10
109.327500
 20
885.157500
 30
0.0
 10
112.717500
 20
886.657500
 30
0.0
 10
121.627500
 20
888.585000
 30
0.0
  0
SPLINE
  5
1a3
100
AcDbEntity
  8
0
 62
7
100
AcDbSpline
 70
8
 71
3
 72
8
 73
4
 74
0
 40
0
 40
0
 40
0
 40
0
 40
1
 40
1
 40
1
 40
1
 10
121.627500
 20
888.585000
 30
0.0
 10
242.857500
 20
927.555000
 30
0.0
 10
364.057500
 20
966.605000
 30
0.0
 10
485.227500
 20
1005.735000
 30
0.0
  0
SPLINE
  5
1a4
100
AcDbEntity
  8
0
 62
7
100
AcDbSpline
 70
8
 71
3
 72
8
 73
4
 74
0
 40
0
 40
0
 40
0
 40
0
 40
1
 40
1
 40
1
 40
1
 10
485.227500
 20
1005.735000
 30
0.0
 10
504.682500
 20
1012.020000
 30
0.0
 10
505.477500
 20
1013.512500
 30
0.0
 10
504.075000
 20
1033.845000
 30
0.0
  0
SPLINE
  5
1a5
100
AcDbEntity
  8
0
 62
7
100
AcDbSpline
 70
8
 71
3
 72
8
 73
4
 74
0
 40
0
 40
0
 40
0
 40
0
 40
1
 40
1
 40
1
 40
1
 10
504.075000
 20
1033.845000
 30
0.0
 10
503.542500
 20
1041.345000
 30
0.0
 10
501.427500
 20
1048.995000
 30
0.0
 10
502.492500
 20
1056.210000
 30
0.0
  0
SPLINE
  5
1a6
100
AcDbEntity
  8
0
 62
7
100
AcDbSpline
 70
8
 71
3
 72
8
 73
4
 74
0
 40
0
 40
0
 40
0
 40
0
 40
1
 40
1
 40
1
 40
1
 10
502.492500
 20
1056.210000
 30
0.0
 10
503.895000
 20
1065.697500
 30
0.0
 10
505.012500
 20
1077.330000
 30
0.0
 10
510.922500
 20
1083.712500
 30
0.0
  0
SPLINE
  5
1a7
100
AcDbEntity
  8
0
 62
7
100
AcDbSpline
 70
8
 71
3
 72
8
 73
4
 74
0
 40
0
 40
0
 40
0
 40
0
 40
1
 40
1
 40
1
 40
1
 10
510.922500
 20
1083.712500
 30
0.0
 10
555.382500
 20
1131.712500
 30
0.0
 10
561.105000
 20
1188.052500
 30
0.0
 10
547.942500
 20
1248.360000
 30
0.0
  0
SPLINE
  5
1a8
100
AcDbEntity
  8
0
 62
7
100
AcDbSpline
 70
8
 71
3
 72
8
 73
4
 74
0
 40
0
 40
0
 40
0
 40
0
 40
1
 40
1
 40
1
 40
1
 10
547.942500
 20
1248.360000
 30
0.0
 10
541.667865
 20
1277.637896
 30
0.0
 10
533.831671
 20
1306.559210
 30
0.0
 10
524.467500
 20
1335.000000
 30
0.0
  0
SPLINE
  5
1a9
100
AcDbEntity
  8
0
 62
7
100
AcDbSpline
 70
8
 71
3
 72
8
 73
4
 74
0
 40
0
 40
0
 40
0
 40
0
 40
1
 40
1
 40
1
 40
1
 10
524.467500
 20
1335.000000
 30
0.0
 10
514.897500
 20
1363.635000
 30
0.0
 10
516.765000
 20
1391.392500
 30
0.0
 10
523.717500
 20
1419.750000
 30
0.0
  0
SPLINE
  5
1aa
100
AcDbEntity
  8
0
 62
7
100
AcDbSpline
 70
8
 71
3
 72
8
 73
4
 74
0
 40
0
 40
0
 40
0
 40
0
 40
1
 40
1
 40
1
 40
1
 10
523.717500
 20
1419.750000
 30
0.0
 10
527.227500
 20
1434.000000
 30
0.0
 10
535.897500
 20
1442.662500
 30
0.0
 10
549.712500
 20
1446.360000
 30
0.0
  0
SPLINE
  5
1ab
100
AcDbEntity
  8
0
 62
7
100
AcDbSpline
 70
8
 71
3
 72
8
 73
4
 74
0
 40
0
 40
0
 40
0
 40
0
 40
1
 40
1
 40
1
 40
1
 10
549.712500
 20
1446.360000
 30
0.0
 10
604.042500
 20
1460.910000
 30
0.0
 10
651.045000
 20
1449.262500
 30
0.0
 10
689.280000
 20
1406.872500
 30
0.0
  0
SPLINE
  5
1ac
100
AcDbEntity
  8
0
 62
7
100
AcDbSpline
 70
8
 71
3
 72
8
 73
4
 74
0
 40
0
 40
0
 40
0
 40
0
 40
1
 40
1
 40
1
 40
1
 10
689.280000
 20
1406.872500
 30
0.0
 10
691.070376
 20
1404.914361
 30
0.0
 10
692.623601
 20
1402.751930
 30
0.0
 10
693.907500
 20
1400.430000
 30
0.0
  0
SPLINE
  5
1ad
100
AcDbEntity
  8
0
 62
7
100
AcDbSpline
 70
8
 71
3
 72
8
 73
4
 74
0
 40
0
 40
0
 40
0
 40
0
 40
1
 40
1
 40
1
 40
1
 10
693.907500
 20
1400.430000
 30
0.0
 10
693.926261
 20
1400.405700
 30
0.0
 10
693.926261
 20
1400.371800
 30
0.0
 10
693.907500
 20
1400.347500
 30
0.0
  0
SPLINE
  5
1ae
100
AcDbEntity
  8
0
 62
7
100
AcDbSpline
 70
8
 71
3
 72
8
 73
4
 74
0
 40
0
 40
0
 40
0
 40
0
 40
1
 40
1
 40
1
 40
1
 10
693.907500
 20
1400.347500
 30
0.0
 10
689.407500
 20
1396.635000
 30
0.0
 10
689.632500
 20
1396.597500
 30
0.0
 10
687.157500
 20
1395.135000
 30
0.0
  0
SPLINE
  5
1af
100
AcDbEntity
  8
0
 62
7
100
AcDbSpline
 70
8
 71
3
 72
8
 73
4
 74
0
 40
0
 40
0
 40
0
 40
0
 40
1
 40
1
 40
1
 40
1
 10
687.157500
 20
1395.135000
 30
0.0
 10
653.407500
 20
1374.780000
 30
0.0
 10
639.802500
 20
1339.927500
 30
0.0
 10
636.810000
 20
1303.402500
 30
0.0
  0
SPLINE
  5
1b0
100
AcDbEntity
  8
0
 62
7
100
AcDbSpline
 70
8
 71
3
 72
8
 73
4
 74
0
 40
0
 40
0
 40
0
 40
0
 40
1
 40
1
 40
1
 40
1
 10
636.810000
 20
1303.402500
 30
0.0
 10
631.267500
 20
1235.812500
 30
0.0
 10
650.760000
 20
1175.152500
 30
0.0
 10
692.730000
 20
1121.617500
 30
0.0
  0
SPLINE
  5
1b1
100
AcDbEntity
  8
0
 62
7
100
AcDbSpline
 70
8
 71
3
 72
8
 73
4
 74
0
 40
0
 40
0
 40
0
 40
0
 40
1
 40
1
 40
1
 40
1
 10
692.730000
 20
1121.617500
 30
0.0
 10
715.470000
 20
1092.630000
 30
0.0
 10
738.255000
 20
1063.612500
 30
0.0
 10
759.555000
 20
1033.575000
 30
0.0
  0
SPLINE
  5
1b2
100
AcDbEntity
  8
0
 62
7
100
AcDbSpline
 70
8
 71
3
 72
8
 73
4
 74
0
 40
0
 40
0
 40
0
 40
0
 40
1
 40
1
 40
1
 40
1
 10
759.555000
 20
1033.575000
 30
0.0
 10
779.550000
 20
1005.367500
 30
0.0
 10
796.170000
 20
974.797500
 30
0.0
 10
798.502500
 20
939.472500
 30
0.0
  0
SPLINE
  5
1b3
100
AcDbEntity
  8
0
 62
7
100
AcDbSpline
 70
8
 71
3
 72
8
 73
4
 74
0
 40
0
 40
0
 40
0
 40
0
 40
1
 40
1
 40
1
 40
1
 10
798.502500
 20
939.472500
 30
0.0
 10
801.502500
 20
893.572500
 30
0.0
 10
797.377500
 20
849.315000
 30
0.0
 10
773.587500
 20
807.390000
 30
0.0
  0
SPLINE
  5
1b4
100
AcDbEntity
  8
0
 62
7
100
AcDbSpline
 70
8
 71
3
 72
8
 73
4
 74
0
 40
0
 40
0
 40
0
 40
0
 40
1
 40
1
 40
1
 40
1
 10
773.587500
 20
807.390000
 30
0.0
 10
690.690000
 20
661.290000
 30
0.0
 10
609.337500
 20
514.297500
 30
0.0
 10
527.497500
 20
367.620000
 30
0.0
  0
SPLINE
  5
1b5
100
AcDbEntity
  8
0
 62
7
100
AcDbSpline
 70
8
 71
3
 72
8
 73
4
 74
0
 40
0
 40
0
 40
0
 40
0
 40
1
 40
1
 40
1
 40
1
 10
527.497500
 20
367.620000
 30
0.0
 10
524.040000
 20
361.425000
 30
0.0
 10
521.062500
 20
354.967500
 30
0.0
 10
517.860000
 20
348.630000
 30
0.0
  0
LWPOLYLINE
  5
1b6
100
AcDbEntity
  8
0
 62
7
100
AcDbPolyline
 90
2
 70
0
 10
0.007500
 20
828.532500
 30
0.0
 10
410.572500
 20
1199.730000
 30
0.0
  0
LWPOLYLINE
  5
1b7
100
AcDbEntity
  8
0
 62
7
100
AcDbPolyline
 90
2
 70
0
 10
517.860000
 20
348.630000
 30
0.0
 10
510.907500
 20
336.135000
 30
0.0
  0
SPLINE
  5
1b8
100
AcDbEntity
  8
0
 62
7
100
AcDbSpline
 70
8
 71
3
 72
8
 73
4
 74
0
 40
0
 40
0
 40
0
 40
0
 40
1
 40
1
 40
1
 40
1
 10
1333.200000
 20
1759.402500
 30
0.0
 10
1347.075000
 20
1859.737500
 30
0.0
 10
1353.210000
 20
1961.992500
 30
0.0
 10
1385.490000
 20
2063.587500
 30
0.0
  0
SPLINE
  5
1b9
100
AcDbEntity
  8
0
 62
7
100
AcDbSpline
 70
8
 71
3
 72
8
 73
4
 74
0
 40
0
 40
0
 40
0
 40
0
 40
1
 40
1
 40
1
 40
1
 10
1385.490000
 20
2063.587500
 30
0.0
 10
1409.197500
 20
1980.937500
 30
0.0
 10
1422.000000
 20
1900.087500
 30
0.0
 10
1430.272500
 20
1818.045000
 30
0.0
  0
SPLINE
  5
1ba
100
AcDbEntity
  8
0
 62
7
100
AcDbSpline
 70
8
 71
3
 72
8
 73
4
 74
0
 40
0
 40
0
 40
0
 40
0
 40
1
 40
1
 40
1
 40
1
 10
1430.272500
 20
1818.045000
 30
0.0
 10
1419.982500
 20
1812.045000
 30
0.0
 10
1410.810000
 20
1806.937500
 30
0.0
 10
1401.855000
 20
1801.455000
 30
0.0
  0
SPLINE
  5
1bb
100
AcDbEntity
  8
0
 62
7
100
AcDbSpline
 70
8
 71
3
 72
8
 73
4
 74
0
 40
0
 40
0
 40
0
 40
0
 40
1
 40
1
 40
1
 40
1
 10
1401.855000
 20
1801.455000
 30
0.0
 10
1378.207500
 20
1786.965000
 30
0.0
 10
1363.432500
 20
1765.995000
 30
0.0
 10
1358.137500
 20
1738.845000
 30
0.0
  0
SPLINE
  5
1bc
100
AcDbEntity
  8
0
 62
7
100
AcDbSpline
 70
8
 71
3
 72
8
 73
4
 74
0
 40
0
 40
0
 40
0
 40
0
 40
1
 40
1
 40
1
 40
1
 10
1358.137500
 20
1738.845000
 30
0.0
 10
1351.095000
 20
1702.702500
 30
0.0
 10
1353.637500
 20
1667.070000
 30
0.0
 10
1364.887500
 20
1629.247500
 30
0.0
  0
SPLINE
  5
1bd
100
AcDbEntity
  8
0
 62
7
100
AcDbSpline
 70
8
 71
3
 72
8
 73
4
 74
0
 40
0
 40
0
 40
0
 40
0
 40
1
 40
1
 40
1
 40
1
 10
1364.887500
 20
1629.247500
 30
0.0
 10
1373.025000
 20
1631.955000
 30
0.0
 10
1379.730000
 20
1634.130000
 30
0.0
 10
1386.397500
 20
1636.425000
 30
0.0
  0
SPLINE
  5
1be
100
AcDbEntity
  8
0
 62
7
100
AcDbSpline
 70
8
 71
3
 72
8
 73
4
 74
0
 40
0
 40
0
 40
0
 40
0
 40
1
 40
1
 40
1
 40
1
 10
1386.397500
 20
1636.425000
 30
0.0
 10
1398.120000
 20
1640.467500
 30
0.0
 10
1409.542500
 20
1645.882500
 30
0.0
 10
1421.580000
 20
1648.342500
 30
0.0
  0
SPLINE
  5
1bf
100
AcDbEntity
  8
0
 62
7
100
AcDbSpline
 70
8
 71
3
 72
8
 73
4
 74
0
 40
0
 40
0
 40
0
 40
0
 40
1
 40
1
 40
1
 40
1
 10
1421.580000
 20
1648.342500
 30
0.0
 10
1437.757500
 20
1651.650000
 30
0.0
 10
1443.675000
 20
1645.672500
 30
0.0
 10
1441.620000
 20
1629.015000
 30
0.0
  0
SPLINE
  5
1c0
100
AcDbEntity
  8
0
 62
7
100
AcDbSpline
 70
8
 71
3
 72
8
 73
4
 74
0
 40
0
 40
0
 40
0
 40
0
 40
1
 40
1
 40
1
 40
1
 10
1441.620000
 20
1629.015000
 30
0.0
 10
1438.575000
 20
1604.347500
 30
0.0
 10
1425.555000
 20
1584.547500
 30
0.0
 10
1408.005000
 20
1567.837500
 30
0.0
  0
SPLINE
  5
1c1
100
AcDbEntity
  8
0
 62
7
100
AcDbSpline
 70
8
 71
3
 72
8
 73
4
 74
0
 40
0
 40
0
 40
0
 40
0
 40
1
 40
1
 40
1
 40
1
 10
1408.005000
 20
1567.837500
 30
0.0
 10
1385.370000
 20
1546.305000
 30
0.0
 10
1384.582500
 20
1546.687500
 30
0.0
 10
1360.867500
 20
1567.995000
 30
0.0
  0
SPLINE
  5
1c2
100
AcDbEntity
  8
0
 62
7
100
AcDbSpline
 70
8
 71
3
 72
8
 73
4
 74
0
 40
0
 40
0
 40
0
 40
0
 40
1
 40
1
 40
1
 40
1
 10
1360.867500
 20
1567.995000
 30
0.0
 10
1345.785000
 20
1581.555000
 30
0.0
 10
1333.605000
 20
1596.960000
 30
0.0
 10
1326.720000
 20
1616.385000
 30
0.0
  0
SPLINE
  5
1c3
100
AcDbEntity
  8
0
 62
7
100
AcDbSpline
 70
8
 71
3
 72
8
 73
4
 74
0
 40
0
 40
0
 40
0
 40
0
 40
1
 40
1
 40
1
 40
1
 10
1326.720000
 20
1616.385000
 30
0.0
 10
1325.377500
 20
1620.135000
 30
0.0
 10
1325.490000
 20
1625.385000
 30
0.0
 10
1318.050000
 20
1625.662500
 30
0.0
  0
SPLINE
  5
1c4
100
AcDbEntity
  8
0
 62
7
100
AcDbSpline
 70
8
 71
3
 72
8
 73
4
 74
0
 40
0
 40
0
 40
0
 40
0
 40
1
 40
1
 40
1
 40
1
 10
1318.050000
 20
1625.662500
 30
0.0
 10
1310.415000
 20
1625.917500
 30
0.0
 10
1309.410000
 20
1620.180000
 30
0.0
 10
1309.305000
 20
1614.285000
 30
0.0
  0
SPLINE
  5
1c5
100
AcDbEntity
  8
0
 62
7
100
AcDbSpline
 70
8
 71
3
 72
8
 73
4
 74
0
 40
0
 40
0
 40
0
 40
0
 40
1
 40
1
 40
1
 40
1
 10
1309.305000
 20
1614.285000
 30
0.0
 10
1308.885000
 20
1590.547500
 30
0.0
 10
1307.767500
 20
1566.780000
 30
0.0
 10
1308.555000
 20
1543.035000
 30
0.0
  0
SPLINE
  5
1c6
100
AcDbEntity
  8
0
 62
7
100
AcDbSpline
 70
8
 71
3
 72
8
 73
4
 74
0
 40
0
 40
0
 40
0
 40
0
 40
1
 40
1
 40
1
 40
1
 10
1308.555000
 20
1543.035000
 30
0.0
 10
1309.050000
 20
1528.290000
 30
0.0
 10
1303.875000
 20
1520.535000
 30
0.0
 10
1290.037500
 20
1515.037500
 30
0.0
  0
SPLINE
  5
1c7
100
AcDbEntity
  8
0
 62
7
100
AcDbSpline
 70
8
 71
3
 72
8
 73
4
 74
0
 40
0
 40
0
 40
0
 40
0
 40
1
 40
1
 40
1
 40
1
 10
1290.037500
 20
1515.037500
 30
0.0
 10
1261.597500
 20
1503.712500
 30
0.0
 10
1241.887500
 20
1482.322500
 30
0.0
 10
1228.035000
 20
1455.292500
 30
0.0
  0
SPLINE
  5
1c8
100
AcDbEntity
  8
0
 62
7
100
AcDbSpline
 70
8
 71
3
 72
8
 73
4
 74
0
 40
0
 40
0
 40
0
 40
0
 40
1
 40
1
 40
1
 40
1
 10
1228.035000
 20
1455.292500
 30
0.0
 10
1225.890000
 20
1451.115000
 30
0.0
 10
1223.182500
 20
1447.230000
 30
0.0
 10
1219.995000
 20
1441.972500
 30
0.0
  0
SPLINE
  5
1c9
100
AcDbEntity
  8
0
 62
7
100
AcDbSpline
 70
8
 71
3
 72
8
 73
4
 74
0
 40
0
 40
0
 40
0
 40
0
 40
1
 40
1
 40
1
 40
1
 10
1219.995000
 20
1441.972500
 30
0.0
 10
1212.240000
 20
1454.242500
 30
0.0
 10
1206.000000
 20
1464.967500
 30
0.0
 10
1198.942500
 20
1475.122500
 30
0.0
  0
SPLINE
  5
1ca
100
AcDbEntity
  8
0
 62
7
100
AcDbSpline
 70
8
 71
3
 72
8
 73
4
 74
0
 40
0
 40
0
 40
0
 40
0
 40
1
 40
1
 40
1
 40
1
 10
1198.942500
 20
1475.122500
 30
0.0
 10
1185.682500
 20
1494.180000
 30
0.0
 10
1168.027500
 20
1507.372500
 30
0.0
 10
1145.587500
 20
1514.220000
 30
0.0
  0
SPLINE
  5
1cb
100
AcDbEntity
  8
0
 62
7
100
AcDbSpline
 70
8
 71
3
 72
8
 73
4
 74
0
 40
0
 40
0
 40
0
 40
0
 40
1
 40
1
 40
1
 40
1
 10
1145.587500
 20
1514.220000
 30
0.0
 10
1130.355000
 20
1518.870000
 30
0.0
 10
1127.850000
 20
1522.282500
 30
0.0
 10
1127.835000
 20
1538.325000
 30
0.0
  0
SPLINE
  5
1cc
100
AcDbEntity
  8
0
 62
7
100
AcDbSpline
 70
8
 71
3
 72
8
 73
4
 74
0
 40
0
 40
0
 40
0
 40
0
 40
1
 40
1
 40
1
 40
1
 10
1127.835000
 20
1538.325000
 30
0.0
 10
1127.835000
 20
1562.685000
 30
0.0
 10
1128.472500
 20
1587.075000
 30
0.0
 10
1128.690000
 20
1611.420000
 30
0.0
  0
SPLINE
  5
1cd
100
AcDbEntity
  8
0
 62
7
100
AcDbSpline
 70
8
 71
3
 72
8
 73
4
 74
0
 40
0
 40
0
 40
0
 40
0
 40
1
 40
1
 40
1
 40
1
 10
1128.690000
 20
1611.420000
 30
0.0
 10
1128.742500
 20
1617.525000
 30
0.0
 10
1129.770000
 20
1624.762500
 30
0.0
 10
1120.920000
 20
1625.917500
 30
0.0
  0
SPLINE
  5
1ce
100
AcDbEntity
  8
0
 62
7
100
AcDbSpline
 70
8
 71
3
 72
8
 73
4
 74
0
 40
0
 40
0
 40
0
 40
0
 40
1
 40
1
 40
1
 40
1
 10
1120.920000
 20
1625.917500
 30
0.0
 10
1112.512500
 20
1627.020000
 30
0.0
 10
1111.560000
 20
1620.855000
 30
0.0
 10
1109.430000
 20
1614.465000
 30
0.0
  0
SPLINE
  5
1cf
100
AcDbEntity
  8
0
 62
7
100
AcDbSpline
 70
8
 71
3
 72
8
 73
4
 74
0
 40
0
 40
0
 40
0
 40
0
 40
1
 40
1
 40
1
 40
1
 10
1109.430000
 20
1614.465000
 30
0.0
 10
1100.737500
 20
1588.387500
 30
0.0
 10
1081.320000
 20
1570.627500
 30
0.0
 10
1060.020000
 20
1554.975000
 30
0.0
  0
SPLINE
  5
1d0
100
AcDbEntity
  8
0
 62
7
100
AcDbSpline
 70
8
 71
3
 72
8
 73
4
 74
0
 40
0
 40
0
 40
0
 40
0
 40
1
 40
1
 40
1
 40
1
 10
1060.020000
 20
1554.975000
 30
0.0
 10
1056.705000
 20
1552.537500
 30
0.0
 10
1048.567500
 20
1552.620000
 30
0.0
 10
1045.125000
 20
1555.042500
 30
0.0
  0
SPLINE
  5
1d1
100
AcDbEntity
  8
0
 62
7
100
AcDbSpline
 70
8
 71
3
 72
8
 73
4
 74
0
 40
0
 40
0
 40
0
 40
0
 40
1
 40
1
 40
1
 40
1
 10
1045.125000
 20
1555.042500
 30
0.0
 10
1022.880000
 20
1570.717500
 30
0.0
 10
1006.125000
 20
1591.042500
 30
0.0
 10
997.515000
 20
1617.435000
 30
0.0
  0
SPLINE
  5
1d2
100
AcDbEntity
  8
0
 62
7
100
AcDbSpline
 70
8
 71
3
 72
8
 73
4
 74
0
 40
0
 40
0
 40
0
 40
0
 40
1
 40
1
 40
1
 40
1
 10
997.515000
 20
1617.435000
 30
0.0
 10
997.245000
 20
1618.275000
 30
0.0
 10
997.005000
 20
1619.137500
 30
0.0
 10
996.810000
 20
1620.000000
 30
0.0
  0
SPLINE
  5
1d3
100
AcDbEntity
  8
0
 62
7
100
AcDbSpline
 70
8
 71
3
 72
8
 73
4
 74
0
 40
0
 40
0
 40
0
 40
0
 40
1
 40
1
 40
1
 40
1
 10
996.810000
 20
1620.000000
 30
0.0
 10
991.095000
 20
1645.440000
 30
0.0
 10
998.205000
 20
1653.000000
 30
0.0
 10
1023.360000
 20
1647.000000
 30
0.0
  0
SPLINE
  5
1d4
100
AcDbEntity
  8
0
 62
7
100
AcDbSpline
 70
8
 71
3
 72
8
 73
4
 74
0
 40
0
 40
0
 40
0
 40
0
 40
1
 40
1
 40
1
 40
1
 10
1023.360000
 20
1647.000000
 30
0.0
 10
1032.945000
 20
1644.697500
 30
0.0
 10
1041.930000
 20
1639.920000
 30
0.0
 10
1051.215000
 20
1636.350000
 30
0.0
  0
SPLINE
  5
1d5
100
AcDbEntity
  8
0
 62
7
100
AcDbSpline
 70
8
 71
3
 72
8
 73
4
 74
0
 40
0
 40
0
 40
0
 40
0
 40
1
 40
1
 40
1
 40
1
 10
1051.215000
 20
1636.350000
 30
0.0
 10
1057.350000
 20
1633.995000
 30
0.0
 10
1063.537500
 20
1631.782500
 30
0.0
 10
1072.515000
 20
1628.460000
 30
0.0
  0
SPLINE
  5
1d6
100
AcDbEntity
  8
0
 62
7
100
AcDbSpline
 70
8
 71
3
 72
8
 73
4
 74
0
 40
0
 40
0
 40
0
 40
0
 40
1
 40
1
 40
1
 40
1
 10
1072.515000
 20
1628.460000
 30
0.0
 10
1075.275000
 20
1640.835000
 30
0.0
 10
1078.957500
 20
1650.817500
 30
0.0
 10
1079.460000
 20
1660.965000
 30
0.0
  0
SPLINE
  5
1d7
100
AcDbEntity
  8
0
 62
7
100
AcDbSpline
 70
8
 71
3
 72
8
 73
4
 74
0
 40
0
 40
0
 40
0
 40
0
 40
1
 40
1
 40
1
 40
1
 10
1079.460000
 20
1660.965000
 30
0.0
 10
1080.615000
 20
1684.545000
 30
0.0
 10
1082.340000
 20
1708.410000
 30
0.0
 10
1079.985000
 20
1731.772500
 30
0.0
  0
SPLINE
  5
1d8
100
AcDbEntity
  8
0
 62
7
100
AcDbSpline
 70
8
 71
3
 72
8
 73
4
 74
0
 40
0
 40
0
 40
0
 40
0
 40
1
 40
1
 40
1
 40
1
 10
1079.985000
 20
1731.772500
 30
0.0
 10
1076.475000
 20
1766.572500
 30
0.0
 10
1056.577500
 20
1791.540000
 30
0.0
 10
1025.512500
 20
1807.522500
 30
0.0
  0
SPLINE
  5
1d9
100
AcDbEntity
  8
0
 62
7
100
AcDbSpline
 70
8
 71
3
 72
8
 73
4
 74
0
 40
0
 40
0
 40
0
 40
0
 40
1
 40
1
 40
1
 40
1
 10
1025.512500
 20
1807.522500
 30
0.0
 10
1019.962500
 20
1810.380000
 30
0.0
 10
1014.442500
 20
1813.260000
 30
0.0
 10
1007.130000
 20
1817.055000
 30
0.0
  0
SPLINE
  5
1da
100
AcDbEntity
  8
0
 62
7
100
AcDbSpline
 70
8
 71
3
 72
8
 73
4
 74
0
 40
0
 40
0
 40
0
 40
0
 40
1
 40
1
 40
1
 40
1
 10
1007.130000
 20
1817.055000
 30
0.0
 10
1014.427500
 20
1898.805000
 30
0.0
 10
1028.302500
 20
1979.707500
 30
0.0
 10
1051.380000
 20
2063.850000
 30
0.0
  0
SPLINE
  5
1db
100
AcDbEntity
  8
0
 62
7
100
AcDbSpline
 70
8
 71
3
 72
8
 73
4
 74
0
 40
0
 40
0
 40
0
 40
0
 40
1
 40
1
 40
1
 40
1
 10
1051.380000
 20
2063.850000
 30
0.0
 10
1083.892500
 20
1962.465000
 30
0.0
 10
1090.200000
 20
1860.735000
 30
0.0
 10
1103.685000
 20
1759.545000
 30
0.0
  0
LWPOLYLINE
  5
1dc
100
AcDbEntity
  8
0
 62
7
100
AcDbPolyline
 90
2
 70
0
 10
1310.940000
 20
1759.402500
 30
0.0
 10
1333.200000
 20
1759.402500
 30
0.0
  0
SPLINE
  5
1dd
100
AcDbEntity
  8
0
 62
7
100
AcDbSpline
 70
8
 71
3
 72
8
 73
4
 74
0
 40
0
 40
0
 40
0
 40
0
 40
1
 40
1
 40
1
 40
1
 10
1130.685000
 20
1759.545000
 30
0.0
 10
1130.685000
 20
1766.812500
 30
0.0
 10
1130.610000
 20
1773.487500
 30
0.0
 10
1130.685000
 20
1780.155000
 30
0.0
  0
SPLINE
  5
1de
100
AcDbEntity
  8
0
 62
7
100
AcDbSpline
 70
8
 71
3
 72
8
 73
4
 74
0
 40
0
 40
0
 40
0
 40
0
 40
1
 40
1
 40
1
 40
1
 10
1130.685000
 20
1780.155000
 30
0.0
 10
1132.117500
 20
1889.490000
 30
0.0
 10
1132.080000
 20
1998.870000
 30
0.0
 10
1135.372500
 20
2108.145000
 30
0.0
  0
SPLINE
  5
1df
100
AcDbEntity
  8
0
 62
7
100
AcDbSpline
 70
8
 71
3
 72
8
 73
4
 74
0
 40
0
 40
0
 40
0
 40
0
 40
1
 40
1
 40
1
 40
1
 10
1135.372500
 20
2108.145000
 30
0.0
 10
1140.225000
 20
2269.357500
 30
0.0
 10
1165.162500
 20
2427.540000
 30
0.0
 10
1214.265000
 20
2581.537500
 30
0.0
  0
SPLINE
  5
1e0
100
AcDbEntity
  8
0
 62
7
100
AcDbSpline
 70
8
 71
3
 72
8
 73
4
 74
0
 40
0
 40
0
 40
0
 40
0
 40
1
 40
1
 40
1
 40
1
 10
1214.265000
 20
2581.537500
 30
0.0
 10
1215.187500
 20
2584.440000
 30
0.0
 10
1216.455000
 20
2587.237500
 30
0.0
 10
1218.765000
 20
2593.222500
 30
0.0
  0
SPLINE
  5
1e1
100
AcDbEntity
  8
0
 62
7
100
AcDbSpline
 70
8
 71
3
 72
8
 73
4
 74
0
 40
0
 40
0
 40
0
 40
0
 40
1
 40
1
 40
1
 40
1
 10
1218.765000
 20
2593.222500
 30
0.0
 10
1221.637500
 20
2585.797500
 30
0.0
 10
1223.760000
 20
2581.177500
 30
0.0
 10
1225.230000
 20
2576.355000
 30
0.0
  0
SPLINE
  5
1e2
100
AcDbEntity
  8
0
 62
7
100
AcDbSpline
 70
8
 71
3
 72
8
 73
4
 74
0
 40
0
 40
0
 40
0
 40
0
 40
1
 40
1
 40
1
 40
1
 10
1225.230000
 20
2576.355000
 30
0.0
 10
1253.467500
 20
2484.157500
 30
0.0
 10
1270.822500
 20
2389.657500
 30
0.0
 10
1285.215000
 20
2294.490000
 30
0.0
  0
SPLINE
  5
1e3
100
AcDbEntity
  8
0
 62
7
100
AcDbSpline
 70
8
 71
3
 72
8
 73
4
 74
0
 40
0
 40
0
 40
0
 40
0
 40
1
 40
1
 40
1
 40
1
 10
1285.215000
 20
2294.490000
 30
0.0
 10
1310.715000
 20
2125.792500
 30
0.0
 10
1313.227500
 20
1956.007500
 30
0.0
 10
1310.955000
 20
1785.945000
 30
0.0
  0
SPLINE
  5
1e4
100
AcDbEntity
  8
0
 62
7
100
AcDbSpline
 70
8
 71
3
 72
8
 73
4
 74
0
 40
0
 40
0
 40
0
 40
0
 40
1
 40
1
 40
1
 40
1
 10
1310.955000
 20
1785.945000
 30
0.0
 10
1310.835000
 20
1777.357500
 30
0.0
 10
1310.940000
 20
1768.762500
 30
0.0
 10
1310.940000
 20
1759.402500
 30
0.0
  0
LWPOLYLINE
  5
1e5
100
AcDbEntity
  8
0
 62
7
100
AcDbPolyline
 90
2
 70
0
 10
1103.685000
 20
1759.545000
 30
0.0
 10
1130.685000
 20
1759.545000
 30
0.0
  0
SPLINE
  5
1e6
100
AcDbEntity
  8
0
 62
7
100
AcDbSpline
 70
8
 71
3
 72
8
 73
4
 74
0
 40
0
 40
0
 40
0
 40
0
 40
1
 40
1
 40
1
 40
1
 10
1278.645000
 20
1537.402500
 30
0.0
 10
1288.605000
 20
1545.225000
 30
0.0
 10
1292.415000
 20
1553.152500
 30
0.0
 10
1292.310000
 20
1565.580000
 30
0.0
  0
SPLINE
  5
1e7
100
AcDbEntity
  8
0
 62
7
100
AcDbSpline
 70
8
 71
3
 72
8
 73
4
 74
0
 40
0
 40
0
 40
0
 40
0
 40
1
 40
1
 40
1
 40
1
 10
1292.310000
 20
1565.580000
 30
0.0
 10
1291.402500
 20
1670.505000
 30
0.0
 10
1291.320000
 20
1775.445000
 30
0.0
 10
1290.517500
 20
1880.370000
 30
0.0
  0
SPLINE
  5
1e8
100
AcDbEntity
  8
0
 62
7
100
AcDbSpline
 70
8
 71
3
 72
8
 73
4
 74
0
 40
0
 40
0
 40
0
 40
0
 40
1
 40
1
 40
1
 40
1
 10
1290.517500
 20
1880.370000
 30
0.0
 10
1290.082500
 20
1935.952500
 30
0.0
 10
1290.097500
 20
1991.587500
 30
0.0
 10
1287.450000
 20
2047.087500
 30
0.0
  0
SPLINE
  5
1e9
100
AcDbEntity
  8
0
 62
7
100
AcDbSpline
 70
8
 71
3
 72
8
 73
4
 74
0
 40
0
 40
0
 40
0
 40
0
 40
1
 40
1
 40
1
 40
1
 10
1287.450000
 20
2047.087500
 30
0.0
 10
1282.072500
 20
2160.075000
 30
0.0
 10
1269.022500
 20
2272.327500
 30
0.0
 10
1250.782500
 20
2383.965000
 30
0.0
  0
SPLINE
  5
1ea
100
AcDbEntity
  8
0
 62
7
100
AcDbSpline
 70
8
 71
3
 72
8
 73
4
 74
0
 40
0
 40
0
 40
0
 40
0
 40
1
 40
1
 40
1
 40
1
 10
1250.782500
 20
2383.965000
 30
0.0
 10
1242.907500
 20
2432.152500
 30
0.0
 10
1234.515000
 20
2480.257500
 30
0.0
 10
1218.030000
 20
2526.517500
 30
0.0
  0
SPLINE
  5
1eb
100
AcDbEntity
  8
0
 62
7
100
AcDbSpline
 70
8
 71
3
 72
8
 73
4
 74
0
 40
0
 40
0
 40
0
 40
0
 40
1
 40
1
 40
1
 40
1
 10
1218.030000
 20
2526.517500
 30
0.0
 10
1218.030000
 20
2501.767500
 30
0.0
 10
1217.992500
 20
2477.062500
 30
0.0
 10
1218.030000
 20
2452.327500
 30
0.0
  0
SPLINE
  5
1ec
100
AcDbEntity
  8
0
 62
7
100
AcDbSpline
 70
8
 71
3
 72
8
 73
4
 74
0
 40
0
 40
0
 40
0
 40
0
 40
1
 40
1
 40
1
 40
1
 10
1218.030000
 20
2452.327500
 30
0.0
 10
1218.607500
 20
2136.907500
 30
0.0
 10
1219.042500
 20
1807.327500
 30
0.0
 10
1219.710000
 20
1491.885000
 30
0.0
  0
SPLINE
  5
1ed
100
AcDbEntity
  8
0
 62
7
100
AcDbSpline
 70
8
 71
3
 72
8
 73
4
 74
0
 40
0
 40
0
 40
0
 40
0
 40
1
 40
1
 40
1
 40
1
 10
862.470000
 20
2906.647500
 30
0.0
 10
869.332500
 20
2885.430000
 30
0.0
 10
875.220000
 20
2868.690000
 30
0.0
 10
880.177500
 20
2851.672500
 30
0.0
  0
SPLINE
  5
1ee
100
AcDbEntity
  8
0
 62
7
100
AcDbSpline
 70
8
 71
3
 72
8
 73
4
 74
0
 40
0
 40
0
 40
0
 40
0
 40
1
 40
1
 40
1
 40
1
 10
880.177500
 20
2851.672500
 30
0.0
 10
907.065000
 20
2759.085000
 30
0.0
 10
923.625000
 20
2664.360000
 30
0.0
 10
935.460000
 20
2568.922500
 30
0.0
  0
SPLINE
  5
1ef
100
AcDbEntity
  8
0
 62
7
100
AcDbSpline
 70
8
 71
3
 72
8
 73
4
 74
0
 40
0
 40
0
 40
0
 40
0
 40
1
 40
1
 40
1
 40
1
 10
935.460000
 20
2568.922500
 30
0.0
 10
945.900000
 20
2484.667500
 30
0.0
 10
955.575000
 20
2400.172500
 30
0.0
 10
961.035000
 20
2315.497500
 30
0.0
  0
SPLINE
  5
1f0
100
AcDbEntity
  8
0
 62
7
100
AcDbSpline
 70
8
 71
3
 72
8
 73
4
 74
0
 40
0
 40
0
 40
0
 40
0
 40
1
 40
1
 40
1
 40
1
 10
961.035000
 20
2315.497500
 30
0.0
 10
967.822500
 20
2210.175000
 30
0.0
 10
969.930000
 20
2104.545000
 30
0.0
 10
974.062500
 20
1999.050000
 30
0.0
  0
SPLINE
  5
1f1
100
AcDbEntity
  8
0
 62
7
100
AcDbSpline
 70
8
 71
3
 72
8
 73
4
 74
0
 40
0
 40
0
 40
0
 40
0
 40
1
 40
1
 40
1
 40
1
 10
974.062500
 20
1999.050000
 30
0.0
 10
975.825000
 20
1954.110000
 30
0.0
 10
977.662500
 20
1909.170000
 30
0.0
 10
979.312500
 20
1864.222500
 30
0.0
  0
SPLINE
  5
1f2
100
AcDbEntity
  8
0
 62
7
100
AcDbSpline
 70
8
 71
3
 72
8
 73
4
 74
0
 40
0
 40
0
 40
0
 40
0
 40
1
 40
1
 40
1
 40
1
 10
979.312500
 20
1864.222500
 30
0.0
 10
979.950000
 20
1846.972500
 30
0.0
 10
980.182500
 20
1840.440000
 30
0.0
 10
958.867500
 20
1835.940000
 30
0.0
  0
SPLINE
  5
1f3
100
AcDbEntity
  8
0
 62
7
100
AcDbSpline
 70
8
 71
3
 72
8
 73
4
 74
0
 40
0
 40
0
 40
0
 40
0
 40
1
 40
1
 40
1
 40
1
 10
958.867500
 20
1835.940000
 30
0.0
 10
922.117500
 20
1828.177500
 30
0.0
 10
892.710000
 20
1807.552500
 30
0.0
 10
872.700000
 20
1774.852500
 30
0.0
  0
SPLINE
  5
1f4
100
AcDbEntity
  8
0
 62
7
100
AcDbSpline
 70
8
 71
3
 72
8
 73
4
 74
0
 40
0
 40
0
 40
0
 40
0
 40
1
 40
1
 40
1
 40
1
 10
872.700000
 20
1774.852500
 30
0.0
 10
870.855000
 20
1771.852500
 30
0.0
 10
868.132500
 20
1769.355000
 30
0.0
 10
864.532500
 20
1765.102500
 30
0.0
  0
SPLINE
  5
1f5
100
AcDbEntity
  8
0
 62
7
100
AcDbSpline
 70
8
 71
3
 72
8
 73
4
 74
0
 40
0
 40
0
 40
0
 40
0
 40
1
 40
1
 40
1
 40
1
 10
864.532500
 20
1765.102500
 30
0.0
 10
860.467500
 20
1770.510000
 30
0.0
 10
857.145000
 20
1774.680000
 30
0.0
 10
854.085000
 20
1779.022500
 30
0.0
  0
SPLINE
  5
1f6
100
AcDbEntity
  8
0
 62
7
100
AcDbSpline
 70
8
 71
3
 72
8
 73
4
 74
0
 40
0
 40
0
 40
0
 40
0
 40
1
 40
1
 40
1
 40
1
 10
854.085000
 20
1779.022500
 30
0.0
 10
833.595000
 20
1808.137500
 30
0.0
 10
807.345000
 20
1828.942500
 30
0.0
 10
771.892500
 20
1836.930000
 30
0.0
  0
SPLINE
  5
1f7
100
AcDbEntity
  8
0
 62
7
100
AcDbSpline
 70
8
 71
3
 72
8
 73
4
 74
0
 40
0
 40
0
 40
0
 40
0
 40
1
 40
1
 40
1
 40
1
 10
771.892500
 20
1836.930000
 30
0.0
 10
752.452500
 20
1841.310000
 30
0.0
 10
749.872500
 20
1844.850000
 30
0.0
 10
750.495000
 20
1865.235000
 30
0.0
  0
SPLINE
  5
1f8
100
AcDbEntity
  8
0
 62
7
100
AcDbSpline
 70
8
 71
3
 72
8
 73
4
 74
0
 40
0
 40
0
 40
0
 40
0
 40
1
 40
1
 40
1
 40
1
 10
750.495000
 20
1865.235000
 30
0.0
 10
753.015000
 20
1948.282500
 30
0.0
 10
755.182500
 20
2031.345000
 30
0.0
 10
758.377500
 20
2114.370000
 30
0.0
  0
SPLINE
  5
1f9
100
AcDbEntity
  8
0
 62
7
100
AcDbSpline
 70
8
 71
3
 72
8
 73
4
 74
0
 40
0
 40
0
 40
0
 40
0
 40
1
 40
1
 40
1
 40
1
 10
758.377500
 20
2114.370000
 30
0.0
 10
762.127500
 20
2211.750000
 30
0.0
 10
764.962500
 20
2309.212500
 30
0.0
 10
771.472500
 20
2406.420000
 30
0.0
  0
SPLINE
  5
1fa
100
AcDbEntity
  8
0
 62
7
100
AcDbSpline
 70
8
 71
3
 72
8
 73
4
 74
0
 40
0
 40
0
 40
0
 40
0
 40
1
 40
1
 40
1
 40
1
 10
771.472500
 20
2406.420000
 30
0.0
 10
782.471723
 20
2571.655550
 30
0.0
 10
811.255586
 20
2735.223428
 30
0.0
 10
857.325000
 20
2894.287500
 30
0.0
  0
SPLINE
  5
1fb
100
AcDbEntity
  8
0
 62
7
100
AcDbSpline
 70
8
 71
3
 72
8
 73
4
 74
0
 40
0
 40
0
 40
0
 40
0
 40
1
 40
1
 40
1
 40
1
 10
857.325000
 20
2894.287500
 30
0.0
 10
858.127500
 20
2897.017500
 30
0.0
 10
859.507500
 20
2899.575000
 30
0.0
 10
862.470000
 20
2906.647500
 30
0.0
  0
LWPOLYLINE
  5
1fc
100
AcDbEntity
  8
0
 62
7
100
AcDbPolyline
 90
1
 70
1
 10
1310.940000
 20
1759.402500
 30
0.0
  0
SPLINE
  5
1fd
100
AcDbEntity
  8
0
 62
7
100
AcDbSpline
 70
8
 71
3
 72
8
 73
4
 74
0
 40
0
 40
0
 40
0
 40
0
 40
1
 40
1
 40
1
 40
1
 10
865.867500
 20
1808.647500
 30
0.0
 10
872.617500
 20
1813.095000
 30
0.0
 10
875.752500
 20
1814.887500
 30
0.0
 10
878.572500
 20
1817.122500
 30
0.0
  0
SPLINE
  5
1fe
100
AcDbEntity
  8
0
 62
7
100
AcDbSpline
 70
8
 71
3
 72
8
 73
4
 74
0
 40
0
 40
0
 40
0
 40
0
 40
1
 40
1
 40
1
 40
1
 10
878.572500
 20
1817.122500
 30
0.0
 10
900.090000
 20
1834.200000
 30
0.0
 10
921.165000
 20
1851.870000
 30
0.0
 10
943.200000
 20
1868.265000
 30
0.0
  0
SPLINE
  5
1ff
100
AcDbEntity
  8
0
 62
7
100
AcDbSpline
 70
8
 71
3
 72
8
 73
4
 74
0
 40
0
 40
0
 40
0
 40
0
 40
1
 40
1
 40
1
 40
1
 10
943.200000
 20
1868.265000
 30
0.0
 10
952.807500
 20
1875.420000
 30
0.0
 10
956.227500
 20
1882.927500
 30
0.0
 10
955.627500
 20
1894.927500
 30
0.0
  0
SPLINE
  5
200
100
AcDbEntity
  8
0
 62
7
100
AcDbSpline
 70
8
 71
3
 72
8
 73
4
 74
0
 40
0
 40
0
 40
0
 40
0
 40
1
 40
1
 40
1
 40
1
 10
955.627500
 20
1894.927500
 30
0.0
 10
952.125000
 20
1964.782500
 30
0.0
 10
949.357500
 20
2034.682500
 30
0.0
 10
946.560000
 20
2104.567500
 30
0.0
  0
SPLINE
  5
201
100
AcDbEntity
  8
0
 62
7
100
AcDbSpline
 70
8
 71
3
 72
8
 73
4
 74
0
 40
0
 40
0
 40
0
 40
0
 40
1
 40
1
 40
1
 40
1
 10
946.560000
 20
2104.567500
 30
0.0
 10
943.762500
 20
2174.452500
 30
0.0
 10
941.850000
 20
2244.382500
 30
0.0
 10
938.385000
 20
2314.237500
 30
0.0
  0
SPLINE
  5
202
100
AcDbEntity
  8
0
 62
7
100
AcDbSpline
 70
8
 71
3
 72
8
 73
4
 74
0
 40
0
 40
0
 40
0
 40
0
 40
1
 40
1
 40
1
 40
1
 10
938.385000
 20
2314.237500
 30
0.0
 10
933.090000
 20
2420.955000
 30
0.0
 10
921.262500
 20
2527.080000
 30
0.0
 10
905.310000
 20
2632.680000
 30
0.0
  0
SPLINE
  5
203
100
AcDbEntity
  8
0
 62
7
100
AcDbSpline
 70
8
 71
3
 72
8
 73
4
 74
0
 40
0
 40
0
 40
0
 40
0
 40
1
 40
1
 40
1
 40
1
 10
905.310000
 20
2632.680000
 30
0.0
 10
897.217500
 20
2686.305000
 30
0.0
 10
885.967500
 20
2739.465000
 30
0.0
 10
875.820000
 20
2792.760000
 30
0.0
  0
SPLINE
  5
204
100
AcDbEntity
  8
0
 62
7
100
AcDbSpline
 70
8
 71
3
 72
8
 73
4
 74
0
 40
0
 40
0
 40
0
 40
0
 40
1
 40
1
 40
1
 40
1
 10
875.820000
 20
2792.760000
 30
0.0
 10
873.637500
 20
2804.205000
 30
0.0
 10
868.320000
 20
2815.050000
 30
0.0
 10
865.867500
 20
2826.435000
 30
0.0
  0
LWPOLYLINE
  5
205
100
AcDbEntity
  8
0
 62
7
100
AcDbPolyline
 90
1
 70
1
 10
862.470000
 20
2906.647500
 30
0.0
  0
SPLINE
  5
206
100
AcDbEntity
  8
0
 62
7
100
AcDbSpline
 70
8
 71
3
 72
8
 73
4
 74
0
 40
0
 40
0
 40
0
 40
0
 40
1
 40
1
 40
1
 40
1
 10
1572.217500
 20
1761.157500
 30
0.0
 10
1561.905000
 20
1773.772500
 30
0.0
 10
1553.302500
 20
1785.157500
 30
0.0
 10
1543.785000
 20
1795.747500
 30
0.0
  0
SPLINE
  5
207
100
AcDbEntity
  8
0
 62
7
100
AcDbSpline
 70
8
 71
3
 72
8
 73
4
 74
0
 40
0
 40
0
 40
0
 40
0
 40
1
 40
1
 40
1
 40
1
 10
1543.785000
 20
1795.747500
 30
0.0
 10
1526.535000
 20
1814.940000
 30
0.0
 10
1504.665000
 20
1826.265000
 30
0.0
 10
1479.667500
 20
1832.205000
 30
0.0
  0
SPLINE
  5
208
100
AcDbEntity
  8
0
 62
7
100
AcDbSpline
 70
8
 71
3
 72
8
 73
4
 74
0
 40
0
 40
0
 40
0
 40
0
 40
1
 40
1
 40
1
 40
1
 10
1479.667500
 20
1832.205000
 30
0.0
 10
1459.807500
 20
1836.922500
 30
0.0
 10
1457.250000
 20
1840.215000
 30
0.0
 10
1457.872500
 20
1860.382500
 30
0.0
  0
SPLINE
  5
209
100
AcDbEntity
  8
0
 62
7
100
AcDbSpline
 70
8
 71
3
 72
8
 73
4
 74
0
 40
0
 40
0
 40
0
 40
0
 40
1
 40
1
 40
1
 40
1
 10
1457.872500
 20
1860.382500
 30
0.0
 10
1460.775000
 20
1954.057500
 30
0.0
 10
1463.632500
 20
2047.740000
 30
0.0
 10
1466.992500
 20
2141.400000
 30
0.0
  0
SPLINE
  5
20a
100
AcDbEntity
  8
0
 62
7
100
AcDbSpline
 70
8
 71
3
 72
8
 73
4
 74
0
 40
0
 40
0
 40
0
 40
0
 40
1
 40
1
 40
1
 40
1
 10
1466.992500
 20
2141.400000
 30
0.0
 10
1469.587500
 20
2213.827500
 30
0.0
 10
1472.152500
 20
2286.270000
 30
0.0
 10
1476.037500
 20
2358.637500
 30
0.0
  0
SPLINE
  5
20b
100
AcDbEntity
  8
0
 62
7
100
AcDbSpline
 70
8
 71
3
 72
8
 73
4
 74
0
 40
0
 40
0
 40
0
 40
0
 40
1
 40
1
 40
1
 40
1
 10
1476.037500
 20
2358.637500
 30
0.0
 10
1485.712500
 20
2538.922500
 30
0.0
 10
1514.655000
 20
2716.057500
 30
0.0
 10
1564.815000
 20
2889.637500
 30
0.0
  0
SPLINE
  5
20c
100
AcDbEntity
  8
0
 62
7
100
AcDbSpline
 70
8
 71
3
 72
8
 73
4
 74
0
 40
0
 40
0
 40
0
 40
0
 40
1
 40
1
 40
1
 40
1
 10
1564.815000
 20
2889.637500
 30
0.0
 10
1565.632500
 20
2892.472500
 30
0.0
 10
1566.727500
 20
2895.232500
 30
0.0
 10
1569.255000
 20
2902.567500
 30
0.0
  0
SPLINE
  5
20d
100
AcDbEntity
  8
0
 62
7
100
AcDbSpline
 70
8
 71
3
 72
8
 73
4
 74
0
 40
0
 40
0
 40
0
 40
0
 40
1
 40
1
 40
1
 40
1
 10
1569.255000
 20
2902.567500
 30
0.0
 10
1572.937500
 20
2892.540000
 30
0.0
 10
1575.367500
 20
2886.472500
 30
0.0
 10
1577.407500
 20
2880.285000
 30
0.0
  0
SPLINE
  5
20e
100
AcDbEntity
  8
0
 62
7
100
AcDbSpline
 70
8
 71
3
 72
8
 73
4
 74
0
 40
0
 40
0
 40
0
 40
0
 40
1
 40
1
 40
1
 40
1
 10
1577.407500
 20
2880.285000
 30
0.0
 10
1601.947500
 20
2805.937500
 30
0.0
 10
1617.037500
 20
2729.415000
 30
0.0
 10
1629.975000
 20
2652.382500
 30
0.0
  0
SPLINE
  5
20f
100
AcDbEntity
  8
0
 62
7
100
AcDbSpline
 70
8
 71
3
 72
8
 73
4
 74
0
 40
0
 40
0
 40
0
 40
0
 40
1
 40
1
 40
1
 40
1
 10
1629.975000
 20
2652.382500
 30
0.0
 10
1658.175000
 20
2484.465000
 30
0.0
 10
1671.337500
 20
2315.242500
 30
0.0
 10
1675.672500
 20
2145.142500
 30
0.0
  0
SPLINE
  5
210
100
AcDbEntity
  8
0
 62
7
100
AcDbSpline
 70
8
 71
3
 72
8
 73
4
 74
0
 40
0
 40
0
 40
0
 40
0
 40
1
 40
1
 40
1
 40
1
 10
1675.672500
 20
2145.142500
 30
0.0
 10
1678.057500
 20
2051.452500
 30
0.0
 10
1682.775000
 20
1957.830000
 30
0.0
 10
1686.427500
 20
1864.177500
 30
0.0
  0
SPLINE
  5
211
100
AcDbEntity
  8
0
 62
7
100
AcDbSpline
 70
8
 71
3
 72
8
 73
4
 74
0
 40
0
 40
0
 40
0
 40
0
 40
1
 40
1
 40
1
 40
1
 10
1686.427500
 20
1864.177500
 30
0.0
 10
1686.600000
 20
1859.812500
 30
0.0
 10
1686.427500
 20
1855.425000
 30
0.0
 10
1686.727500
 20
1851.060000
 30
0.0
  0
SPLINE
  5
212
100
AcDbEntity
  8
0
 62
7
100
AcDbSpline
 70
8
 71
3
 72
8
 73
4
 74
0
 40
0
 40
0
 40
0
 40
0
 40
1
 40
1
 40
1
 40
1
 10
1686.727500
 20
1851.060000
 30
0.0
 10
1687.357500
 20
1840.680000
 30
0.0
 10
1683.285000
 20
1835.310000
 30
0.0
 10
1672.350000
 20
1833.270000
 30
0.0
  0
SPLINE
  5
213
100
AcDbEntity
  8
0
 62
7
100
AcDbSpline
 70
8
 71
3
 72
8
 73
4
 74
0
 40
0
 40
0
 40
0
 40
0
 40
1
 40
1
 40
1
 40
1
 10
1672.350000
 20
1833.270000
 30
0.0
 10
1644.045000
 20
1827.930000
 30
0.0
 10
1619.167500
 20
1815.045000
 30
0.0
 10
1599.045000
 20
1794.330000
 30
0.0
  0
SPLINE
  5
214
100
AcDbEntity
  8
0
 62
7
100
AcDbSpline
 70
8
 71
3
 72
8
 73
4
 74
0
 40
0
 40
0
 40
0
 40
0
 40
1
 40
1
 40
1
 40
1
 10
1599.045000
 20
1794.330000
 30
0.0
 10
1589.640000
 20
1784.602500
 30
0.0
 10
1581.967500
 20
1773.255000
 30
0.0
 10
1572.217500
 20
1761.157500
 30
0.0
  0
LWPOLYLINE
  5
215
100
AcDbEntity
  8
0
 62
7
100
AcDbPolyline
 90
2
 70
0
 10
865.867500
 20
2826.435000
 30
0.0
 10
865.867500
 20
1808.647500
 30
0.0
  0
SPLINE
  5
216
100
AcDbEntity
  8
0
 62
7
100
AcDbSpline
 70
8
 71
3
 72
8
 73
4
 74
0
 40
0
 40
0
 40
0
 40
0
 40
1
 40
1
 40
1
 40
1
 10
1576.350000
 20
1804.867500
 30
0.0
 10
1605.300000
 20
1827.967500
 30
0.0
 10
1632.720000
 20
1849.410000
 30
0.0
 10
1659.427500
 20
1871.707500
 30
0.0
  0
SPLINE
  5
217
100
AcDbEntity
  8
0
 62
7
100
AcDbSpline
 70
8
 71
3
 72
8
 73
4
 74
0
 40
0
 40
0
 40
0
 40
0
 40
1
 40
1
 40
1
 40
1
 10
1659.427500
 20
1871.707500
 30
0.0
 10
1662.712500
 20
1874.452500
 30
0.0
 10
1663.350000
 20
1881.817500
 30
0.0
 10
1663.177500
 20
1886.977500
 30
0.0
  0
SPLINE
  5
218
100
AcDbEntity
  8
0
 62
7
100
AcDbSpline
 70
8
 71
3
 72
8
 73
4
 74
0
 40
0
 40
0
 40
0
 40
0
 40
1
 40
1
 40
1
 40
1
 10
1663.177500
 20
1886.977500
 30
0.0
 10
1662.585000
 20
1907.572500
 30
0.0
 10
1660.927500
 20
1928.130000
 30
0.0
 10
1660.177500
 20
1948.717500
 30
0.0
  0
SPLINE
  5
219
100
AcDbEntity
  8
0
 62
7
100
AcDbSpline
 70
8
 71
3
 72
8
 73
4
 74
0
 40
0
 40
0
 40
0
 40
0
 40
1
 40
1
 40
1
 40
1
 10
1660.177500
 20
1948.717500
 30
0.0
 10
1656.000000
 20
2056.672500
 30
0.0
 10
1652.227500
 20
2164.642500
 30
0.0
 10
1647.802500
 20
2272.582500
 30
0.0
  0
SPLINE
  5
21a
100
AcDbEntity
  8
0
 62
7
100
AcDbSpline
 70
8
 71
3
 72
8
 73
4
 74
0
 40
0
 40
0
 40
0
 40
0
 40
1
 40
1
 40
1
 40
1
 10
1647.802500
 20
2272.582500
 30
0.0
 10
1643.025000
 20
2389.350000
 30
0.0
 10
1631.235000
 20
2505.517500
 30
0.0
 10
1613.730000
 20
2620.995000
 30
0.0
  0
SPLINE
  5
21b
100
AcDbEntity
  8
0
 62
7
100
AcDbSpline
 70
8
 71
3
 72
8
 73
4
 74
0
 40
0
 40
0
 40
0
 40
0
 40
1
 40
1
 40
1
 40
1
 10
1613.730000
 20
2620.995000
 30
0.0
 10
1604.730000
 20
2680.147500
 30
0.0
 10
1591.980000
 20
2738.745000
 30
0.0
 10
1580.730000
 20
2797.530000
 30
0.0
  0
SPLINE
  5
21c
100
AcDbEntity
  8
0
 62
7
100
AcDbSpline
 70
8
 71
3
 72
8
 73
4
 74
0
 40
0
 40
0
 40
0
 40
0
 40
1
 40
1
 40
1
 40
1
 10
1580.730000
 20
2797.530000
 30
0.0
 10
1579.515000
 20
2803.875000
 30
0.0
 10
1577.017500
 20
2809.972500
 30
0.0
 10
1575.112500
 20
2816.190000
 30
0.0
  0
SPLINE
  5
21d
100
AcDbEntity
  8
0
 62
7
100
AcDbSpline
 70
8
 71
3
 72
8
 73
4
 74
0
 40
0
 40
0
 40
0
 40
0
 40
1
 40
1
 40
1
 40
1
 10
1575.112500
 20
2816.190000
 30
0.0
 10
1568.520000
 20
2784.772500
 30
0.0
 10
1570.822500
 20
1820.887500
 30
0.0
 10
1576.365000
 20
1804.852500
 30
0.0
  0
LWPOLYLINE
  5
21e
100
AcDbEntity
  8
0
 62
7
100
AcDbPolyline
 90
1
 70
1
 10
1572.217500
 20
1761.157500
 30
0.0
  0
SPLINE
  5
21f
100
AcDbEntity
  8
0
 62
7
100
AcDbSpline
 70
8
 71
3
 72
8
 73
4
 74
0
 40
0
 40
0
 40
0
 40
0
 40
1
 40
1
 40
1
 40
1
 10
1462.995000
 20
1245.697500
 30
0.0
 10
1428.195000
 20
1229.572500
 30
0.0
 10
1394.302500
 20
1213.687500
 30
0.0
 10
1360.245000
 20
1198.162500
 30
0.0
  0
SPLINE
  5
220
100
AcDbEntity
  8
0
 62
7
100
AcDbSpline
 70
8
 71
3
 72
8
 73
4
 74
0
 40
0
 40
0
 40
0
 40
0
 40
1
 40
1
 40
1
 40
1
 10
1360.245000
 20
1198.162500
 30
0.0
 10
1341.397500
 20
1189.575000
 30
0.0
 10
1337.587500
 20
1191.277500
 30
0.0
 10
1329.360000
 20
1210.680000
 30
0.0
  0
SPLINE
  5
221
100
AcDbEntity
  8
0
 62
7
100
AcDbSpline
 70
8
 71
3
 72
8
 73
4
 74
0
 40
0
 40
0
 40
0
 40
0
 40
1
 40
1
 40
1
 40
1
 10
1329.360000
 20
1210.680000
 30
0.0
 10
1327.153678
 20
1215.846841
 30
0.0
 10
1325.321461
 20
1221.165536
 30
0.0
 10
1323.877500
 20
1226.595000
 30
0.0
  0
SPLINE
  5
222
100
AcDbEntity
  8
0
 62
7
100
AcDbSpline
 70
8
 71
3
 72
8
 73
4
 74
0
 40
0
 40
0
 40
0
 40
0
 40
1
 40
1
 40
1
 40
1
 10
1323.877500
 20
1226.595000
 30
0.0
 10
1322.160000
 20
1233.165000
 30
0.0
 10
1321.080000
 20
1239.892500
 30
0.0
 10
1319.302500
 20
1248.630000
 30
0.0
  0
SPLINE
  5
223
100
AcDbEntity
  8
0
 62
7
100
AcDbSpline
 70
8
 71
3
 72
8
 73
4
 74
0
 40
0
 40
0
 40
0
 40
0
 40
1
 40
1
 40
1
 40
1
 10
1319.302500
 20
1248.630000
 30
0.0
 10
1328.175000
 20
1252.155000
 30
0.0
 10
1336.725000
 20
1255.657500
 30
0.0
 10
1345.132500
 20
1258.747500
 30
0.0
  0
SPLINE
  5
224
100
AcDbEntity
  8
0
 62
7
100
AcDbSpline
 70
8
 71
3
 72
8
 73
4
 74
0
 40
0
 40
0
 40
0
 40
0
 40
1
 40
1
 40
1
 40
1
 10
1345.132500
 20
1258.747500
 30
0.0
 10
1385.565000
 20
1270.170000
 30
0.0
 10
1420.950000
 20
1290.712500
 30
0.0
 10
1452.690000
 20
1317.750000
 30
0.0
  0
SPLINE
  5
225
100
AcDbEntity
  8
0
 62
7
100
AcDbSpline
 70
8
 71
3
 72
8
 73
4
 74
0
 40
0
 40
0
 40
0
 40
0
 40
1
 40
1
 40
1
 40
1
 10
1452.690000
 20
1317.750000
 30
0.0
 10
1506.780000
 20
1363.822500
 30
0.0
 10
1551.060000
 20
1417.147500
 30
0.0
 10
1574.520000
 20
1485.480000
 30
0.0
  0
SPLINE
  5
226
100
AcDbEntity
  8
0
 62
7
100
AcDbSpline
 70
8
 71
3
 72
8
 73
4
 74
0
 40
0
 40
0
 40
0
 40
0
 40
1
 40
1
 40
1
 40
1
 10
1574.520000
 20
1485.480000
 30
0.0
 10
1577.621428
 20
1494.286712
 30
0.0
 10
1580.127082
 20
1503.292030
 30
0.0
 10
1582.020000
 20
1512.435000
 30
0.0
  0
SPLINE
  5
227
100
AcDbEntity
  8
0
 62
7
100
AcDbSpline
 70
8
 71
3
 72
8
 73
4
 74
0
 40
0
 40
0
 40
0
 40
0
 40
1
 40
1
 40
1
 40
1
 10
1582.020000
 20
1512.435000
 30
0.0
 10
1583.595000
 20
1520.332500
 30
0.0
 10
1581.922500
 20
1527.562500
 30
0.0
 10
1572.562500
 20
1530.090000
 30
0.0
  0
SPLINE
  5
228
100
AcDbEntity
  8
0
 62
7
100
AcDbSpline
 70
8
 71
3
 72
8
 73
4
 74
0
 40
0
 40
0
 40
0
 40
0
 40
1
 40
1
 40
1
 40
1
 10
1572.562500
 20
1530.090000
 30
0.0
 10
1563.315000
 20
1532.595000
 30
0.0
 10
1554.997500
 20
1531.942500
 30
0.0
 10
1550.122500
 20
1522.267500
 30
0.0
  0
SPLINE
  5
229
100
AcDbEntity
  8
0
 62
7
100
AcDbSpline
 70
8
 71
3
 72
8
 73
4
 74
0
 40
0
 40
0
 40
0
 40
0
 40
1
 40
1
 40
1
 40
1
 10
1550.122500
 20
1522.267500
 30
0.0
 10
1547.555597
 20
1517.272175
 30
0.0
 10
1545.396085
 20
1512.077809
 30
0.0
 10
1543.665000
 20
1506.735000
 30
0.0
  0
SPLINE
  5
22a
100
AcDbEntity
  8
0
 62
7
100
AcDbSpline
 70
8
 71
3
 72
8
 73
4
 74
0
 40
0
 40
0
 40
0
 40
0
 40
1
 40
1
 40
1
 40
1
 10
1543.665000
 20
1506.735000
 30
0.0
 10
1513.005000
 20
1408.777500
 30
0.0
 10
1440.967500
 20
1344.907500
 30
0.0
 10
1355.242500
 20
1301.407500
 30
0.0
  0
SPLINE
  5
22b
100
AcDbEntity
  8
0
 62
7
100
AcDbSpline
 70
8
 71
3
 72
8
 73
4
 74
0
 40
0
 40
0
 40
0
 40
0
 40
1
 40
1
 40
1
 40
1
 10
1355.242500
 20
1301.407500
 30
0.0
 10
1344.967500
 20
1296.907500
 30
0.0
 10
1333.305000
 20
1293.382500
 30
0.0
 10
1319.505000
 20
1288.477500
 30
0.0
  0
SPLINE
  5
22c
100
AcDbEntity
  8
0
 62
7
100
AcDbSpline
 70
8
 71
3
 72
8
 73
4
 74
0
 40
0
 40
0
 40
0
 40
0
 40
1
 40
1
 40
1
 40
1
 10
1319.505000
 20
1288.477500
 30
0.0
 10
1317.735000
 20
1309.320000
 30
0.0
 10
1321.050000
 20
1326.900000
 30
0.0
 10
1326.255000
 20
1343.842500
 30
0.0
  0
SPLINE
  5
22d
100
AcDbEntity
  8
0
 62
7
100
AcDbSpline
 70
8
 71
3
 72
8
 73
4
 74
0
 40
0
 40
0
 40
0
 40
0
 40
1
 40
1
 40
1
 40
1
 10
1326.255000
 20
1343.842500
 30
0.0
 10
1327.672500
 20
1348.492500
 30
0.0
 10
1335.472500
 20
1351.342500
 30
0.0
 10
1340.572500
 20
1354.687500
 30
0.0
  0
SPLINE
  5
22e
100
AcDbEntity
  8
0
 62
7
100
AcDbSpline
 70
8
 71
3
 72
8
 73
4
 74
0
 40
0
 40
0
 40
0
 40
0
 40
1
 40
1
 40
1
 40
1
 10
1340.572500
 20
1354.687500
 30
0.0
 10
1365.075000
 20
1370.715000
 30
0.0
 10
1391.287500
 20
1384.620000
 30
0.0
 10
1413.885000
 20
1402.980000
 30
0.0
  0
SPLINE
  5
22f
100
AcDbEntity
  8
0
 62
7
100
AcDbSpline
 70
8
 71
3
 72
8
 73
4
 74
0
 40
0
 40
0
 40
0
 40
0
 40
1
 40
1
 40
1
 40
1
 10
1413.885000
 20
1402.980000
 30
0.0
 10
1463.190000
 20
1443.045000
 30
0.0
 10
1491.030000
 20
1495.597500
 30
0.0
 10
1494.885000
 20
1559.625000
 30
0.0
  0
SPLINE
  5
230
100
AcDbEntity
  8
0
 62
7
100
AcDbSpline
 70
8
 71
3
 72
8
 73
4
 74
0
 40
0
 40
0
 40
0
 40
0
 40
1
 40
1
 40
1
 40
1
 10
1494.885000
 20
1559.625000
 30
0.0
 10
1495.635000
 20
1572.015000
 30
0.0
 10
1499.752500
 20
1579.440000
 30
0.0
 10
1512.135000
 20
1582.447500
 30
0.0
  0
SPLINE
  5
231
100
AcDbEntity
  8
0
 62
7
100
AcDbSpline
 70
8
 71
3
 72
8
 73
4
 74
0
 40
0
 40
0
 40
0
 40
0
 40
1
 40
1
 40
1
 40
1
 10
1512.135000
 20
1582.447500
 30
0.0
 10
1521.637500
 20
1584.750000
 30
0.0
 10
1530.817500
 20
1588.380000
 30
0.0
 10
1540.020000
 20
1591.380000
 30
0.0
  0
SPLINE
  5
232
100
AcDbEntity
  8
0
 62
7
100
AcDbSpline
 70
8
 71
3
 72
8
 73
4
 74
0
 40
0
 40
0
 40
0
 40
0
 40
1
 40
1
 40
1
 40
1
 10
1540.020000
 20
1591.380000
 30
0.0
 10
1521.337500
 20
1662.750000
 30
0.0
 10
1465.312500
 20
1694.677500
 30
0.0
 10
1384.695000
 20
1680.315000
 30
0.0
  0
SPLINE
  5
233
100
AcDbEntity
  8
0
 62
7
100
AcDbSpline
 70
8
 71
3
 72
8
 73
4
 74
0
 40
0
 40
0
 40
0
 40
0
 40
1
 40
1
 40
1
 40
1
 10
1384.695000
 20
1680.315000
 30
0.0
 10
1375.177500
 20
1697.460000
 30
0.0
 10
1379.190000
 20
1715.205000
 30
0.0
 10
1384.597500
 20
1732.162500
 30
0.0
  0
SPLINE
  5
234
100
AcDbEntity
  8
0
 62
7
100
AcDbSpline
 70
8
 71
3
 72
8
 73
4
 74
0
 40
0
 40
0
 40
0
 40
0
 40
1
 40
1
 40
1
 40
1
 10
1384.597500
 20
1732.162500
 30
0.0
 10
1397.595000
 20
1772.940000
 30
0.0
 10
1440.525000
 20
1800.345000
 30
0.0
 10
1480.320000
 20
1794.412500
 30
0.0
  0
SPLINE
  5
235
100
AcDbEntity
  8
0
 62
7
100
AcDbSpline
 70
8
 71
3
 72
8
 73
4
 74
0
 40
0
 40
0
 40
0
 40
0
 40
1
 40
1
 40
1
 40
1
 10
1480.320000
 20
1794.412500
 30
0.0
 10
1523.760000
 20
1787.970000
 30
0.0
 10
1553.565000
 20
1752.877500
 30
0.0
 10
1554.697500
 20
1706.812500
 30
0.0
  0
SPLINE
  5
236
100
AcDbEntity
  8
0
 62
7
100
AcDbSpline
 70
8
 71
3
 72
8
 73
4
 74
0
 40
0
 40
0
 40
0
 40
0
 40
1
 40
1
 40
1
 40
1
 10
1554.697500
 20
1706.812500
 30
0.0
 10
1554.802500
 20
1702.440000
 30
0.0
 10
1554.570000
 20
1698.052500
 30
0.0
 10
1554.825000
 20
1693.695000
 30
0.0
  0
SPLINE
  5
237
100
AcDbEntity
  8
0
 62
7
100
AcDbSpline
 70
8
 71
3
 72
8
 73
4
 74
0
 40
0
 40
0
 40
0
 40
0
 40
1
 40
1
 40
1
 40
1
 10
1554.825000
 20
1693.695000
 30
0.0
 10
1555.650000
 20
1679.805000
 30
0.0
 10
1561.125000
 20
1673.497500
 30
0.0
 10
1571.880000
 20
1673.730000
 30
0.0
  0
SPLINE
  5
238
100
AcDbEntity
  8
0
 62
7
100
AcDbSpline
 70
8
 71
3
 72
8
 73
4
 74
0
 40
0
 40
0
 40
0
 40
0
 40
1
 40
1
 40
1
 40
1
 10
1571.880000
 20
1673.730000
 30
0.0
 10
1583.287500
 20
1673.977500
 30
0.0
 10
1588.702500
 20
1680.030000
 30
0.0
 10
1589.610000
 20
1693.275000
 30
0.0
  0
SPLINE
  5
239
100
AcDbEntity
  8
0
 62
7
100
AcDbSpline
 70
8
 71
3
 72
8
 73
4
 74
0
 40
0
 40
0
 40
0
 40
0
 40
1
 40
1
 40
1
 40
1
 10
1589.610000
 20
1693.275000
 30
0.0
 10
1590.292500
 20
1703.220000
 30
0.0
 10
1590.360000
 20
1713.307500
 30
0.0
 10
1592.085000
 20
1723.072500
 30
0.0
  0
SPLINE
  5
23a
100
AcDbEntity
  8
0
 62
7
100
AcDbSpline
 70
8
 71
3
 72
8
 73
4
 74
0
 40
0
 40
0
 40
0
 40
0
 40
1
 40
1
 40
1
 40
1
 10
1592.085000
 20
1723.072500
 30
0.0
 10
1600.560000
 20
1770.322500
 30
0.0
 10
1645.477500
 20
1801.717500
 30
0.0
 10
1691.542500
 20
1792.177500
 30
0.0
  0
SPLINE
  5
23b
100
AcDbEntity
  8
0
 62
7
100
AcDbSpline
 70
8
 71
3
 72
8
 73
4
 74
0
 40
0
 40
0
 40
0
 40
0
 40
1
 40
1
 40
1
 40
1
 10
1691.542500
 20
1792.177500
 30
0.0
 10
1738.620000
 20
1782.427500
 30
0.0
 10
1775.475000
 20
1730.917500
 30
0.0
 10
1761.810000
 20
1683.562500
 30
0.0
  0
SPLINE
  5
23c
100
AcDbEntity
  8
0
 62
7
100
AcDbSpline
 70
8
 71
3
 72
8
 73
4
 74
0
 40
0
 40
0
 40
0
 40
0
 40
1
 40
1
 40
1
 40
1
 10
1761.810000
 20
1683.562500
 30
0.0
 10
1724.850000
 20
1687.890000
 30
0.0
 10
1687.500000
 20
1689.217500
 30
0.0
 10
1656.607500
 20
1661.812500
 30
0.0
  0
SPLINE
  5
23d
100
AcDbEntity
  8
0
 62
7
100
AcDbSpline
 70
8
 71
3
 72
8
 73
4
 74
0
 40
0
 40
0
 40
0
 40
0
 40
1
 40
1
 40
1
 40
1
 10
1656.607500
 20
1661.812500
 30
0.0
 10
1633.620000
 20
1641.397500
 30
0.0
 10
1617.802500
 20
1616.535000
 30
0.0
 10
1608.532500
 20
1585.312500
 30
0.0
  0
SPLINE
  5
23e
100
AcDbEntity
  8
0
 62
7
100
AcDbSpline
 70
8
 71
3
 72
8
 73
4
 74
0
 40
0
 40
0
 40
0
 40
0
 40
1
 40
1
 40
1
 40
1
 10
1608.532500
 20
1585.312500
 30
0.0
 10
1619.197500
 20
1577.115000
 30
0.0
 10
1629.622500
 20
1568.415000
 30
0.0
 10
1640.782500
 20
1560.727500
 30
0.0
  0
SPLINE
  5
23f
100
AcDbEntity
  8
0
 62
7
100
AcDbSpline
 70
8
 71
3
 72
8
 73
4
 74
0
 40
0
 40
0
 40
0
 40
0
 40
1
 40
1
 40
1
 40
1
 10
1640.782500
 20
1560.727500
 30
0.0
 10
1652.677500
 20
1552.477500
 30
0.0
 10
1656.337500
 20
1541.977500
 30
0.0
 10
1652.887500
 20
1528.282500
 30
0.0
  0
SPLINE
  5
240
100
AcDbEntity
  8
0
 62
7
100
AcDbSpline
 70
8
 71
3
 72
8
 73
4
 74
0
 40
0
 40
0
 40
0
 40
0
 40
1
 40
1
 40
1
 40
1
 10
1652.887500
 20
1528.282500
 30
0.0
 10
1638.105000
 20
1469.737500
 30
0.0
 10
1617.937500
 20
1413.360000
 30
0.0
 10
1580.730000
 20
1364.970000
 30
0.0
  0
SPLINE
  5
241
100
AcDbEntity
  8
0
 62
7
100
AcDbSpline
 70
8
 71
3
 72
8
 73
4
 74
0
 40
0
 40
0
 40
0
 40
0
 40
1
 40
1
 40
1
 40
1
 10
1580.730000
 20
1364.970000
 30
0.0
 10
1558.785000
 20
1336.470000
 30
0.0
 10
1534.417500
 20
1309.747500
 30
0.0
 10
1512.675000
 20
1284.030000
 30
0.0
  0
SPLINE
  5
242
100
AcDbEntity
  8
0
 62
7
100
AcDbSpline
 70
8
 71
3
 72
8
 73
4
 74
0
 40
0
 40
0
 40
0
 40
0
 40
1
 40
1
 40
1
 40
1
 10
1512.675000
 20
1284.030000
 30
0.0
 10
1524.900000
 20
1270.597500
 30
0.0
 10
1537.762500
 20
1256.280000
 30
0.0
 10
1550.842500
 20
1242.127500
 30
0.0
  0
SPLINE
  5
243
100
AcDbEntity
  8
0
 62
7
100
AcDbSpline
 70
8
 71
3
 72
8
 73
4
 74
0
 40
0
 40
0
 40
0
 40
0
 40
1
 40
1
 40
1
 40
1
 10
1550.842500
 20
1242.127500
 30
0.0
 10
1569.240000
 20
1222.245000
 30
0.0
 10
1584.750000
 20
1200.465000
 30
0.0
 10
1594.650000
 20
1175.077500
 30
0.0
  0
SPLINE
  5
244
100
AcDbEntity
  8
0
 62
7
100
AcDbSpline
 70
8
 71
3
 72
8
 73
4
 74
0
 40
0
 40
0
 40
0
 40
0
 40
1
 40
1
 40
1
 40
1
 10
1594.650000
 20
1175.077500
 30
0.0
 10
1605.622500
 20
1146.937500
 30
0.0
 10
1595.895000
 20
1109.925000
 30
0.0
 10
1572.960000
 20
1091.467500
 30
0.0
  0
SPLINE
  5
245
100
AcDbEntity
  8
0
 62
7
100
AcDbSpline
 70
8
 71
3
 72
8
 73
4
 74
0
 40
0
 40
0
 40
0
 40
0
 40
1
 40
1
 40
1
 40
1
 10
1572.960000
 20
1091.467500
 30
0.0
 10
1549.327500
 20
1072.447500
 30
0.0
 10
1514.775000
 20
1071.075000
 30
0.0
 10
1488.862500
 20
1088.130000
 30
0.0
  0
SPLINE
  5
246
100
AcDbEntity
  8
0
 62
7
100
AcDbSpline
 70
8
 71
3
 72
8
 73
4
 74
0
 40
0
 40
0
 40
0
 40
0
 40
1
 40
1
 40
1
 40
1
 10
1488.862500
 20
1088.130000
 30
0.0
 10
1474.012500
 20
1097.880000
 30
0.0
 10
1473.345000
 20
1100.572500
 30
0.0
 10
1480.492500
 20
1117.080000
 30
0.0
  0
SPLINE
  5
247
100
AcDbEntity
  8
0
 62
7
100
AcDbSpline
 70
8
 71
3
 72
8
 73
4
 74
0
 40
0
 40
0
 40
0
 40
0
 40
1
 40
1
 40
1
 40
1
 10
1480.492500
 20
1117.080000
 30
0.0
 10
1483.549227
 20
1123.919195
 30
0.0
 10
1486.203750
 20
1130.931143
 30
0.0
 10
1488.442500
 20
1138.080000
 30
0.0
  0
SPLINE
  5
248
100
AcDbEntity
  8
0
 62
7
100
AcDbSpline
 70
8
 71
3
 72
8
 73
4
 74
0
 40
0
 40
0
 40
0
 40
0
 40
1
 40
1
 40
1
 40
1
 10
1488.442500
 20
1138.080000
 30
0.0
 10
1502.062500
 20
1183.740000
 30
0.0
 10
1496.467500
 20
1207.927500
 30
0.0
 10
1462.995000
 20
1245.697500
 30
0.0
  0
LWPOLYLINE
  5
249
100
AcDbEntity
  8
0
 62
7
100
AcDbPolyline
 90
2
 70
0
 10
1576.365000
 20
1804.852500
 30
0.0
 10
1576.350000
 20
1804.867500
 30
0.0
  0
SPLINE
  5
24a
100
AcDbEntity
  8
0
 62
7
100
AcDbSpline
 70
8
 71
3
 72
8
 73
4
 74
0
 40
0
 40
0
 40
0
 40
0
 40
1
 40
1
 40
1
 40
1
 10
1118.467500
 20
1247.025000
 30
0.0
 10
1113.840000
 20
1232.775000
 30
0.0
 10
1110.217500
 20
1218.367500
 30
0.0
 10
1104.472500
 20
1204.822500
 30
0.0
  0
SPLINE
  5
24b
100
AcDbEntity
  8
0
 62
7
100
AcDbSpline
 70
8
 71
3
 72
8
 73
4
 74
0
 40
0
 40
0
 40
0
 40
0
 40
1
 40
1
 40
1
 40
1
 10
1104.472500
 20
1204.822500
 30
0.0
 10
1098.960000
 20
1191.735000
 30
0.0
 10
1094.370000
 20
1190.430000
 30
0.0
 10
1080.952500
 20
1196.467500
 30
0.0
  0
SPLINE
  5
24c
100
AcDbEntity
  8
0
 62
7
100
AcDbSpline
 70
8
 71
3
 72
8
 73
4
 74
0
 40
0
 40
0
 40
0
 40
0
 40
1
 40
1
 40
1
 40
1
 10
1080.952500
 20
1196.467500
 30
0.0
 10
1047.952500
 20
1211.325000
 30
0.0
 10
1015.177500
 20
1226.685000
 30
0.0
 10
982.305000
 20
1241.835000
 30
0.0
  0
SPLINE
  5
24d
100
AcDbEntity
  8
0
 62
7
100
AcDbSpline
 70
8
 71
3
 72
8
 73
4
 74
0
 40
0
 40
0
 40
0
 40
0
 40
1
 40
1
 40
1
 40
1
 10
982.305000
 20
1241.835000
 30
0.0
 10
979.537500
 20
1243.110000
 30
0.0
 10
976.755000
 20
1244.355000
 30
0.0
 10
973.972500
 20
1245.585000
 30
0.0
  0
SPLINE
  5
24e
100
AcDbEntity
  8
0
 62
7
100
AcDbSpline
 70
8
 71
3
 72
8
 73
4
 74
0
 40
0
 40
0
 40
0
 40
0
 40
1
 40
1
 40
1
 40
1
 10
973.972500
 20
1245.585000
 30
0.0
 10
927.337500
 20
1201.042500
 30
0.0
 10
938.917500
 20
1152.285000
 30
0.0
 10
962.077500
 20
1103.347500
 30
0.0
  0
SPLINE
  5
24f
100
AcDbEntity
  8
0
 62
7
100
AcDbSpline
 70
8
 71
3
 72
8
 73
4
 74
0
 40
0
 40
0
 40
0
 40
0
 40
1
 40
1
 40
1
 40
1
 10
962.077500
 20
1103.347500
 30
0.0
 10
946.199718
 20
1081.323825
 30
0.0
 10
918.491033
 20
1071.217675
 30
0.0
 10
892.162500
 20
1077.847500
 30
0.0
  0
SPLINE
  5
250
100
AcDbEntity
  8
0
 62
7
100
AcDbSpline
 70
8
 71
3
 72
8
 73
4
 74
0
 40
0
 40
0
 40
0
 40
0
 40
1
 40
1
 40
1
 40
1
 10
892.162500
 20
1077.847500
 30
0.0
 10
862.447500
 20
1085.272500
 30
0.0
 10
844.957500
 20
1104.907500
 30
0.0
 10
839.415000
 20
1134.667500
 30
0.0
  0
SPLINE
  5
251
100
AcDbEntity
  8
0
 62
7
100
AcDbSpline
 70
8
 71
3
 72
8
 73
4
 74
0
 40
0
 40
0
 40
0
 40
0
 40
1
 40
1
 40
1
 40
1
 10
839.415000
 20
1134.667500
 30
0.0
 10
836.415000
 20
1150.807500
 30
0.0
 10
837.817500
 20
1166.595000
 30
0.0
 10
844.942500
 20
1182.187500
 30
0.0
  0
SPLINE
  5
252
100
AcDbEntity
  8
0
 62
7
100
AcDbSpline
 70
8
 71
3
 72
8
 73
4
 74
0
 40
0
 40
0
 40
0
 40
0
 40
1
 40
1
 40
1
 40
1
 10
844.942500
 20
1182.187500
 30
0.0
 10
859.830000
 20
1214.737500
 30
0.0
 10
882.952500
 20
1240.612500
 30
0.0
 10
908.475000
 20
1264.792500
 30
0.0
  0
SPLINE
  5
253
100
AcDbEntity
  8
0
 62
7
100
AcDbSpline
 70
8
 71
3
 72
8
 73
4
 74
0
 40
0
 40
0
 40
0
 40
0
 40
1
 40
1
 40
1
 40
1
 10
908.475000
 20
1264.792500
 30
0.0
 10
914.730000
 20
1270.717500
 30
0.0
 10
921.105000
 20
1276.515000
 30
0.0
 10
926.542500
 20
1281.562500
 30
0.0
  0
SPLINE
  5
254
100
AcDbEntity
  8
0
 62
7
100
AcDbSpline
 70
8
 71
3
 72
8
 73
4
 74
0
 40
0
 40
0
 40
0
 40
0
 40
1
 40
1
 40
1
 40
1
 10
926.542500
 20
1281.562500
 30
0.0
 10
903.465000
 20
1308.510000
 30
0.0
 10
880.342500
 20
1333.755000
 30
0.0
 10
859.215000
 20
1360.575000
 30
0.0
  0
SPLINE
  5
255
100
AcDbEntity
  8
0
 62
7
100
AcDbSpline
 70
8
 71
3
 72
8
 73
4
 74
0
 40
0
 40
0
 40
0
 40
0
 40
1
 40
1
 40
1
 40
1
 10
859.215000
 20
1360.575000
 30
0.0
 10
820.215000
 20
1410.075000
 30
0.0
 10
799.170000
 20
1468.042500
 30
0.0
 10
783.735000
 20
1528.357500
 30
0.0
  0
SPLINE
  5
256
100
AcDbEntity
  8
0
 62
7
100
AcDbSpline
 70
8
 71
3
 72
8
 73
4
 74
0
 40
0
 40
0
 40
0
 40
0
 40
1
 40
1
 40
1
 40
1
 10
783.735000
 20
1528.357500
 30
0.0
 10
780.255000
 20
1541.977500
 30
0.0
 10
783.870000
 20
1552.605000
 30
0.0
 10
795.907500
 20
1560.712500
 30
0.0
  0
SPLINE
  5
257
100
AcDbEntity
  8
0
 62
7
100
AcDbSpline
 70
8
 71
3
 72
8
 73
4
 74
0
 40
0
 40
0
 40
0
 40
0
 40
1
 40
1
 40
1
 40
1
 10
795.907500
 20
1560.712500
 30
0.0
 10
806.715000
 20
1568.002500
 30
0.0
 10
816.855000
 20
1576.282500
 30
0.0
 10
828.570000
 20
1585.095000
 30
0.0
  0
SPLINE
  5
258
100
AcDbEntity
  8
0
 62
7
100
AcDbSpline
 70
8
 71
3
 72
8
 73
4
 74
0
 40
0
 40
0
 40
0
 40
0
 40
1
 40
1
 40
1
 40
1
 10
828.570000
 20
1585.095000
 30
0.0
 10
818.070000
 20
1618.042500
 30
0.0
 10
801.240000
 20
1646.377500
 30
0.0
 10
773.160000
 20
1667.160000
 30
0.0
  0
SPLINE
  5
259
100
AcDbEntity
  8
0
 62
7
100
AcDbSpline
 70
8
 71
3
 72
8
 73
4
 74
0
 40
0
 40
0
 40
0
 40
0
 40
1
 40
1
 40
1
 40
1
 10
773.160000
 20
1667.160000
 30
0.0
 10
743.775000
 20
1688.910000
 30
0.0
 10
710.280000
 20
1688.302500
 30
0.0
 10
675.345000
 20
1682.745000
 30
0.0
  0
SPLINE
  5
25a
100
AcDbEntity
  8
0
 62
7
100
AcDbSpline
 70
8
 71
3
 72
8
 73
4
 74
0
 40
0
 40
0
 40
0
 40
0
 40
1
 40
1
 40
1
 40
1
 10
675.345000
 20
1682.745000
 30
0.0
 10
668.092500
 20
1698.982500
 30
0.0
 10
671.692500
 20
1714.245000
 30
0.0
 10
676.095000
 20
1728.855000
 30
0.0
  0
SPLINE
  5
25b
100
AcDbEntity
  8
0
 62
7
100
AcDbSpline
 70
8
 71
3
 72
8
 73
4
 74
0
 40
0
 40
0
 40
0
 40
0
 40
1
 40
1
 40
1
 40
1
 10
676.095000
 20
1728.855000
 30
0.0
 10
689.017500
 20
1771.485000
 30
0.0
 10
731.250000
 20
1798.545000
 30
0.0
 10
774.345000
 20
1792.725000
 30
0.0
  0
SPLINE
  5
25c
100
AcDbEntity
  8
0
 62
7
100
AcDbSpline
 70
8
 71
3
 72
8
 73
4
 74
0
 40
0
 40
0
 40
0
 40
0
 40
1
 40
1
 40
1
 40
1
 10
774.345000
 20
1792.725000
 30
0.0
 10
815.122500
 20
1787.212500
 30
0.0
 10
845.460000
 20
1750.552500
 30
0.0
 10
846.705000
 20
1705.267500
 30
0.0
  0
SPLINE
  5
25d
100
AcDbEntity
  8
0
 62
7
100
AcDbSpline
 70
8
 71
3
 72
8
 73
4
 74
0
 40
0
 40
0
 40
0
 40
0
 40
1
 40
1
 40
1
 40
1
 10
846.705000
 20
1705.267500
 30
0.0
 10
846.825000
 20
1700.895000
 30
0.0
 10
846.420000
 20
1696.492500
 30
0.0
 10
846.772500
 20
1692.150000
 30
0.0
  0
SPLINE
  5
25e
100
AcDbEntity
  8
0
 62
7
100
AcDbSpline
 70
8
 71
3
 72
8
 73
4
 74
0
 40
0
 40
0
 40
0
 40
0
 40
1
 40
1
 40
1
 40
1
 10
846.772500
 20
1692.150000
 30
0.0
 10
847.717500
 20
1680.487500
 30
0.0
 10
853.612500
 20
1674.315000
 30
0.0
 10
863.947500
 20
1673.752500
 30
0.0
  0
SPLINE
  5
25f
100
AcDbEntity
  8
0
 62
7
100
AcDbSpline
 70
8
 71
3
 72
8
 73
4
 74
0
 40
0
 40
0
 40
0
 40
0
 40
1
 40
1
 40
1
 40
1
 10
863.947500
 20
1673.752500
 30
0.0
 10
874.447500
 20
1673.175000
 30
0.0
 10
880.387500
 20
1678.650000
 30
0.0
 10
881.707500
 20
1691.002500
 30
0.0
  0
SPLINE
  5
260
100
AcDbEntity
  8
0
 62
7
100
AcDbSpline
 70
8
 71
3
 72
8
 73
4
 74
0
 40
0
 40
0
 40
0
 40
0
 40
1
 40
1
 40
1
 40
1
 10
881.707500
 20
1691.002500
 30
0.0
 10
882.502500
 20
1698.435000
 30
0.0
 10
882.045000
 20
1706.002500
 30
0.0
 10
882.667500
 20
1713.450000
 30
0.0
  0
SPLINE
  5
261
100
AcDbEntity
  8
0
 62
7
100
AcDbSpline
 70
8
 71
3
 72
8
 73
4
 74
0
 40
0
 40
0
 40
0
 40
0
 40
1
 40
1
 40
1
 40
1
 10
882.667500
 20
1713.450000
 30
0.0
 10
886.530000
 20
1759.672500
 30
0.0
 10
920.467500
 20
1793.467500
 30
0.0
 10
964.837500
 20
1795.462500
 30
0.0
  0
SPLINE
  5
262
100
AcDbEntity
  8
0
 62
7
100
AcDbSpline
 70
8
 71
3
 72
8
 73
4
 74
0
 40
0
 40
0
 40
0
 40
0
 40
1
 40
1
 40
1
 40
1
 10
964.837500
 20
1795.462500
 30
0.0
 10
1004.902500
 20
1797.270000
 30
0.0
 10
1047.487500
 20
1763.370000
 30
0.0
 10
1054.837500
 20
1722.187500
 30
0.0
  0
SPLINE
  5
263
100
AcDbEntity
  8
0
 62
7
100
AcDbSpline
 70
8
 71
3
 72
8
 73
4
 74
0
 40
0
 40
0
 40
0
 40
0
 40
1
 40
1
 40
1
 40
1
 10
1054.837500
 20
1722.187500
 30
0.0
 10
1057.162500
 20
1709.122500
 30
0.0
 10
1055.520000
 20
1695.937500
 30
0.0
 10
1054.770000
 20
1680.187500
 30
0.0
  0
SPLINE
  5
264
100
AcDbEntity
  8
0
 62
7
100
AcDbSpline
 70
8
 71
3
 72
8
 73
4
 74
0
 40
0
 40
0
 40
0
 40
0
 40
1
 40
1
 40
1
 40
1
 10
1054.770000
 20
1680.187500
 30
0.0
 10
1012.770000
 20
1689.187500
 30
0.0
 10
976.200000
 20
1689.187500
 30
0.0
 10
942.795000
 20
1662.802500
 30
0.0
  0
SPLINE
  5
265
100
AcDbEntity
  8
0
 62
7
100
AcDbSpline
 70
8
 71
3
 72
8
 73
4
 74
0
 40
0
 40
0
 40
0
 40
0
 40
1
 40
1
 40
1
 40
1
 10
942.795000
 20
1662.802500
 30
0.0
 10
923.152500
 20
1647.285000
 30
0.0
 10
904.170000
 20
1619.190000
 30
0.0
 10
896.842500
 20
1592.055000
 30
0.0
  0
SPLINE
  5
266
100
AcDbEntity
  8
0
 62
7
100
AcDbSpline
 70
8
 71
3
 72
8
 73
4
 74
0
 40
0
 40
0
 40
0
 40
0
 40
1
 40
1
 40
1
 40
1
 10
896.842500
 20
1592.055000
 30
0.0
 10
902.235000
 20
1590.052500
 30
0.0
 10
907.785000
 20
1587.862500
 30
0.0
 10
913.417500
 20
1585.912500
 30
0.0
  0
SPLINE
  5
267
100
AcDbEntity
  8
0
 62
7
100
AcDbSpline
 70
8
 71
3
 72
8
 73
4
 74
0
 40
0
 40
0
 40
0
 40
0
 40
1
 40
1
 40
1
 40
1
 10
913.417500
 20
1585.912500
 30
0.0
 10
943.327500
 20
1575.577500
 30
0.0
 10
938.977500
 20
1581.615000
 30
0.0
 10
942.277500
 20
1550.812500
 30
0.0
  0
SPLINE
  5
268
100
AcDbEntity
  8
0
 62
7
100
AcDbSpline
 70
8
 71
3
 72
8
 73
4
 74
0
 40
0
 40
0
 40
0
 40
0
 40
1
 40
1
 40
1
 40
1
 10
942.277500
 20
1550.812500
 30
0.0
 10
948.037500
 20
1497.060000
 30
0.0
 10
971.205000
 20
1451.887500
 30
0.0
 10
1009.575000
 20
1414.312500
 30
0.0
  0
SPLINE
  5
269
100
AcDbEntity
  8
0
 62
7
100
AcDbSpline
 70
8
 71
3
 72
8
 73
4
 74
0
 40
0
 40
0
 40
0
 40
0
 40
1
 40
1
 40
1
 40
1
 10
1009.575000
 20
1414.312500
 30
0.0
 10
1033.875000
 20
1390.515000
 30
0.0
 10
1061.557500
 20
1371.067500
 30
0.0
 10
1092.495000
 20
1357.230000
 30
0.0
  0
SPLINE
  5
26a
100
AcDbEntity
  8
0
 62
7
100
AcDbSpline
 70
8
 71
3
 72
8
 73
4
 74
0
 40
0
 40
0
 40
0
 40
0
 40
1
 40
1
 40
1
 40
1
 10
1092.495000
 20
1357.230000
 30
0.0
 10
1107.802500
 20
1350.375000
 30
0.0
 10
1114.530000
 20
1340.385000
 30
0.0
 10
1115.377500
 20
1324.650000
 30
0.0
  0
SPLINE
  5
26b
100
AcDbEntity
  8
0
 62
7
100
AcDbSpline
 70
8
 71
3
 72
8
 73
4
 74
0
 40
0
 40
0
 40
0
 40
0
 40
1
 40
1
 40
1
 40
1
 10
1115.377500
 20
1324.650000
 30
0.0
 10
1115.962500
 20
1313.662500
 30
0.0
 10
1117.005000
 20
1302.705000
 30
0.0
 10
1118.115000
 20
1288.200000
 30
0.0
  0
SPLINE
  5
26c
100
AcDbEntity
  8
0
 62
7
100
AcDbSpline
 70
8
 71
3
 72
8
 73
4
 74
0
 40
0
 40
0
 40
0
 40
0
 40
1
 40
1
 40
1
 40
1
 10
1118.115000
 20
1288.200000
 30
0.0
 10
1103.932500
 20
1293.195000
 30
0.0
 10
1093.020000
 20
1296.187500
 30
0.0
 10
1082.115000
 20
1301.152500
 30
0.0
  0
SPLINE
  5
26d
100
AcDbEntity
  8
0
 62
7
100
AcDbSpline
 70
8
 71
3
 72
8
 73
4
 74
0
 40
0
 40
0
 40
0
 40
0
 40
1
 40
1
 40
1
 40
1
 10
1082.115000
 20
1301.152500
 30
0.0
 10
1044.457500
 20
1320.960000
 30
0.0
 10
1008.787500
 20
1343.827500
 30
0.0
 10
977.190000
 20
1372.695000
 30
0.0
  0
SPLINE
  5
26e
100
AcDbEntity
  8
0
 62
7
100
AcDbSpline
 70
8
 71
3
 72
8
 73
4
 74
0
 40
0
 40
0
 40
0
 40
0
 40
1
 40
1
 40
1
 40
1
 10
977.190000
 20
1372.695000
 30
0.0
 10
937.440000
 20
1409.025000
 30
0.0
 10
911.685000
 20
1454.062500
 30
0.0
 10
894.022500
 20
1504.297500
 30
0.0
  0
SPLINE
  5
26f
100
AcDbEntity
  8
0
 62
7
100
AcDbSpline
 70
8
 71
3
 72
8
 73
4
 74
0
 40
0
 40
0
 40
0
 40
0
 40
1
 40
1
 40
1
 40
1
 10
894.022500
 20
1504.297500
 30
0.0
 10
891.772500
 20
1510.755000
 30
0.0
 10
889.522500
 20
1517.370000
 30
0.0
 10
886.050000
 20
1523.227500
 30
0.0
  0
SPLINE
  5
270
100
AcDbEntity
  8
0
 62
7
100
AcDbSpline
 70
8
 71
3
 72
8
 73
4
 74
0
 40
0
 40
0
 40
0
 40
0
 40
1
 40
1
 40
1
 40
1
 10
886.050000
 20
1523.227500
 30
0.0
 10
880.732500
 20
1532.280000
 30
0.0
 10
872.167500
 20
1532.895000
 30
0.0
 10
863.055000
 20
1529.707500
 30
0.0
  0
SPLINE
  5
271
100
AcDbEntity
  8
0
 62
7
100
AcDbSpline
 70
8
 71
3
 72
8
 73
4
 74
0
 40
0
 40
0
 40
0
 40
0
 40
1
 40
1
 40
1
 40
1
 10
863.055000
 20
1529.707500
 30
0.0
 10
854.107500
 20
1526.580000
 30
0.0
 10
852.967500
 20
1519.387500
 30
0.0
 10
854.370000
 20
1511.407500
 30
0.0
  0
SPLINE
  5
272
100
AcDbEntity
  8
0
 62
7
100
AcDbSpline
 70
8
 71
3
 72
8
 73
4
 74
0
 40
0
 40
0
 40
0
 40
0
 40
1
 40
1
 40
1
 40
1
 10
854.370000
 20
1511.407500
 30
0.0
 10
855.228068
 20
1505.851234
 30
0.0
 10
856.604064
 20
1500.387428
 30
0.0
 10
858.480000
 20
1495.087500
 30
0.0
  0
SPLINE
  5
273
100
AcDbEntity
  8
0
 62
7
100
AcDbSpline
 70
8
 71
3
 72
8
 73
4
 74
0
 40
0
 40
0
 40
0
 40
0
 40
1
 40
1
 40
1
 40
1
 10
858.480000
 20
1495.087500
 30
0.0
 10
902.175000
 20
1380.450000
 30
0.0
 10
977.602500
 20
1297.432500
 30
0.0
 10
1095.907500
 20
1257.240000
 30
0.0
  0
SPLINE
  5
274
100
AcDbEntity
  8
0
 62
7
100
AcDbSpline
 70
8
 71
3
 72
8
 73
4
 74
0
 40
0
 40
0
 40
0
 40
0
 40
1
 40
1
 40
1
 40
1
 10
1095.907500
 20
1257.240000
 30
0.0
 10
1100.632500
 20
1255.635000
 30
0.0
 10
1105.612500
 20
1252.987500
 30
0.0
 10
1110.262500
 20
1251.187500
 30
0.0
  0
SPLINE
  5
275
100
AcDbEntity
  8
0
 62
7
100
AcDbSpline
 70
8
 71
3
 72
8
 73
4
 74
0
 40
0
 40
0
 40
0
 40
0
 40
1
 40
1
 40
1
 40
1
 10
1110.262500
 20
1251.187500
 30
0.0
 10
1111.920000
 20
1250.497500
 30
0.0
 10
1113.150000
 20
1250.317500
 30
0.0
 10
1118.467500
 20
1247.025000
 30
0.0
  0
LWPOLYLINE
  5
276
100
AcDbEntity
  8
0
 62
7
100
AcDbPolyline
 90
1
 70
1
 10
1462.995000
 20
1245.697500
 30
0.0
  0
SPLINE
  5
277
100
AcDbEntity
  8
0
 62
7
100
AcDbSpline
 70
8
 71
3
 72
8
 73
4
 74
0
 40
0
 40
0
 40
0
 40
0
 40
1
 40
1
 40
1
 40
1
 10
1018.110000
 20
1448.325000
 30
0.0
 10
1031.220000
 20
1472.167500
 30
0.0
 10
1048.635000
 20
1485.772500
 30
0.0
 10
1073.025000
 20
1489.875000
 30
0.0
  0
SPLINE
  5
278
100
AcDbEntity
  8
0
 62
7
100
AcDbSpline
 70
8
 71
3
 72
8
 73
4
 74
0
 40
0
 40
0
 40
0
 40
0
 40
1
 40
1
 40
1
 40
1
 10
1073.025000
 20
1489.875000
 30
0.0
 10
1116.082500
 20
1497.127500
 30
0.0
 10
1150.087500
 20
1481.737500
 30
0.0
 10
1176.712500
 20
1448.077500
 30
0.0
  0
SPLINE
  5
279
100
AcDbEntity
  8
0
 62
7
100
AcDbSpline
 70
8
 71
3
 72
8
 73
4
 74
0
 40
0
 40
0
 40
0
 40
0
 40
1
 40
1
 40
1
 40
1
 10
1176.712500
 20
1448.077500
 30
0.0
 10
1190.212500
 20
1431.030000
 30
0.0
 10
1199.452500
 20
1412.737500
 30
0.0
 10
1198.980000
 20
1389.997500
 30
0.0
  0
SPLINE
  5
27a
100
AcDbEntity
  8
0
 62
7
100
AcDbSpline
 70
8
 71
3
 72
8
 73
4
 74
0
 40
0
 40
0
 40
0
 40
0
 40
1
 40
1
 40
1
 40
1
 10
1198.980000
 20
1389.997500
 30
0.0
 10
1198.575000
 20
1370.827500
 30
0.0
 10
1207.545000
 20
1359.502500
 30
0.0
 10
1220.017500
 20
1359.997500
 30
0.0
  0
SPLINE
  5
27b
100
AcDbEntity
  8
0
 62
7
100
AcDbSpline
 70
8
 71
3
 72
8
 73
4
 74
0
 40
0
 40
0
 40
0
 40
0
 40
1
 40
1
 40
1
 40
1
 10
1220.017500
 20
1359.997500
 30
0.0
 10
1231.807500
 20
1360.462500
 30
0.0
 10
1239.120000
 20
1371.300000
 30
0.0
 10
1239.930000
 20
1389.480000
 30
0.0
  0
SPLINE
  5
27c
100
AcDbEntity
  8
0
 62
7
100
AcDbSpline
 70
8
 71
3
 72
8
 73
4
 74
0
 40
0
 40
0
 40
0
 40
0
 40
1
 40
1
 40
1
 40
1
 10
1239.930000
 20
1389.480000
 30
0.0
 10
1242.862500
 20
1455.682500
 30
0.0
 10
1308.532500
 20
1504.785000
 30
0.0
 10
1372.530000
 20
1488.622500
 30
0.0
  0
SPLINE
  5
27d
100
AcDbEntity
  8
0
 62
7
100
AcDbSpline
 70
8
 71
3
 72
8
 73
4
 74
0
 40
0
 40
0
 40
0
 40
0
 40
1
 40
1
 40
1
 40
1
 10
1372.530000
 20
1488.622500
 30
0.0
 10
1392.292500
 20
1483.627500
 30
0.0
 10
1407.322500
 20
1471.252500
 30
0.0
 10
1419.900000
 20
1448.295000
 30
0.0
  0
SPLINE
  5
27e
100
AcDbEntity
  8
0
 62
7
100
AcDbSpline
 70
8
 71
3
 72
8
 73
4
 74
0
 40
0
 40
0
 40
0
 40
0
 40
1
 40
1
 40
1
 40
1
 10
1419.900000
 20
1448.295000
 30
0.0
 10
1413.442500
 20
1447.320000
 30
0.0
 10
1407.780000
 20
1446.195000
 30
0.0
 10
1402.065000
 20
1445.647500
 30
0.0
  0
SPLINE
  5
27f
100
AcDbEntity
  8
0
 62
7
100
AcDbSpline
 70
8
 71
3
 72
8
 73
4
 74
0
 40
0
 40
0
 40
0
 40
0
 40
1
 40
1
 40
1
 40
1
 10
1402.065000
 20
1445.647500
 30
0.0
 10
1363.252500
 20
1441.942500
 30
0.0
 10
1332.780000
 20
1424.017500
 30
0.0
 10
1314.105000
 20
1389.825000
 30
0.0
  0
SPLINE
  5
280
100
AcDbEntity
  8
0
 62
7
100
AcDbSpline
 70
8
 71
3
 72
8
 73
4
 74
0
 40
0
 40
0
 40
0
 40
0
 40
1
 40
1
 40
1
 40
1
 10
1314.105000
 20
1389.825000
 30
0.0
 10
1284.937500
 20
1336.417500
 30
0.0
 10
1276.027500
 20
1279.110000
 30
0.0
 10
1289.070000
 20
1219.515000
 30
0.0
  0
SPLINE
  5
281
100
AcDbEntity
  8
0
 62
7
100
AcDbSpline
 70
8
 71
3
 72
8
 73
4
 74
0
 40
0
 40
0
 40
0
 40
0
 40
1
 40
1
 40
1
 40
1
 10
1289.070000
 20
1219.515000
 30
0.0
 10
1292.452500
 20
1204.102500
 30
0.0
 10
1300.320000
 20
1189.080000
 30
0.0
 10
1308.705000
 20
1175.490000
 30
0.0
  0
SPLINE
  5
282
100
AcDbEntity
  8
0
 62
7
100
AcDbSpline
 70
8
 71
3
 72
8
 73
4
 74
0
 40
0
 40
0
 40
0
 40
0
 40
1
 40
1
 40
1
 40
1
 10
1308.705000
 20
1175.490000
 30
0.0
 10
1319.370000
 20
1158.240000
 30
0.0
 10
1327.455000
 20
1156.545000
 30
0.0
 10
1345.740000
 20
1162.402500
 30
0.0
  0
SPLINE
  5
283
100
AcDbEntity
  8
0
 62
7
100
AcDbSpline
 70
8
 71
3
 72
8
 73
4
 74
0
 40
0
 40
0
 40
0
 40
0
 40
1
 40
1
 40
1
 40
1
 10
1345.740000
 20
1162.402500
 30
0.0
 10
1348.702500
 20
1110.532500
 30
0.0
 10
1310.737500
 20
1093.402500
 30
0.0
 10
1264.740000
 20
1104.405000
 30
0.0
  0
SPLINE
  5
284
100
AcDbEntity
  8
0
 62
7
100
AcDbSpline
 70
8
 71
3
 72
8
 73
4
 74
0
 40
0
 40
0
 40
0
 40
0
 40
1
 40
1
 40
1
 40
1
 10
1264.740000
 20
1104.405000
 30
0.0
 10
1262.715000
 20
1086.712500
 30
0.0
 10
1278.367500
 20
1048.155000
 30
0.0
 10
1291.470000
 20
1037.932500
 30
0.0
  0
SPLINE
  5
285
100
AcDbEntity
  8
0
 62
7
100
AcDbSpline
 70
8
 71
3
 72
8
 73
4
 74
0
 40
0
 40
0
 40
0
 40
0
 40
1
 40
1
 40
1
 40
1
 10
1291.470000
 20
1037.932500
 30
0.0
 10
1300.680000
 20
1030.770000
 30
0.0
 10
1310.970000
 20
1030.125000
 30
0.0
 10
1321.710000
 20
1032.540000
 30
0.0
  0
SPLINE
  5
286
100
AcDbEntity
  8
0
 62
7
100
AcDbSpline
 70
8
 71
3
 72
8
 73
4
 74
0
 40
0
 40
0
 40
0
 40
0
 40
1
 40
1
 40
1
 40
1
 10
1321.710000
 20
1032.540000
 30
0.0
 10
1328.250000
 20
1034.040000
 30
0.0
 10
1334.595000
 20
1036.290000
 30
0.0
 10
1343.505000
 20
1038.990000
 30
0.0
  0
SPLINE
  5
287
100
AcDbEntity
  8
0
 62
7
100
AcDbSpline
 70
8
 71
3
 72
8
 73
4
 74
0
 40
0
 40
0
 40
0
 40
0
 40
1
 40
1
 40
1
 40
1
 10
1343.505000
 20
1038.990000
 30
0.0
 10
1346.212500
 20
1026.495000
 30
0.0
 10
1349.505000
 20
1015.882500
 30
0.0
 10
1350.255000
 20
1005.082500
 30
0.0
  0
SPLINE
  5
288
100
AcDbEntity
  8
0
 62
7
100
AcDbSpline
 70
8
 71
3
 72
8
 73
4
 74
0
 40
0
 40
0
 40
0
 40
0
 40
1
 40
1
 40
1
 40
1
 10
1350.255000
 20
1005.082500
 30
0.0
 10
1350.510000
 20
1001.572500
 30
0.0
 10
1344.855000
 20
995.782500
 30
0.0
 10
1340.700000
 20
994.230000
 30
0.0
  0
SPLINE
  5
289
100
AcDbEntity
  8
0
 62
7
100
AcDbSpline
 70
8
 71
3
 72
8
 73
4
 74
0
 40
0
 40
0
 40
0
 40
0
 40
1
 40
1
 40
1
 40
1
 10
1340.700000
 20
994.230000
 30
0.0
 10
1333.845000
 20
991.657500
 30
0.0
 10
1326.022500
 20
991.620000
 30
0.0
 10
1318.597500
 20
990.615000
 30
0.0
  0
SPLINE
  5
28a
100
AcDbEntity
  8
0
 62
7
100
AcDbSpline
 70
8
 71
3
 72
8
 73
4
 74
0
 40
0
 40
0
 40
0
 40
0
 40
1
 40
1
 40
1
 40
1
 10
1318.597500
 20
990.615000
 30
0.0
 10
1285.402500
 20
986.115000
 30
0.0
 10
1276.695000
 20
977.415000
 30
0.0
 10
1266.645000
 20
945.922500
 30
0.0
  0
SPLINE
  5
28b
100
AcDbEntity
  8
0
 62
7
100
AcDbSpline
 70
8
 71
3
 72
8
 73
4
 74
0
 40
0
 40
0
 40
0
 40
0
 40
1
 40
1
 40
1
 40
1
 10
1266.645000
 20
945.922500
 30
0.0
 10
1254.345000
 20
907.357500
 30
0.0
 10
1240.192500
 20
869.385000
 30
0.0
 10
1226.670000
 20
831.210000
 30
0.0
  0
SPLINE
  5
28c
100
AcDbEntity
  8
0
 62
7
100
AcDbSpline
 70
8
 71
3
 72
8
 73
4
 74
0
 40
0
 40
0
 40
0
 40
0
 40
1
 40
1
 40
1
 40
1
 10
1226.670000
 20
831.210000
 30
0.0
 10
1225.245000
 20
827.182500
 30
0.0
 10
1222.710000
 20
823.545000
 30
0.0
 10
1219.695000
 20
817.837500
 30
0.0
  0
SPLINE
  5
28d
100
AcDbEntity
  8
0
 62
7
100
AcDbSpline
 70
8
 71
3
 72
8
 73
4
 74
0
 40
0
 40
0
 40
0
 40
0
 40
1
 40
1
 40
1
 40
1
 10
1219.695000
 20
817.837500
 30
0.0
 10
1216.620000
 20
823.087500
 30
0.0
 10
1213.695000
 20
826.755000
 30
0.0
 10
1212.195000
 20
830.932500
 30
0.0
  0
SPLINE
  5
28e
100
AcDbEntity
  8
0
 62
7
100
AcDbSpline
 70
8
 71
3
 72
8
 73
4
 74
0
 40
0
 40
0
 40
0
 40
0
 40
1
 40
1
 40
1
 40
1
 10
1212.195000
 20
830.932500
 30
0.0
 10
1198.822500
 20
867.847500
 30
0.0
 10
1184.445000
 20
904.432500
 30
0.0
 10
1172.895000
 20
941.932500
 30
0.0
  0
SPLINE
  5
28f
100
AcDbEntity
  8
0
 62
7
100
AcDbSpline
 70
8
 71
3
 72
8
 73
4
 74
0
 40
0
 40
0
 40
0
 40
0
 40
1
 40
1
 40
1
 40
1
 10
1172.895000
 20
941.932500
 30
0.0
 10
1161.600000
 20
978.637500
 30
0.0
 10
1155.412500
 20
985.432500
 30
0.0
 10
1116.645000
 20
991.117500
 30
0.0
  0
SPLINE
  5
290
100
AcDbEntity
  8
0
 62
7
100
AcDbSpline
 70
8
 71
3
 72
8
 73
4
 74
0
 40
0
 40
0
 40
0
 40
0
 40
1
 40
1
 40
1
 40
1
 10
1116.645000
 20
991.117500
 30
0.0
 10
1085.370000
 20
995.737500
 30
0.0
 10
1084.252500
 20
990.007500
 30
0.0
 10
1092.307500
 20
1028.617500
 30
0.0
  0
SPLINE
  5
291
100
AcDbEntity
  8
0
 62
7
100
AcDbSpline
 70
8
 71
3
 72
8
 73
4
 74
0
 40
0
 40
0
 40
0
 40
0
 40
1
 40
1
 40
1
 40
1
 10
1092.307500
 20
1028.617500
 30
0.0
 10
1092.907500
 20
1031.467500
 30
0.0
 10
1094.685000
 20
1034.070000
 30
0.0
 10
1096.515000
 20
1038.112500
 30
0.0
  0
SPLINE
  5
292
100
AcDbEntity
  8
0
 62
7
100
AcDbSpline
 70
8
 71
3
 72
8
 73
4
 74
0
 40
0
 40
0
 40
0
 40
0
 40
1
 40
1
 40
1
 40
1
 10
1096.515000
 20
1038.112500
 30
0.0
 10
1103.047500
 20
1036.327500
 30
0.0
 10
1108.867500
 20
1034.640000
 30
0.0
 10
1114.732500
 20
1033.162500
 30
0.0
  0
SPLINE
  5
293
100
AcDbEntity
  8
0
 62
7
100
AcDbSpline
 70
8
 71
3
 72
8
 73
4
 74
0
 40
0
 40
0
 40
0
 40
0
 40
1
 40
1
 40
1
 40
1
 10
1114.732500
 20
1033.162500
 30
0.0
 10
1134.577500
 20
1028.145000
 30
0.0
 10
1148.250000
 20
1032.802500
 30
0.0
 10
1157.310000
 20
1050.645000
 30
0.0
  0
SPLINE
  5
294
100
AcDbEntity
  8
0
 62
7
100
AcDbSpline
 70
8
 71
3
 72
8
 73
4
 74
0
 40
0
 40
0
 40
0
 40
0
 40
1
 40
1
 40
1
 40
1
 10
1157.310000
 20
1050.645000
 30
0.0
 10
1165.642500
 20
1067.070000
 30
0.0
 10
1171.560000
 20
1084.732500
 30
0.0
 10
1179.637500
 20
1104.645000
 30
0.0
  0
SPLINE
  5
295
100
AcDbEntity
  8
0
 62
7
100
AcDbSpline
 70
8
 71
3
 72
8
 73
4
 74
0
 40
0
 40
0
 40
0
 40
0
 40
1
 40
1
 40
1
 40
1
 10
1179.637500
 20
1104.645000
 30
0.0
 10
1151.842500
 20
1101.052500
 30
0.0
 10
1127.407500
 20
1096.552500
 30
0.0
 10
1107.802500
 20
1116.262500
 30
0.0
  0
SPLINE
  5
296
100
AcDbEntity
  8
0
 62
7
100
AcDbSpline
 70
8
 71
3
 72
8
 73
4
 74
0
 40
0
 40
0
 40
0
 40
0
 40
1
 40
1
 40
1
 40
1
 10
1107.802500
 20
1116.262500
 30
0.0
 10
1095.195000
 20
1128.937500
 30
0.0
 10
1092.007500
 20
1144.912500
 30
0.0
 10
1091.100000
 20
1162.342500
 30
0.0
  0
SPLINE
  5
297
100
AcDbEntity
  8
0
 62
7
100
AcDbSpline
 70
8
 71
3
 72
8
 73
4
 74
0
 40
0
 40
0
 40
0
 40
0
 40
1
 40
1
 40
1
 40
1
 10
1091.100000
 20
1162.342500
 30
0.0
 10
1112.430000
 20
1156.747500
 30
0.0
 10
1121.100000
 20
1158.660000
 30
0.0
 10
1131.540000
 20
1178.010000
 30
0.0
  0
SPLINE
  5
298
100
AcDbEntity
  8
0
 62
7
100
AcDbSpline
 70
8
 71
3
 72
8
 73
4
 74
0
 40
0
 40
0
 40
0
 40
0
 40
1
 40
1
 40
1
 40
1
 10
1131.540000
 20
1178.010000
 30
0.0
 10
1140.885000
 20
1195.297500
 30
0.0
 10
1149.495000
 20
1214.272500
 30
0.0
 10
1152.495000
 20
1233.435000
 30
0.0
  0
SPLINE
  5
299
100
AcDbEntity
  8
0
 62
7
100
AcDbSpline
 70
8
 71
3
 72
8
 73
4
 74
0
 40
0
 40
0
 40
0
 40
0
 40
1
 40
1
 40
1
 40
1
 10
1152.495000
 20
1233.435000
 30
0.0
 10
1160.190000
 20
1282.590000
 30
0.0
 10
1152.592500
 20
1330.590000
 30
0.0
 10
1131.990000
 20
1376.040000
 30
0.0
  0
SPLINE
  5
29a
100
AcDbEntity
  8
0
 62
7
100
AcDbSpline
 70
8
 71
3
 72
8
 73
4
 74
0
 40
0
 40
0
 40
0
 40
0
 40
1
 40
1
 40
1
 40
1
 10
1131.990000
 20
1376.040000
 30
0.0
 10
1112.490000
 20
1419.000000
 30
0.0
 10
1079.325000
 20
1443.030000
 30
0.0
 10
1031.685000
 20
1446.022500
 30
0.0
  0
SPLINE
  5
29b
100
AcDbEntity
  8
0
 62
7
100
AcDbSpline
 70
8
 71
3
 72
8
 73
4
 74
0
 40
0
 40
0
 40
0
 40
0
 40
1
 40
1
 40
1
 40
1
 10
1031.685000
 20
1446.022500
 30
0.0
 10
1028.100000
 20
1446.270000
 30
0.0
 10
1024.522500
 20
1447.222500
 30
0.0
 10
1018.110000
 20
1448.325000
 30
0.0
  0
LWPOLYLINE
  5
29c
100
AcDbEntity
  8
0
 62
7
100
AcDbPolyline
 90
1
 70
1
 10
1118.467500
 20
1247.025000
 30
0.0
  0
LWPOLYLINE
  5
29d
100
AcDbEntity
  8
0
 62
7
100
AcDbPolyline
 90
1
 70
1
 10
1018.110000
 20
1448.325000
 30
0.0
  0
ENDSEC
  0
SECTION
  2
OBJECTS
  0
DICTIONARY
  5
C
330
0
100
AcDbDictionary
  3
ACAD_GROUP
350
D
  3
ACAD_MLINESTYLE
350
17
  0
DICTIONARY
  5
D
330
C
100
AcDbDictionary
  0
DICTIONARY
  5
1A
330
C
100
AcDbDictionary
  0
DICTIONARY
  5
17
330
C
100
AcDbDictionary
  3
STANDARD
350
18
  0
DICTIONARY
  5
19
330
C
100
AcDbDictionary
  0
ENDSEC
  0
EOF
